M48
; DRILL file {KiCad (5.1.10)-1} date 08/29/21 18:49:42
; FORMAT={-:-/ absolute / inch / decimal}
; #@! TF.CreationDate,2021-08-29T18:49:42-07:00
; #@! TF.GenerationSoftware,Kicad,Pcbnew,(5.1.10)-1
; #@! TF.FileFunction,Plated,1,2,PTH
FMAT,2
INCH
T1C0.0157
T2C0.0354
T3C0.0472
T4C0.0591
%
G90
G05
T1
X3.085Y-3.7
X3.325Y-3.4
X3.39Y-2.4
X3.5Y-3.825
X3.525Y-3.2
X3.65Y-3.49
X3.7Y-2.93
X3.75Y-3.83
X3.9Y-2.12
X3.95Y-2.775
X4.0Y-3.17
X4.025Y-3.43
X4.06Y-3.1
X4.125Y-3.1
X4.15Y-2.375
X4.15Y-2.73
X4.315Y-3.6
X4.325Y-2.45
X4.35Y-3.235
X4.37Y-3.35
X4.4Y-2.83
X4.545Y-2.17
X4.595Y-2.35
T2
X2.8563Y-2.3
X2.95Y-2.7
X3.0138Y-2.3
X3.05Y-2.7
X3.1713Y-2.3
X3.2Y-2.7
X3.3Y-2.7
X4.7189Y-3.285
X4.7189Y-3.4425
X4.7189Y-3.6
T3
X2.7776Y-2.1327
X2.7776Y-2.3689
X3.25Y-2.1327
X3.25Y-2.3689
X4.65Y-3.2063
X4.65Y-3.6787
X4.8862Y-3.2063
X4.8862Y-3.6787
T4
X3.0Y-3.0031
X3.0Y-3.2
X3.0Y-3.5
X3.0Y-3.6969
X4.79Y-2.5531
X4.79Y-2.75
T0
M30
