%TF.GenerationSoftware,KiCad,Pcbnew,(5.1.10)-1*%
%TF.CreationDate,2021-08-29T18:49:46-07:00*%
%TF.ProjectId,Solar Charger,536f6c61-7220-4436-9861-726765722e6b,rev?*%
%TF.SameCoordinates,Original*%
%TF.FileFunction,Copper,L2,Bot*%
%TF.FilePolarity,Positive*%
%FSLAX46Y46*%
G04 Gerber Fmt 4.6, Leading zero omitted, Abs format (unit mm)*
G04 Created by KiCad (PCBNEW (5.1.10)-1) date 2021-08-29 18:49:46*
%MOMM*%
%LPD*%
G01*
G04 APERTURE LIST*
%TA.AperFunction,ComponentPad*%
%ADD10C,1.700000*%
%TD*%
%TA.AperFunction,ComponentPad*%
%ADD11C,2.000000*%
%TD*%
%TA.AperFunction,ComponentPad*%
%ADD12C,1.800000*%
%TD*%
%TA.AperFunction,ComponentPad*%
%ADD13R,1.800000X1.800000*%
%TD*%
%TA.AperFunction,ComponentPad*%
%ADD14C,3.000000*%
%TD*%
%TA.AperFunction,ComponentPad*%
%ADD15R,3.000000X3.000000*%
%TD*%
%TA.AperFunction,ViaPad*%
%ADD16C,0.800000*%
%TD*%
%TA.AperFunction,Conductor*%
%ADD17C,0.254000*%
%TD*%
%TA.AperFunction,Conductor*%
%ADD18C,0.100000*%
%TD*%
G04 APERTURE END LIST*
D10*
%TO.P,Output +5V,3*%
%TO.N,N/C*%
X119860000Y-83440000D03*
%TO.P,Output +5V,2*%
%TO.N,Bat_Boost*%
X119860000Y-87440000D03*
%TO.P,Output +5V,1*%
%TO.N,-Charge*%
X119860000Y-91440000D03*
D11*
%TO.P,Output +5V,*%
%TO.N,*%
X124110000Y-93440000D03*
X124110000Y-81440000D03*
X118110000Y-81440000D03*
X118110000Y-93440000D03*
%TD*%
D12*
%TO.P,Fully Charged,2*%
%TO.N,Net-(D1-Pad2)*%
X81280000Y-68580000D03*
D13*
%TO.P,Fully Charged,1*%
%TO.N,Net-(D2-Pad1)*%
X83820000Y-68580000D03*
%TD*%
D10*
%TO.P,Charge Battery,3*%
%TO.N,N/C*%
X72550000Y-58420000D03*
%TO.P,Charge Battery,2*%
%TO.N,Charge*%
X76550000Y-58420000D03*
%TO.P,Charge Battery,1*%
%TO.N,VDC*%
X80550000Y-58420000D03*
D11*
%TO.P,Charge Battery,*%
%TO.N,*%
X82550000Y-54170000D03*
X70550000Y-54170000D03*
X70550000Y-60170000D03*
X82550000Y-60170000D03*
%TD*%
D14*
%TO.P,5V Output,2*%
%TO.N,GND*%
X76200000Y-93900000D03*
D15*
%TO.P,5V Output,1*%
%TO.N,+5V*%
X76200000Y-88900000D03*
%TD*%
D14*
%TO.P,Solar Panel,2*%
%TO.N,GND*%
X76200000Y-81280000D03*
D15*
%TO.P,Solar Panel,1*%
%TO.N,VDC*%
X76200000Y-76280000D03*
%TD*%
D14*
%TO.P,Battery,2*%
%TO.N,-BATT*%
X121666000Y-64850000D03*
D15*
%TO.P,Battery,1*%
%TO.N,-Charge*%
X121666000Y-69850000D03*
%TD*%
D12*
%TO.P,Charging,2*%
%TO.N,Net-(D1-Pad2)*%
X74930000Y-68580000D03*
D13*
%TO.P,Charging,1*%
%TO.N,Net-(D1-Pad1)*%
X77470000Y-68580000D03*
%TD*%
D16*
%TO.N,GND*%
X78359000Y-93980000D03*
X102235000Y-87122000D03*
X88900000Y-97155000D03*
X95250000Y-97282000D03*
X92710000Y-88646000D03*
X84455000Y-86360000D03*
X89535000Y-81280000D03*
X93980000Y-74422000D03*
X101600000Y-80518000D03*
X104775000Y-78740000D03*
X103124000Y-78740000D03*
X110998000Y-85090000D03*
X110490000Y-82169000D03*
X111760000Y-71882000D03*
X100330000Y-70485000D03*
X105410000Y-69342000D03*
X115443000Y-55118000D03*
X116713000Y-59690000D03*
X109855000Y-62230000D03*
X105410000Y-60325000D03*
X99060000Y-53848000D03*
X86106000Y-60960000D03*
X109601000Y-91440000D03*
%TD*%
D17*
%TO.N,GND*%
X69507748Y-52900013D02*
X69280013Y-53127748D01*
X69101082Y-53395537D01*
X68977832Y-53693088D01*
X68915000Y-54008967D01*
X68915000Y-54331033D01*
X68977832Y-54646912D01*
X69101082Y-54944463D01*
X69280013Y-55212252D01*
X69507748Y-55439987D01*
X69775537Y-55618918D01*
X70073088Y-55742168D01*
X70388967Y-55805000D01*
X70711033Y-55805000D01*
X71026912Y-55742168D01*
X71324463Y-55618918D01*
X71592252Y-55439987D01*
X71819987Y-55212252D01*
X71998918Y-54944463D01*
X72122168Y-54646912D01*
X72185000Y-54331033D01*
X72185000Y-54008967D01*
X72122168Y-53693088D01*
X71998918Y-53395537D01*
X71819987Y-53127748D01*
X71592252Y-52900013D01*
X71337810Y-52730000D01*
X81762190Y-52730000D01*
X81507748Y-52900013D01*
X81280013Y-53127748D01*
X81101082Y-53395537D01*
X80977832Y-53693088D01*
X80915000Y-54008967D01*
X80915000Y-54331033D01*
X80977832Y-54646912D01*
X81101082Y-54944463D01*
X81280013Y-55212252D01*
X81507748Y-55439987D01*
X81775537Y-55618918D01*
X82073088Y-55742168D01*
X82388967Y-55805000D01*
X82711033Y-55805000D01*
X83026912Y-55742168D01*
X83324463Y-55618918D01*
X83592252Y-55439987D01*
X83819987Y-55212252D01*
X83998918Y-54944463D01*
X84122168Y-54646912D01*
X84185000Y-54331033D01*
X84185000Y-54008967D01*
X84122168Y-53693088D01*
X83998918Y-53395537D01*
X83819987Y-53127748D01*
X83592252Y-52900013D01*
X83337810Y-52730000D01*
X128245000Y-52730000D01*
X128245001Y-97765000D01*
X68605000Y-97765000D01*
X68605000Y-95391653D01*
X74887952Y-95391653D01*
X75043962Y-95707214D01*
X75418745Y-95898020D01*
X75823551Y-96012044D01*
X76242824Y-96044902D01*
X76660451Y-95995334D01*
X77060383Y-95865243D01*
X77356038Y-95707214D01*
X77512048Y-95391653D01*
X76200000Y-94079605D01*
X74887952Y-95391653D01*
X68605000Y-95391653D01*
X68605000Y-93942824D01*
X74055098Y-93942824D01*
X74104666Y-94360451D01*
X74234757Y-94760383D01*
X74392786Y-95056038D01*
X74708347Y-95212048D01*
X76020395Y-93900000D01*
X76379605Y-93900000D01*
X77691653Y-95212048D01*
X78007214Y-95056038D01*
X78198020Y-94681255D01*
X78312044Y-94276449D01*
X78344902Y-93857176D01*
X78295334Y-93439549D01*
X78243100Y-93278967D01*
X116475000Y-93278967D01*
X116475000Y-93601033D01*
X116537832Y-93916912D01*
X116661082Y-94214463D01*
X116840013Y-94482252D01*
X117067748Y-94709987D01*
X117335537Y-94888918D01*
X117633088Y-95012168D01*
X117948967Y-95075000D01*
X118271033Y-95075000D01*
X118586912Y-95012168D01*
X118884463Y-94888918D01*
X119152252Y-94709987D01*
X119379987Y-94482252D01*
X119558918Y-94214463D01*
X119682168Y-93916912D01*
X119745000Y-93601033D01*
X119745000Y-93278967D01*
X122475000Y-93278967D01*
X122475000Y-93601033D01*
X122537832Y-93916912D01*
X122661082Y-94214463D01*
X122840013Y-94482252D01*
X123067748Y-94709987D01*
X123335537Y-94888918D01*
X123633088Y-95012168D01*
X123948967Y-95075000D01*
X124271033Y-95075000D01*
X124586912Y-95012168D01*
X124884463Y-94888918D01*
X125152252Y-94709987D01*
X125379987Y-94482252D01*
X125558918Y-94214463D01*
X125682168Y-93916912D01*
X125745000Y-93601033D01*
X125745000Y-93278967D01*
X125682168Y-92963088D01*
X125558918Y-92665537D01*
X125379987Y-92397748D01*
X125152252Y-92170013D01*
X124884463Y-91991082D01*
X124586912Y-91867832D01*
X124271033Y-91805000D01*
X123948967Y-91805000D01*
X123633088Y-91867832D01*
X123335537Y-91991082D01*
X123067748Y-92170013D01*
X122840013Y-92397748D01*
X122661082Y-92665537D01*
X122537832Y-92963088D01*
X122475000Y-93278967D01*
X119745000Y-93278967D01*
X119682168Y-92963088D01*
X119662140Y-92914736D01*
X119713740Y-92925000D01*
X120006260Y-92925000D01*
X120293158Y-92867932D01*
X120563411Y-92755990D01*
X120806632Y-92593475D01*
X121013475Y-92386632D01*
X121175990Y-92143411D01*
X121287932Y-91873158D01*
X121345000Y-91586260D01*
X121345000Y-91293740D01*
X121287932Y-91006842D01*
X121175990Y-90736589D01*
X121013475Y-90493368D01*
X120806632Y-90286525D01*
X120563411Y-90124010D01*
X120293158Y-90012068D01*
X120006260Y-89955000D01*
X119713740Y-89955000D01*
X119426842Y-90012068D01*
X119156589Y-90124010D01*
X118913368Y-90286525D01*
X118706525Y-90493368D01*
X118544010Y-90736589D01*
X118432068Y-91006842D01*
X118375000Y-91293740D01*
X118375000Y-91586260D01*
X118424586Y-91835543D01*
X118271033Y-91805000D01*
X117948967Y-91805000D01*
X117633088Y-91867832D01*
X117335537Y-91991082D01*
X117067748Y-92170013D01*
X116840013Y-92397748D01*
X116661082Y-92665537D01*
X116537832Y-92963088D01*
X116475000Y-93278967D01*
X78243100Y-93278967D01*
X78165243Y-93039617D01*
X78007214Y-92743962D01*
X77691653Y-92587952D01*
X76379605Y-93900000D01*
X76020395Y-93900000D01*
X74708347Y-92587952D01*
X74392786Y-92743962D01*
X74201980Y-93118745D01*
X74087956Y-93523551D01*
X74055098Y-93942824D01*
X68605000Y-93942824D01*
X68605000Y-92408347D01*
X74887952Y-92408347D01*
X76200000Y-93720395D01*
X77512048Y-92408347D01*
X77356038Y-92092786D01*
X76981255Y-91901980D01*
X76576449Y-91787956D01*
X76157176Y-91755098D01*
X75739549Y-91804666D01*
X75339617Y-91934757D01*
X75043962Y-92092786D01*
X74887952Y-92408347D01*
X68605000Y-92408347D01*
X68605000Y-87400000D01*
X74061928Y-87400000D01*
X74061928Y-90400000D01*
X74074188Y-90524482D01*
X74110498Y-90644180D01*
X74169463Y-90754494D01*
X74248815Y-90851185D01*
X74345506Y-90930537D01*
X74455820Y-90989502D01*
X74575518Y-91025812D01*
X74700000Y-91038072D01*
X77700000Y-91038072D01*
X77824482Y-91025812D01*
X77944180Y-90989502D01*
X78054494Y-90930537D01*
X78151185Y-90851185D01*
X78230537Y-90754494D01*
X78289502Y-90644180D01*
X78325812Y-90524482D01*
X78338072Y-90400000D01*
X78338072Y-87400000D01*
X78327607Y-87293740D01*
X118375000Y-87293740D01*
X118375000Y-87586260D01*
X118432068Y-87873158D01*
X118544010Y-88143411D01*
X118706525Y-88386632D01*
X118913368Y-88593475D01*
X119156589Y-88755990D01*
X119426842Y-88867932D01*
X119713740Y-88925000D01*
X120006260Y-88925000D01*
X120293158Y-88867932D01*
X120563411Y-88755990D01*
X120806632Y-88593475D01*
X121013475Y-88386632D01*
X121175990Y-88143411D01*
X121287932Y-87873158D01*
X121345000Y-87586260D01*
X121345000Y-87293740D01*
X121287932Y-87006842D01*
X121175990Y-86736589D01*
X121013475Y-86493368D01*
X120806632Y-86286525D01*
X120563411Y-86124010D01*
X120293158Y-86012068D01*
X120006260Y-85955000D01*
X119713740Y-85955000D01*
X119426842Y-86012068D01*
X119156589Y-86124010D01*
X118913368Y-86286525D01*
X118706525Y-86493368D01*
X118544010Y-86736589D01*
X118432068Y-87006842D01*
X118375000Y-87293740D01*
X78327607Y-87293740D01*
X78325812Y-87275518D01*
X78289502Y-87155820D01*
X78230537Y-87045506D01*
X78151185Y-86948815D01*
X78054494Y-86869463D01*
X77944180Y-86810498D01*
X77824482Y-86774188D01*
X77700000Y-86761928D01*
X74700000Y-86761928D01*
X74575518Y-86774188D01*
X74455820Y-86810498D01*
X74345506Y-86869463D01*
X74248815Y-86948815D01*
X74169463Y-87045506D01*
X74110498Y-87155820D01*
X74074188Y-87275518D01*
X74061928Y-87400000D01*
X68605000Y-87400000D01*
X68605000Y-82771653D01*
X74887952Y-82771653D01*
X75043962Y-83087214D01*
X75418745Y-83278020D01*
X75823551Y-83392044D01*
X76242824Y-83424902D01*
X76660451Y-83375334D01*
X77060383Y-83245243D01*
X77356038Y-83087214D01*
X77512048Y-82771653D01*
X76200000Y-81459605D01*
X74887952Y-82771653D01*
X68605000Y-82771653D01*
X68605000Y-81322824D01*
X74055098Y-81322824D01*
X74104666Y-81740451D01*
X74234757Y-82140383D01*
X74392786Y-82436038D01*
X74708347Y-82592048D01*
X76020395Y-81280000D01*
X76379605Y-81280000D01*
X77691653Y-82592048D01*
X78007214Y-82436038D01*
X78198020Y-82061255D01*
X78312044Y-81656449D01*
X78341626Y-81278967D01*
X116475000Y-81278967D01*
X116475000Y-81601033D01*
X116537832Y-81916912D01*
X116661082Y-82214463D01*
X116840013Y-82482252D01*
X117067748Y-82709987D01*
X117335537Y-82888918D01*
X117633088Y-83012168D01*
X117948967Y-83075000D01*
X118271033Y-83075000D01*
X118424586Y-83044457D01*
X118375000Y-83293740D01*
X118375000Y-83586260D01*
X118432068Y-83873158D01*
X118544010Y-84143411D01*
X118706525Y-84386632D01*
X118913368Y-84593475D01*
X119156589Y-84755990D01*
X119426842Y-84867932D01*
X119713740Y-84925000D01*
X120006260Y-84925000D01*
X120293158Y-84867932D01*
X120563411Y-84755990D01*
X120806632Y-84593475D01*
X121013475Y-84386632D01*
X121175990Y-84143411D01*
X121287932Y-83873158D01*
X121345000Y-83586260D01*
X121345000Y-83293740D01*
X121287932Y-83006842D01*
X121175990Y-82736589D01*
X121013475Y-82493368D01*
X120806632Y-82286525D01*
X120563411Y-82124010D01*
X120293158Y-82012068D01*
X120006260Y-81955000D01*
X119713740Y-81955000D01*
X119662140Y-81965264D01*
X119682168Y-81916912D01*
X119745000Y-81601033D01*
X119745000Y-81278967D01*
X122475000Y-81278967D01*
X122475000Y-81601033D01*
X122537832Y-81916912D01*
X122661082Y-82214463D01*
X122840013Y-82482252D01*
X123067748Y-82709987D01*
X123335537Y-82888918D01*
X123633088Y-83012168D01*
X123948967Y-83075000D01*
X124271033Y-83075000D01*
X124586912Y-83012168D01*
X124884463Y-82888918D01*
X125152252Y-82709987D01*
X125379987Y-82482252D01*
X125558918Y-82214463D01*
X125682168Y-81916912D01*
X125745000Y-81601033D01*
X125745000Y-81278967D01*
X125682168Y-80963088D01*
X125558918Y-80665537D01*
X125379987Y-80397748D01*
X125152252Y-80170013D01*
X124884463Y-79991082D01*
X124586912Y-79867832D01*
X124271033Y-79805000D01*
X123948967Y-79805000D01*
X123633088Y-79867832D01*
X123335537Y-79991082D01*
X123067748Y-80170013D01*
X122840013Y-80397748D01*
X122661082Y-80665537D01*
X122537832Y-80963088D01*
X122475000Y-81278967D01*
X119745000Y-81278967D01*
X119682168Y-80963088D01*
X119558918Y-80665537D01*
X119379987Y-80397748D01*
X119152252Y-80170013D01*
X118884463Y-79991082D01*
X118586912Y-79867832D01*
X118271033Y-79805000D01*
X117948967Y-79805000D01*
X117633088Y-79867832D01*
X117335537Y-79991082D01*
X117067748Y-80170013D01*
X116840013Y-80397748D01*
X116661082Y-80665537D01*
X116537832Y-80963088D01*
X116475000Y-81278967D01*
X78341626Y-81278967D01*
X78344902Y-81237176D01*
X78295334Y-80819549D01*
X78165243Y-80419617D01*
X78007214Y-80123962D01*
X77691653Y-79967952D01*
X76379605Y-81280000D01*
X76020395Y-81280000D01*
X74708347Y-79967952D01*
X74392786Y-80123962D01*
X74201980Y-80498745D01*
X74087956Y-80903551D01*
X74055098Y-81322824D01*
X68605000Y-81322824D01*
X68605000Y-79788347D01*
X74887952Y-79788347D01*
X76200000Y-81100395D01*
X77512048Y-79788347D01*
X77356038Y-79472786D01*
X76981255Y-79281980D01*
X76576449Y-79167956D01*
X76157176Y-79135098D01*
X75739549Y-79184666D01*
X75339617Y-79314757D01*
X75043962Y-79472786D01*
X74887952Y-79788347D01*
X68605000Y-79788347D01*
X68605000Y-74780000D01*
X74061928Y-74780000D01*
X74061928Y-77780000D01*
X74074188Y-77904482D01*
X74110498Y-78024180D01*
X74169463Y-78134494D01*
X74248815Y-78231185D01*
X74345506Y-78310537D01*
X74455820Y-78369502D01*
X74575518Y-78405812D01*
X74700000Y-78418072D01*
X77700000Y-78418072D01*
X77824482Y-78405812D01*
X77944180Y-78369502D01*
X78054494Y-78310537D01*
X78151185Y-78231185D01*
X78230537Y-78134494D01*
X78289502Y-78024180D01*
X78325812Y-77904482D01*
X78338072Y-77780000D01*
X78338072Y-74780000D01*
X78325812Y-74655518D01*
X78289502Y-74535820D01*
X78230537Y-74425506D01*
X78151185Y-74328815D01*
X78054494Y-74249463D01*
X77944180Y-74190498D01*
X77824482Y-74154188D01*
X77700000Y-74141928D01*
X74700000Y-74141928D01*
X74575518Y-74154188D01*
X74455820Y-74190498D01*
X74345506Y-74249463D01*
X74248815Y-74328815D01*
X74169463Y-74425506D01*
X74110498Y-74535820D01*
X74074188Y-74655518D01*
X74061928Y-74780000D01*
X68605000Y-74780000D01*
X68605000Y-68428816D01*
X73395000Y-68428816D01*
X73395000Y-68731184D01*
X73453989Y-69027743D01*
X73569701Y-69307095D01*
X73737688Y-69558505D01*
X73951495Y-69772312D01*
X74202905Y-69940299D01*
X74482257Y-70056011D01*
X74778816Y-70115000D01*
X75081184Y-70115000D01*
X75377743Y-70056011D01*
X75657095Y-69940299D01*
X75908505Y-69772312D01*
X75974944Y-69705873D01*
X75980498Y-69724180D01*
X76039463Y-69834494D01*
X76118815Y-69931185D01*
X76215506Y-70010537D01*
X76325820Y-70069502D01*
X76445518Y-70105812D01*
X76570000Y-70118072D01*
X78370000Y-70118072D01*
X78494482Y-70105812D01*
X78614180Y-70069502D01*
X78724494Y-70010537D01*
X78821185Y-69931185D01*
X78900537Y-69834494D01*
X78959502Y-69724180D01*
X78995812Y-69604482D01*
X79008072Y-69480000D01*
X79008072Y-68428816D01*
X79745000Y-68428816D01*
X79745000Y-68731184D01*
X79803989Y-69027743D01*
X79919701Y-69307095D01*
X80087688Y-69558505D01*
X80301495Y-69772312D01*
X80552905Y-69940299D01*
X80832257Y-70056011D01*
X81128816Y-70115000D01*
X81431184Y-70115000D01*
X81727743Y-70056011D01*
X82007095Y-69940299D01*
X82258505Y-69772312D01*
X82324944Y-69705873D01*
X82330498Y-69724180D01*
X82389463Y-69834494D01*
X82468815Y-69931185D01*
X82565506Y-70010537D01*
X82675820Y-70069502D01*
X82795518Y-70105812D01*
X82920000Y-70118072D01*
X84720000Y-70118072D01*
X84844482Y-70105812D01*
X84964180Y-70069502D01*
X85074494Y-70010537D01*
X85171185Y-69931185D01*
X85250537Y-69834494D01*
X85309502Y-69724180D01*
X85345812Y-69604482D01*
X85358072Y-69480000D01*
X85358072Y-68350000D01*
X119527928Y-68350000D01*
X119527928Y-71350000D01*
X119540188Y-71474482D01*
X119576498Y-71594180D01*
X119635463Y-71704494D01*
X119714815Y-71801185D01*
X119811506Y-71880537D01*
X119921820Y-71939502D01*
X120041518Y-71975812D01*
X120166000Y-71988072D01*
X123166000Y-71988072D01*
X123290482Y-71975812D01*
X123410180Y-71939502D01*
X123520494Y-71880537D01*
X123617185Y-71801185D01*
X123696537Y-71704494D01*
X123755502Y-71594180D01*
X123791812Y-71474482D01*
X123804072Y-71350000D01*
X123804072Y-68350000D01*
X123791812Y-68225518D01*
X123755502Y-68105820D01*
X123696537Y-67995506D01*
X123617185Y-67898815D01*
X123520494Y-67819463D01*
X123410180Y-67760498D01*
X123290482Y-67724188D01*
X123166000Y-67711928D01*
X120166000Y-67711928D01*
X120041518Y-67724188D01*
X119921820Y-67760498D01*
X119811506Y-67819463D01*
X119714815Y-67898815D01*
X119635463Y-67995506D01*
X119576498Y-68105820D01*
X119540188Y-68225518D01*
X119527928Y-68350000D01*
X85358072Y-68350000D01*
X85358072Y-67680000D01*
X85345812Y-67555518D01*
X85309502Y-67435820D01*
X85250537Y-67325506D01*
X85171185Y-67228815D01*
X85074494Y-67149463D01*
X84964180Y-67090498D01*
X84844482Y-67054188D01*
X84720000Y-67041928D01*
X82920000Y-67041928D01*
X82795518Y-67054188D01*
X82675820Y-67090498D01*
X82565506Y-67149463D01*
X82468815Y-67228815D01*
X82389463Y-67325506D01*
X82330498Y-67435820D01*
X82324944Y-67454127D01*
X82258505Y-67387688D01*
X82007095Y-67219701D01*
X81727743Y-67103989D01*
X81431184Y-67045000D01*
X81128816Y-67045000D01*
X80832257Y-67103989D01*
X80552905Y-67219701D01*
X80301495Y-67387688D01*
X80087688Y-67601495D01*
X79919701Y-67852905D01*
X79803989Y-68132257D01*
X79745000Y-68428816D01*
X79008072Y-68428816D01*
X79008072Y-67680000D01*
X78995812Y-67555518D01*
X78959502Y-67435820D01*
X78900537Y-67325506D01*
X78821185Y-67228815D01*
X78724494Y-67149463D01*
X78614180Y-67090498D01*
X78494482Y-67054188D01*
X78370000Y-67041928D01*
X76570000Y-67041928D01*
X76445518Y-67054188D01*
X76325820Y-67090498D01*
X76215506Y-67149463D01*
X76118815Y-67228815D01*
X76039463Y-67325506D01*
X75980498Y-67435820D01*
X75974944Y-67454127D01*
X75908505Y-67387688D01*
X75657095Y-67219701D01*
X75377743Y-67103989D01*
X75081184Y-67045000D01*
X74778816Y-67045000D01*
X74482257Y-67103989D01*
X74202905Y-67219701D01*
X73951495Y-67387688D01*
X73737688Y-67601495D01*
X73569701Y-67852905D01*
X73453989Y-68132257D01*
X73395000Y-68428816D01*
X68605000Y-68428816D01*
X68605000Y-64639721D01*
X119531000Y-64639721D01*
X119531000Y-65060279D01*
X119613047Y-65472756D01*
X119773988Y-65861302D01*
X120007637Y-66210983D01*
X120305017Y-66508363D01*
X120654698Y-66742012D01*
X121043244Y-66902953D01*
X121455721Y-66985000D01*
X121876279Y-66985000D01*
X122288756Y-66902953D01*
X122677302Y-66742012D01*
X123026983Y-66508363D01*
X123324363Y-66210983D01*
X123558012Y-65861302D01*
X123718953Y-65472756D01*
X123801000Y-65060279D01*
X123801000Y-64639721D01*
X123718953Y-64227244D01*
X123558012Y-63838698D01*
X123324363Y-63489017D01*
X123026983Y-63191637D01*
X122677302Y-62957988D01*
X122288756Y-62797047D01*
X121876279Y-62715000D01*
X121455721Y-62715000D01*
X121043244Y-62797047D01*
X120654698Y-62957988D01*
X120305017Y-63191637D01*
X120007637Y-63489017D01*
X119773988Y-63838698D01*
X119613047Y-64227244D01*
X119531000Y-64639721D01*
X68605000Y-64639721D01*
X68605000Y-60008967D01*
X68915000Y-60008967D01*
X68915000Y-60331033D01*
X68977832Y-60646912D01*
X69101082Y-60944463D01*
X69280013Y-61212252D01*
X69507748Y-61439987D01*
X69775537Y-61618918D01*
X70073088Y-61742168D01*
X70388967Y-61805000D01*
X70711033Y-61805000D01*
X71026912Y-61742168D01*
X71324463Y-61618918D01*
X71592252Y-61439987D01*
X71819987Y-61212252D01*
X71998918Y-60944463D01*
X72122168Y-60646912D01*
X72185000Y-60331033D01*
X72185000Y-60008967D01*
X72154457Y-59855414D01*
X72403740Y-59905000D01*
X72696260Y-59905000D01*
X72983158Y-59847932D01*
X73253411Y-59735990D01*
X73496632Y-59573475D01*
X73703475Y-59366632D01*
X73865990Y-59123411D01*
X73977932Y-58853158D01*
X74035000Y-58566260D01*
X74035000Y-58273740D01*
X75065000Y-58273740D01*
X75065000Y-58566260D01*
X75122068Y-58853158D01*
X75234010Y-59123411D01*
X75396525Y-59366632D01*
X75603368Y-59573475D01*
X75846589Y-59735990D01*
X76116842Y-59847932D01*
X76403740Y-59905000D01*
X76696260Y-59905000D01*
X76983158Y-59847932D01*
X77253411Y-59735990D01*
X77496632Y-59573475D01*
X77703475Y-59366632D01*
X77865990Y-59123411D01*
X77977932Y-58853158D01*
X78035000Y-58566260D01*
X78035000Y-58273740D01*
X79065000Y-58273740D01*
X79065000Y-58566260D01*
X79122068Y-58853158D01*
X79234010Y-59123411D01*
X79396525Y-59366632D01*
X79603368Y-59573475D01*
X79846589Y-59735990D01*
X80116842Y-59847932D01*
X80403740Y-59905000D01*
X80696260Y-59905000D01*
X80945543Y-59855414D01*
X80915000Y-60008967D01*
X80915000Y-60331033D01*
X80977832Y-60646912D01*
X81101082Y-60944463D01*
X81280013Y-61212252D01*
X81507748Y-61439987D01*
X81775537Y-61618918D01*
X82073088Y-61742168D01*
X82388967Y-61805000D01*
X82711033Y-61805000D01*
X83026912Y-61742168D01*
X83324463Y-61618918D01*
X83592252Y-61439987D01*
X83819987Y-61212252D01*
X83998918Y-60944463D01*
X84122168Y-60646912D01*
X84185000Y-60331033D01*
X84185000Y-60008967D01*
X84122168Y-59693088D01*
X83998918Y-59395537D01*
X83819987Y-59127748D01*
X83592252Y-58900013D01*
X83324463Y-58721082D01*
X83026912Y-58597832D01*
X82711033Y-58535000D01*
X82388967Y-58535000D01*
X82073088Y-58597832D01*
X82024736Y-58617860D01*
X82035000Y-58566260D01*
X82035000Y-58273740D01*
X81977932Y-57986842D01*
X81865990Y-57716589D01*
X81703475Y-57473368D01*
X81496632Y-57266525D01*
X81253411Y-57104010D01*
X80983158Y-56992068D01*
X80696260Y-56935000D01*
X80403740Y-56935000D01*
X80116842Y-56992068D01*
X79846589Y-57104010D01*
X79603368Y-57266525D01*
X79396525Y-57473368D01*
X79234010Y-57716589D01*
X79122068Y-57986842D01*
X79065000Y-58273740D01*
X78035000Y-58273740D01*
X77977932Y-57986842D01*
X77865990Y-57716589D01*
X77703475Y-57473368D01*
X77496632Y-57266525D01*
X77253411Y-57104010D01*
X76983158Y-56992068D01*
X76696260Y-56935000D01*
X76403740Y-56935000D01*
X76116842Y-56992068D01*
X75846589Y-57104010D01*
X75603368Y-57266525D01*
X75396525Y-57473368D01*
X75234010Y-57716589D01*
X75122068Y-57986842D01*
X75065000Y-58273740D01*
X74035000Y-58273740D01*
X73977932Y-57986842D01*
X73865990Y-57716589D01*
X73703475Y-57473368D01*
X73496632Y-57266525D01*
X73253411Y-57104010D01*
X72983158Y-56992068D01*
X72696260Y-56935000D01*
X72403740Y-56935000D01*
X72116842Y-56992068D01*
X71846589Y-57104010D01*
X71603368Y-57266525D01*
X71396525Y-57473368D01*
X71234010Y-57716589D01*
X71122068Y-57986842D01*
X71065000Y-58273740D01*
X71065000Y-58566260D01*
X71075264Y-58617860D01*
X71026912Y-58597832D01*
X70711033Y-58535000D01*
X70388967Y-58535000D01*
X70073088Y-58597832D01*
X69775537Y-58721082D01*
X69507748Y-58900013D01*
X69280013Y-59127748D01*
X69101082Y-59395537D01*
X68977832Y-59693088D01*
X68915000Y-60008967D01*
X68605000Y-60008967D01*
X68605000Y-52730000D01*
X69762190Y-52730000D01*
X69507748Y-52900013D01*
%TA.AperFunction,Conductor*%
D18*
G36*
X69507748Y-52900013D02*
G01*
X69280013Y-53127748D01*
X69101082Y-53395537D01*
X68977832Y-53693088D01*
X68915000Y-54008967D01*
X68915000Y-54331033D01*
X68977832Y-54646912D01*
X69101082Y-54944463D01*
X69280013Y-55212252D01*
X69507748Y-55439987D01*
X69775537Y-55618918D01*
X70073088Y-55742168D01*
X70388967Y-55805000D01*
X70711033Y-55805000D01*
X71026912Y-55742168D01*
X71324463Y-55618918D01*
X71592252Y-55439987D01*
X71819987Y-55212252D01*
X71998918Y-54944463D01*
X72122168Y-54646912D01*
X72185000Y-54331033D01*
X72185000Y-54008967D01*
X72122168Y-53693088D01*
X71998918Y-53395537D01*
X71819987Y-53127748D01*
X71592252Y-52900013D01*
X71337810Y-52730000D01*
X81762190Y-52730000D01*
X81507748Y-52900013D01*
X81280013Y-53127748D01*
X81101082Y-53395537D01*
X80977832Y-53693088D01*
X80915000Y-54008967D01*
X80915000Y-54331033D01*
X80977832Y-54646912D01*
X81101082Y-54944463D01*
X81280013Y-55212252D01*
X81507748Y-55439987D01*
X81775537Y-55618918D01*
X82073088Y-55742168D01*
X82388967Y-55805000D01*
X82711033Y-55805000D01*
X83026912Y-55742168D01*
X83324463Y-55618918D01*
X83592252Y-55439987D01*
X83819987Y-55212252D01*
X83998918Y-54944463D01*
X84122168Y-54646912D01*
X84185000Y-54331033D01*
X84185000Y-54008967D01*
X84122168Y-53693088D01*
X83998918Y-53395537D01*
X83819987Y-53127748D01*
X83592252Y-52900013D01*
X83337810Y-52730000D01*
X128245000Y-52730000D01*
X128245001Y-97765000D01*
X68605000Y-97765000D01*
X68605000Y-95391653D01*
X74887952Y-95391653D01*
X75043962Y-95707214D01*
X75418745Y-95898020D01*
X75823551Y-96012044D01*
X76242824Y-96044902D01*
X76660451Y-95995334D01*
X77060383Y-95865243D01*
X77356038Y-95707214D01*
X77512048Y-95391653D01*
X76200000Y-94079605D01*
X74887952Y-95391653D01*
X68605000Y-95391653D01*
X68605000Y-93942824D01*
X74055098Y-93942824D01*
X74104666Y-94360451D01*
X74234757Y-94760383D01*
X74392786Y-95056038D01*
X74708347Y-95212048D01*
X76020395Y-93900000D01*
X76379605Y-93900000D01*
X77691653Y-95212048D01*
X78007214Y-95056038D01*
X78198020Y-94681255D01*
X78312044Y-94276449D01*
X78344902Y-93857176D01*
X78295334Y-93439549D01*
X78243100Y-93278967D01*
X116475000Y-93278967D01*
X116475000Y-93601033D01*
X116537832Y-93916912D01*
X116661082Y-94214463D01*
X116840013Y-94482252D01*
X117067748Y-94709987D01*
X117335537Y-94888918D01*
X117633088Y-95012168D01*
X117948967Y-95075000D01*
X118271033Y-95075000D01*
X118586912Y-95012168D01*
X118884463Y-94888918D01*
X119152252Y-94709987D01*
X119379987Y-94482252D01*
X119558918Y-94214463D01*
X119682168Y-93916912D01*
X119745000Y-93601033D01*
X119745000Y-93278967D01*
X122475000Y-93278967D01*
X122475000Y-93601033D01*
X122537832Y-93916912D01*
X122661082Y-94214463D01*
X122840013Y-94482252D01*
X123067748Y-94709987D01*
X123335537Y-94888918D01*
X123633088Y-95012168D01*
X123948967Y-95075000D01*
X124271033Y-95075000D01*
X124586912Y-95012168D01*
X124884463Y-94888918D01*
X125152252Y-94709987D01*
X125379987Y-94482252D01*
X125558918Y-94214463D01*
X125682168Y-93916912D01*
X125745000Y-93601033D01*
X125745000Y-93278967D01*
X125682168Y-92963088D01*
X125558918Y-92665537D01*
X125379987Y-92397748D01*
X125152252Y-92170013D01*
X124884463Y-91991082D01*
X124586912Y-91867832D01*
X124271033Y-91805000D01*
X123948967Y-91805000D01*
X123633088Y-91867832D01*
X123335537Y-91991082D01*
X123067748Y-92170013D01*
X122840013Y-92397748D01*
X122661082Y-92665537D01*
X122537832Y-92963088D01*
X122475000Y-93278967D01*
X119745000Y-93278967D01*
X119682168Y-92963088D01*
X119662140Y-92914736D01*
X119713740Y-92925000D01*
X120006260Y-92925000D01*
X120293158Y-92867932D01*
X120563411Y-92755990D01*
X120806632Y-92593475D01*
X121013475Y-92386632D01*
X121175990Y-92143411D01*
X121287932Y-91873158D01*
X121345000Y-91586260D01*
X121345000Y-91293740D01*
X121287932Y-91006842D01*
X121175990Y-90736589D01*
X121013475Y-90493368D01*
X120806632Y-90286525D01*
X120563411Y-90124010D01*
X120293158Y-90012068D01*
X120006260Y-89955000D01*
X119713740Y-89955000D01*
X119426842Y-90012068D01*
X119156589Y-90124010D01*
X118913368Y-90286525D01*
X118706525Y-90493368D01*
X118544010Y-90736589D01*
X118432068Y-91006842D01*
X118375000Y-91293740D01*
X118375000Y-91586260D01*
X118424586Y-91835543D01*
X118271033Y-91805000D01*
X117948967Y-91805000D01*
X117633088Y-91867832D01*
X117335537Y-91991082D01*
X117067748Y-92170013D01*
X116840013Y-92397748D01*
X116661082Y-92665537D01*
X116537832Y-92963088D01*
X116475000Y-93278967D01*
X78243100Y-93278967D01*
X78165243Y-93039617D01*
X78007214Y-92743962D01*
X77691653Y-92587952D01*
X76379605Y-93900000D01*
X76020395Y-93900000D01*
X74708347Y-92587952D01*
X74392786Y-92743962D01*
X74201980Y-93118745D01*
X74087956Y-93523551D01*
X74055098Y-93942824D01*
X68605000Y-93942824D01*
X68605000Y-92408347D01*
X74887952Y-92408347D01*
X76200000Y-93720395D01*
X77512048Y-92408347D01*
X77356038Y-92092786D01*
X76981255Y-91901980D01*
X76576449Y-91787956D01*
X76157176Y-91755098D01*
X75739549Y-91804666D01*
X75339617Y-91934757D01*
X75043962Y-92092786D01*
X74887952Y-92408347D01*
X68605000Y-92408347D01*
X68605000Y-87400000D01*
X74061928Y-87400000D01*
X74061928Y-90400000D01*
X74074188Y-90524482D01*
X74110498Y-90644180D01*
X74169463Y-90754494D01*
X74248815Y-90851185D01*
X74345506Y-90930537D01*
X74455820Y-90989502D01*
X74575518Y-91025812D01*
X74700000Y-91038072D01*
X77700000Y-91038072D01*
X77824482Y-91025812D01*
X77944180Y-90989502D01*
X78054494Y-90930537D01*
X78151185Y-90851185D01*
X78230537Y-90754494D01*
X78289502Y-90644180D01*
X78325812Y-90524482D01*
X78338072Y-90400000D01*
X78338072Y-87400000D01*
X78327607Y-87293740D01*
X118375000Y-87293740D01*
X118375000Y-87586260D01*
X118432068Y-87873158D01*
X118544010Y-88143411D01*
X118706525Y-88386632D01*
X118913368Y-88593475D01*
X119156589Y-88755990D01*
X119426842Y-88867932D01*
X119713740Y-88925000D01*
X120006260Y-88925000D01*
X120293158Y-88867932D01*
X120563411Y-88755990D01*
X120806632Y-88593475D01*
X121013475Y-88386632D01*
X121175990Y-88143411D01*
X121287932Y-87873158D01*
X121345000Y-87586260D01*
X121345000Y-87293740D01*
X121287932Y-87006842D01*
X121175990Y-86736589D01*
X121013475Y-86493368D01*
X120806632Y-86286525D01*
X120563411Y-86124010D01*
X120293158Y-86012068D01*
X120006260Y-85955000D01*
X119713740Y-85955000D01*
X119426842Y-86012068D01*
X119156589Y-86124010D01*
X118913368Y-86286525D01*
X118706525Y-86493368D01*
X118544010Y-86736589D01*
X118432068Y-87006842D01*
X118375000Y-87293740D01*
X78327607Y-87293740D01*
X78325812Y-87275518D01*
X78289502Y-87155820D01*
X78230537Y-87045506D01*
X78151185Y-86948815D01*
X78054494Y-86869463D01*
X77944180Y-86810498D01*
X77824482Y-86774188D01*
X77700000Y-86761928D01*
X74700000Y-86761928D01*
X74575518Y-86774188D01*
X74455820Y-86810498D01*
X74345506Y-86869463D01*
X74248815Y-86948815D01*
X74169463Y-87045506D01*
X74110498Y-87155820D01*
X74074188Y-87275518D01*
X74061928Y-87400000D01*
X68605000Y-87400000D01*
X68605000Y-82771653D01*
X74887952Y-82771653D01*
X75043962Y-83087214D01*
X75418745Y-83278020D01*
X75823551Y-83392044D01*
X76242824Y-83424902D01*
X76660451Y-83375334D01*
X77060383Y-83245243D01*
X77356038Y-83087214D01*
X77512048Y-82771653D01*
X76200000Y-81459605D01*
X74887952Y-82771653D01*
X68605000Y-82771653D01*
X68605000Y-81322824D01*
X74055098Y-81322824D01*
X74104666Y-81740451D01*
X74234757Y-82140383D01*
X74392786Y-82436038D01*
X74708347Y-82592048D01*
X76020395Y-81280000D01*
X76379605Y-81280000D01*
X77691653Y-82592048D01*
X78007214Y-82436038D01*
X78198020Y-82061255D01*
X78312044Y-81656449D01*
X78341626Y-81278967D01*
X116475000Y-81278967D01*
X116475000Y-81601033D01*
X116537832Y-81916912D01*
X116661082Y-82214463D01*
X116840013Y-82482252D01*
X117067748Y-82709987D01*
X117335537Y-82888918D01*
X117633088Y-83012168D01*
X117948967Y-83075000D01*
X118271033Y-83075000D01*
X118424586Y-83044457D01*
X118375000Y-83293740D01*
X118375000Y-83586260D01*
X118432068Y-83873158D01*
X118544010Y-84143411D01*
X118706525Y-84386632D01*
X118913368Y-84593475D01*
X119156589Y-84755990D01*
X119426842Y-84867932D01*
X119713740Y-84925000D01*
X120006260Y-84925000D01*
X120293158Y-84867932D01*
X120563411Y-84755990D01*
X120806632Y-84593475D01*
X121013475Y-84386632D01*
X121175990Y-84143411D01*
X121287932Y-83873158D01*
X121345000Y-83586260D01*
X121345000Y-83293740D01*
X121287932Y-83006842D01*
X121175990Y-82736589D01*
X121013475Y-82493368D01*
X120806632Y-82286525D01*
X120563411Y-82124010D01*
X120293158Y-82012068D01*
X120006260Y-81955000D01*
X119713740Y-81955000D01*
X119662140Y-81965264D01*
X119682168Y-81916912D01*
X119745000Y-81601033D01*
X119745000Y-81278967D01*
X122475000Y-81278967D01*
X122475000Y-81601033D01*
X122537832Y-81916912D01*
X122661082Y-82214463D01*
X122840013Y-82482252D01*
X123067748Y-82709987D01*
X123335537Y-82888918D01*
X123633088Y-83012168D01*
X123948967Y-83075000D01*
X124271033Y-83075000D01*
X124586912Y-83012168D01*
X124884463Y-82888918D01*
X125152252Y-82709987D01*
X125379987Y-82482252D01*
X125558918Y-82214463D01*
X125682168Y-81916912D01*
X125745000Y-81601033D01*
X125745000Y-81278967D01*
X125682168Y-80963088D01*
X125558918Y-80665537D01*
X125379987Y-80397748D01*
X125152252Y-80170013D01*
X124884463Y-79991082D01*
X124586912Y-79867832D01*
X124271033Y-79805000D01*
X123948967Y-79805000D01*
X123633088Y-79867832D01*
X123335537Y-79991082D01*
X123067748Y-80170013D01*
X122840013Y-80397748D01*
X122661082Y-80665537D01*
X122537832Y-80963088D01*
X122475000Y-81278967D01*
X119745000Y-81278967D01*
X119682168Y-80963088D01*
X119558918Y-80665537D01*
X119379987Y-80397748D01*
X119152252Y-80170013D01*
X118884463Y-79991082D01*
X118586912Y-79867832D01*
X118271033Y-79805000D01*
X117948967Y-79805000D01*
X117633088Y-79867832D01*
X117335537Y-79991082D01*
X117067748Y-80170013D01*
X116840013Y-80397748D01*
X116661082Y-80665537D01*
X116537832Y-80963088D01*
X116475000Y-81278967D01*
X78341626Y-81278967D01*
X78344902Y-81237176D01*
X78295334Y-80819549D01*
X78165243Y-80419617D01*
X78007214Y-80123962D01*
X77691653Y-79967952D01*
X76379605Y-81280000D01*
X76020395Y-81280000D01*
X74708347Y-79967952D01*
X74392786Y-80123962D01*
X74201980Y-80498745D01*
X74087956Y-80903551D01*
X74055098Y-81322824D01*
X68605000Y-81322824D01*
X68605000Y-79788347D01*
X74887952Y-79788347D01*
X76200000Y-81100395D01*
X77512048Y-79788347D01*
X77356038Y-79472786D01*
X76981255Y-79281980D01*
X76576449Y-79167956D01*
X76157176Y-79135098D01*
X75739549Y-79184666D01*
X75339617Y-79314757D01*
X75043962Y-79472786D01*
X74887952Y-79788347D01*
X68605000Y-79788347D01*
X68605000Y-74780000D01*
X74061928Y-74780000D01*
X74061928Y-77780000D01*
X74074188Y-77904482D01*
X74110498Y-78024180D01*
X74169463Y-78134494D01*
X74248815Y-78231185D01*
X74345506Y-78310537D01*
X74455820Y-78369502D01*
X74575518Y-78405812D01*
X74700000Y-78418072D01*
X77700000Y-78418072D01*
X77824482Y-78405812D01*
X77944180Y-78369502D01*
X78054494Y-78310537D01*
X78151185Y-78231185D01*
X78230537Y-78134494D01*
X78289502Y-78024180D01*
X78325812Y-77904482D01*
X78338072Y-77780000D01*
X78338072Y-74780000D01*
X78325812Y-74655518D01*
X78289502Y-74535820D01*
X78230537Y-74425506D01*
X78151185Y-74328815D01*
X78054494Y-74249463D01*
X77944180Y-74190498D01*
X77824482Y-74154188D01*
X77700000Y-74141928D01*
X74700000Y-74141928D01*
X74575518Y-74154188D01*
X74455820Y-74190498D01*
X74345506Y-74249463D01*
X74248815Y-74328815D01*
X74169463Y-74425506D01*
X74110498Y-74535820D01*
X74074188Y-74655518D01*
X74061928Y-74780000D01*
X68605000Y-74780000D01*
X68605000Y-68428816D01*
X73395000Y-68428816D01*
X73395000Y-68731184D01*
X73453989Y-69027743D01*
X73569701Y-69307095D01*
X73737688Y-69558505D01*
X73951495Y-69772312D01*
X74202905Y-69940299D01*
X74482257Y-70056011D01*
X74778816Y-70115000D01*
X75081184Y-70115000D01*
X75377743Y-70056011D01*
X75657095Y-69940299D01*
X75908505Y-69772312D01*
X75974944Y-69705873D01*
X75980498Y-69724180D01*
X76039463Y-69834494D01*
X76118815Y-69931185D01*
X76215506Y-70010537D01*
X76325820Y-70069502D01*
X76445518Y-70105812D01*
X76570000Y-70118072D01*
X78370000Y-70118072D01*
X78494482Y-70105812D01*
X78614180Y-70069502D01*
X78724494Y-70010537D01*
X78821185Y-69931185D01*
X78900537Y-69834494D01*
X78959502Y-69724180D01*
X78995812Y-69604482D01*
X79008072Y-69480000D01*
X79008072Y-68428816D01*
X79745000Y-68428816D01*
X79745000Y-68731184D01*
X79803989Y-69027743D01*
X79919701Y-69307095D01*
X80087688Y-69558505D01*
X80301495Y-69772312D01*
X80552905Y-69940299D01*
X80832257Y-70056011D01*
X81128816Y-70115000D01*
X81431184Y-70115000D01*
X81727743Y-70056011D01*
X82007095Y-69940299D01*
X82258505Y-69772312D01*
X82324944Y-69705873D01*
X82330498Y-69724180D01*
X82389463Y-69834494D01*
X82468815Y-69931185D01*
X82565506Y-70010537D01*
X82675820Y-70069502D01*
X82795518Y-70105812D01*
X82920000Y-70118072D01*
X84720000Y-70118072D01*
X84844482Y-70105812D01*
X84964180Y-70069502D01*
X85074494Y-70010537D01*
X85171185Y-69931185D01*
X85250537Y-69834494D01*
X85309502Y-69724180D01*
X85345812Y-69604482D01*
X85358072Y-69480000D01*
X85358072Y-68350000D01*
X119527928Y-68350000D01*
X119527928Y-71350000D01*
X119540188Y-71474482D01*
X119576498Y-71594180D01*
X119635463Y-71704494D01*
X119714815Y-71801185D01*
X119811506Y-71880537D01*
X119921820Y-71939502D01*
X120041518Y-71975812D01*
X120166000Y-71988072D01*
X123166000Y-71988072D01*
X123290482Y-71975812D01*
X123410180Y-71939502D01*
X123520494Y-71880537D01*
X123617185Y-71801185D01*
X123696537Y-71704494D01*
X123755502Y-71594180D01*
X123791812Y-71474482D01*
X123804072Y-71350000D01*
X123804072Y-68350000D01*
X123791812Y-68225518D01*
X123755502Y-68105820D01*
X123696537Y-67995506D01*
X123617185Y-67898815D01*
X123520494Y-67819463D01*
X123410180Y-67760498D01*
X123290482Y-67724188D01*
X123166000Y-67711928D01*
X120166000Y-67711928D01*
X120041518Y-67724188D01*
X119921820Y-67760498D01*
X119811506Y-67819463D01*
X119714815Y-67898815D01*
X119635463Y-67995506D01*
X119576498Y-68105820D01*
X119540188Y-68225518D01*
X119527928Y-68350000D01*
X85358072Y-68350000D01*
X85358072Y-67680000D01*
X85345812Y-67555518D01*
X85309502Y-67435820D01*
X85250537Y-67325506D01*
X85171185Y-67228815D01*
X85074494Y-67149463D01*
X84964180Y-67090498D01*
X84844482Y-67054188D01*
X84720000Y-67041928D01*
X82920000Y-67041928D01*
X82795518Y-67054188D01*
X82675820Y-67090498D01*
X82565506Y-67149463D01*
X82468815Y-67228815D01*
X82389463Y-67325506D01*
X82330498Y-67435820D01*
X82324944Y-67454127D01*
X82258505Y-67387688D01*
X82007095Y-67219701D01*
X81727743Y-67103989D01*
X81431184Y-67045000D01*
X81128816Y-67045000D01*
X80832257Y-67103989D01*
X80552905Y-67219701D01*
X80301495Y-67387688D01*
X80087688Y-67601495D01*
X79919701Y-67852905D01*
X79803989Y-68132257D01*
X79745000Y-68428816D01*
X79008072Y-68428816D01*
X79008072Y-67680000D01*
X78995812Y-67555518D01*
X78959502Y-67435820D01*
X78900537Y-67325506D01*
X78821185Y-67228815D01*
X78724494Y-67149463D01*
X78614180Y-67090498D01*
X78494482Y-67054188D01*
X78370000Y-67041928D01*
X76570000Y-67041928D01*
X76445518Y-67054188D01*
X76325820Y-67090498D01*
X76215506Y-67149463D01*
X76118815Y-67228815D01*
X76039463Y-67325506D01*
X75980498Y-67435820D01*
X75974944Y-67454127D01*
X75908505Y-67387688D01*
X75657095Y-67219701D01*
X75377743Y-67103989D01*
X75081184Y-67045000D01*
X74778816Y-67045000D01*
X74482257Y-67103989D01*
X74202905Y-67219701D01*
X73951495Y-67387688D01*
X73737688Y-67601495D01*
X73569701Y-67852905D01*
X73453989Y-68132257D01*
X73395000Y-68428816D01*
X68605000Y-68428816D01*
X68605000Y-64639721D01*
X119531000Y-64639721D01*
X119531000Y-65060279D01*
X119613047Y-65472756D01*
X119773988Y-65861302D01*
X120007637Y-66210983D01*
X120305017Y-66508363D01*
X120654698Y-66742012D01*
X121043244Y-66902953D01*
X121455721Y-66985000D01*
X121876279Y-66985000D01*
X122288756Y-66902953D01*
X122677302Y-66742012D01*
X123026983Y-66508363D01*
X123324363Y-66210983D01*
X123558012Y-65861302D01*
X123718953Y-65472756D01*
X123801000Y-65060279D01*
X123801000Y-64639721D01*
X123718953Y-64227244D01*
X123558012Y-63838698D01*
X123324363Y-63489017D01*
X123026983Y-63191637D01*
X122677302Y-62957988D01*
X122288756Y-62797047D01*
X121876279Y-62715000D01*
X121455721Y-62715000D01*
X121043244Y-62797047D01*
X120654698Y-62957988D01*
X120305017Y-63191637D01*
X120007637Y-63489017D01*
X119773988Y-63838698D01*
X119613047Y-64227244D01*
X119531000Y-64639721D01*
X68605000Y-64639721D01*
X68605000Y-60008967D01*
X68915000Y-60008967D01*
X68915000Y-60331033D01*
X68977832Y-60646912D01*
X69101082Y-60944463D01*
X69280013Y-61212252D01*
X69507748Y-61439987D01*
X69775537Y-61618918D01*
X70073088Y-61742168D01*
X70388967Y-61805000D01*
X70711033Y-61805000D01*
X71026912Y-61742168D01*
X71324463Y-61618918D01*
X71592252Y-61439987D01*
X71819987Y-61212252D01*
X71998918Y-60944463D01*
X72122168Y-60646912D01*
X72185000Y-60331033D01*
X72185000Y-60008967D01*
X72154457Y-59855414D01*
X72403740Y-59905000D01*
X72696260Y-59905000D01*
X72983158Y-59847932D01*
X73253411Y-59735990D01*
X73496632Y-59573475D01*
X73703475Y-59366632D01*
X73865990Y-59123411D01*
X73977932Y-58853158D01*
X74035000Y-58566260D01*
X74035000Y-58273740D01*
X75065000Y-58273740D01*
X75065000Y-58566260D01*
X75122068Y-58853158D01*
X75234010Y-59123411D01*
X75396525Y-59366632D01*
X75603368Y-59573475D01*
X75846589Y-59735990D01*
X76116842Y-59847932D01*
X76403740Y-59905000D01*
X76696260Y-59905000D01*
X76983158Y-59847932D01*
X77253411Y-59735990D01*
X77496632Y-59573475D01*
X77703475Y-59366632D01*
X77865990Y-59123411D01*
X77977932Y-58853158D01*
X78035000Y-58566260D01*
X78035000Y-58273740D01*
X79065000Y-58273740D01*
X79065000Y-58566260D01*
X79122068Y-58853158D01*
X79234010Y-59123411D01*
X79396525Y-59366632D01*
X79603368Y-59573475D01*
X79846589Y-59735990D01*
X80116842Y-59847932D01*
X80403740Y-59905000D01*
X80696260Y-59905000D01*
X80945543Y-59855414D01*
X80915000Y-60008967D01*
X80915000Y-60331033D01*
X80977832Y-60646912D01*
X81101082Y-60944463D01*
X81280013Y-61212252D01*
X81507748Y-61439987D01*
X81775537Y-61618918D01*
X82073088Y-61742168D01*
X82388967Y-61805000D01*
X82711033Y-61805000D01*
X83026912Y-61742168D01*
X83324463Y-61618918D01*
X83592252Y-61439987D01*
X83819987Y-61212252D01*
X83998918Y-60944463D01*
X84122168Y-60646912D01*
X84185000Y-60331033D01*
X84185000Y-60008967D01*
X84122168Y-59693088D01*
X83998918Y-59395537D01*
X83819987Y-59127748D01*
X83592252Y-58900013D01*
X83324463Y-58721082D01*
X83026912Y-58597832D01*
X82711033Y-58535000D01*
X82388967Y-58535000D01*
X82073088Y-58597832D01*
X82024736Y-58617860D01*
X82035000Y-58566260D01*
X82035000Y-58273740D01*
X81977932Y-57986842D01*
X81865990Y-57716589D01*
X81703475Y-57473368D01*
X81496632Y-57266525D01*
X81253411Y-57104010D01*
X80983158Y-56992068D01*
X80696260Y-56935000D01*
X80403740Y-56935000D01*
X80116842Y-56992068D01*
X79846589Y-57104010D01*
X79603368Y-57266525D01*
X79396525Y-57473368D01*
X79234010Y-57716589D01*
X79122068Y-57986842D01*
X79065000Y-58273740D01*
X78035000Y-58273740D01*
X77977932Y-57986842D01*
X77865990Y-57716589D01*
X77703475Y-57473368D01*
X77496632Y-57266525D01*
X77253411Y-57104010D01*
X76983158Y-56992068D01*
X76696260Y-56935000D01*
X76403740Y-56935000D01*
X76116842Y-56992068D01*
X75846589Y-57104010D01*
X75603368Y-57266525D01*
X75396525Y-57473368D01*
X75234010Y-57716589D01*
X75122068Y-57986842D01*
X75065000Y-58273740D01*
X74035000Y-58273740D01*
X73977932Y-57986842D01*
X73865990Y-57716589D01*
X73703475Y-57473368D01*
X73496632Y-57266525D01*
X73253411Y-57104010D01*
X72983158Y-56992068D01*
X72696260Y-56935000D01*
X72403740Y-56935000D01*
X72116842Y-56992068D01*
X71846589Y-57104010D01*
X71603368Y-57266525D01*
X71396525Y-57473368D01*
X71234010Y-57716589D01*
X71122068Y-57986842D01*
X71065000Y-58273740D01*
X71065000Y-58566260D01*
X71075264Y-58617860D01*
X71026912Y-58597832D01*
X70711033Y-58535000D01*
X70388967Y-58535000D01*
X70073088Y-58597832D01*
X69775537Y-58721082D01*
X69507748Y-58900013D01*
X69280013Y-59127748D01*
X69101082Y-59395537D01*
X68977832Y-59693088D01*
X68915000Y-60008967D01*
X68605000Y-60008967D01*
X68605000Y-52730000D01*
X69762190Y-52730000D01*
X69507748Y-52900013D01*
G37*
%TD.AperFunction*%
%TD*%
M02*
