%TF.GenerationSoftware,KiCad,Pcbnew,(5.1.10)-1*%
%TF.CreationDate,2021-08-29T18:49:46-07:00*%
%TF.ProjectId,Solar Charger,536f6c61-7220-4436-9861-726765722e6b,rev?*%
%TF.SameCoordinates,Original*%
%TF.FileFunction,Legend,Top*%
%TF.FilePolarity,Positive*%
%FSLAX46Y46*%
G04 Gerber Fmt 4.6, Leading zero omitted, Abs format (unit mm)*
G04 Created by KiCad (PCBNEW (5.1.10)-1) date 2021-08-29 18:49:46*
%MOMM*%
%LPD*%
G01*
G04 APERTURE LIST*
%ADD10C,0.120000*%
%ADD11C,0.200000*%
%ADD12C,0.127000*%
%ADD13C,0.150000*%
%ADD14C,0.254000*%
G04 APERTURE END LIST*
D10*
%TO.C,Output +5V*%
X116810000Y-94740000D02*
X116810000Y-93440000D01*
X118110000Y-94740000D02*
X116810000Y-94740000D01*
X124460000Y-82490000D02*
X124460000Y-92390000D01*
X117760000Y-92390000D02*
X117760000Y-82490000D01*
X123710000Y-94440000D02*
X118510000Y-94440000D01*
X118510000Y-80440000D02*
X123710000Y-80440000D01*
%TO.C,Fully Charged*%
X81508870Y-67500163D02*
G75*
G02*
X83590961Y-67500000I1041130J-1079837D01*
G01*
X81508870Y-69659837D02*
G75*
G03*
X83590961Y-69660000I1041130J1079837D01*
G01*
X80877665Y-67501392D02*
G75*
G02*
X84110000Y-67344484I1672335J-1078608D01*
G01*
X80877665Y-69658608D02*
G75*
G03*
X84110000Y-69815516I1672335J1078608D01*
G01*
X84110000Y-69816000D02*
X84110000Y-69660000D01*
X84110000Y-67500000D02*
X84110000Y-67344000D01*
%TO.C,Charge Battery*%
X83850000Y-61470000D02*
X82550000Y-61470000D01*
X83850000Y-60170000D02*
X83850000Y-61470000D01*
X71600000Y-53820000D02*
X81500000Y-53820000D01*
X81500000Y-60520000D02*
X71600000Y-60520000D01*
X83550000Y-54570000D02*
X83550000Y-59770000D01*
X69550000Y-59770000D02*
X69550000Y-54570000D01*
D11*
%TO.C,U4*%
X101685000Y-85770000D02*
G75*
G03*
X101685000Y-85770000I-100000J0D01*
G01*
D12*
X101865000Y-87790000D02*
X101865000Y-90790000D01*
X98795000Y-87790000D02*
X98795000Y-90790000D01*
D11*
%TO.C,U3*%
X88570000Y-59510000D02*
X91770000Y-59510000D01*
X91770000Y-59510000D02*
X91770000Y-64410000D01*
X91770000Y-64410000D02*
X88570000Y-64410000D01*
X88570000Y-64410000D02*
X88570000Y-59510000D01*
X86695000Y-59285000D02*
X88220000Y-59285000D01*
%TO.C,U2*%
X113230000Y-74915000D02*
G75*
G03*
X113230000Y-74915000I-100000J0D01*
G01*
D12*
X111110000Y-75195000D02*
X108110000Y-75195000D01*
X111110000Y-72125000D02*
X108110000Y-72125000D01*
D10*
%TO.C,U1*%
X123661110Y-59286000D02*
G75*
G03*
X123661110Y-59286000I-257155J0D01*
G01*
%TO.C,TP1*%
X100400000Y-94050000D02*
X102800000Y-94050000D01*
X102800000Y-94050000D02*
X102800000Y-96450000D01*
X102800000Y-96450000D02*
X100400000Y-96450000D01*
X100400000Y-96450000D02*
X100400000Y-94050000D01*
%TO.C,R10*%
X107365436Y-90705000D02*
X107819564Y-90705000D01*
X107365436Y-92175000D02*
X107819564Y-92175000D01*
%TO.C,R9*%
X98325000Y-62457064D02*
X98325000Y-62002936D01*
X99795000Y-62457064D02*
X99795000Y-62002936D01*
%TO.C,R8*%
X98325000Y-69719564D02*
X98325000Y-69265436D01*
X99795000Y-69719564D02*
X99795000Y-69265436D01*
%TO.C,R7*%
X92840436Y-66575000D02*
X93294564Y-66575000D01*
X92840436Y-68045000D02*
X93294564Y-68045000D01*
%TO.C,R6*%
X111225000Y-79782936D02*
X111225000Y-80237064D01*
X109755000Y-79782936D02*
X109755000Y-80237064D01*
%TO.C,R5*%
X107215000Y-83134564D02*
X107215000Y-82680436D01*
X108685000Y-83134564D02*
X108685000Y-82680436D01*
%TO.C,R4*%
X115035000Y-79782936D02*
X115035000Y-80237064D01*
X113565000Y-79782936D02*
X113565000Y-80237064D01*
%TO.C,R3*%
X88165000Y-71347064D02*
X88165000Y-70892936D01*
X89635000Y-71347064D02*
X89635000Y-70892936D01*
%TO.C,R2*%
X71020000Y-67814564D02*
X71020000Y-67360436D01*
X72490000Y-67814564D02*
X72490000Y-67360436D01*
%TO.C,R1*%
X111987064Y-66775000D02*
X111532936Y-66775000D01*
X111987064Y-65305000D02*
X111532936Y-65305000D01*
%TO.C,Q1*%
X88140000Y-54300000D02*
X88140000Y-55230000D01*
X88140000Y-57460000D02*
X88140000Y-56530000D01*
X88140000Y-57460000D02*
X90300000Y-57460000D01*
X88140000Y-54300000D02*
X89600000Y-54300000D01*
%TO.C,L2*%
X104050000Y-56482064D02*
X104050000Y-55277936D01*
X106770000Y-56482064D02*
X106770000Y-55277936D01*
%TO.C,L1*%
X95160000Y-80482064D02*
X95160000Y-79277936D01*
X97880000Y-80482064D02*
X97880000Y-79277936D01*
%TO.C,5V Output*%
X79700000Y-85900000D02*
X82700000Y-85900000D01*
X82700000Y-85900000D02*
X82700000Y-88900000D01*
X82320000Y-86280000D02*
X82320000Y-96520000D01*
X82320000Y-96520000D02*
X69580000Y-96520000D01*
X69580000Y-86280000D02*
X69580000Y-96520000D01*
X82320000Y-86280000D02*
X69580000Y-86280000D01*
X82320000Y-86280000D02*
X82320000Y-96520000D01*
X82320000Y-96520000D02*
X69580000Y-96520000D01*
X69580000Y-86280000D02*
X69580000Y-96520000D01*
X82320000Y-86280000D02*
X69580000Y-86280000D01*
%TO.C,Solar Panel*%
X79700000Y-73280000D02*
X82700000Y-73280000D01*
X82700000Y-73280000D02*
X82700000Y-76280000D01*
X82320000Y-73660000D02*
X82320000Y-83900000D01*
X82320000Y-83900000D02*
X69580000Y-83900000D01*
X69580000Y-73660000D02*
X69580000Y-83900000D01*
X82320000Y-73660000D02*
X69580000Y-73660000D01*
X82320000Y-73660000D02*
X82320000Y-83900000D01*
X82320000Y-83900000D02*
X69580000Y-83900000D01*
X69580000Y-73660000D02*
X69580000Y-83900000D01*
X82320000Y-73660000D02*
X69580000Y-73660000D01*
%TO.C,Battery*%
X118166000Y-72850000D02*
X115166000Y-72850000D01*
X115166000Y-72850000D02*
X115166000Y-69850000D01*
X115546000Y-72470000D02*
X115546000Y-62230000D01*
X115546000Y-62230000D02*
X128286000Y-62230000D01*
X128286000Y-72470000D02*
X128286000Y-62230000D01*
X115546000Y-72470000D02*
X128286000Y-72470000D01*
X115546000Y-72470000D02*
X115546000Y-62230000D01*
X115546000Y-62230000D02*
X128286000Y-62230000D01*
X128286000Y-72470000D02*
X128286000Y-62230000D01*
X115546000Y-72470000D02*
X128286000Y-72470000D01*
%TO.C,D6*%
X89860000Y-96250000D02*
X89860000Y-93565000D01*
X89860000Y-93565000D02*
X87940000Y-93565000D01*
X87940000Y-93565000D02*
X87940000Y-96250000D01*
%TO.C,D5*%
X98100000Y-54880000D02*
X98100000Y-57565000D01*
X98100000Y-57565000D02*
X100020000Y-57565000D01*
X100020000Y-57565000D02*
X100020000Y-54880000D01*
%TO.C,D4*%
X92647500Y-56840000D02*
X95332500Y-56840000D01*
X95332500Y-56840000D02*
X95332500Y-54920000D01*
X95332500Y-54920000D02*
X92647500Y-54920000D01*
%TO.C,D3*%
X89900000Y-77780000D02*
X87215000Y-77780000D01*
X87215000Y-77780000D02*
X87215000Y-79700000D01*
X87215000Y-79700000D02*
X89900000Y-79700000D01*
%TO.C,Charging*%
X75158870Y-67500163D02*
G75*
G02*
X77240961Y-67500000I1041130J-1079837D01*
G01*
X75158870Y-69659837D02*
G75*
G03*
X77240961Y-69660000I1041130J1079837D01*
G01*
X74527665Y-67501392D02*
G75*
G02*
X77760000Y-67344484I1672335J-1078608D01*
G01*
X74527665Y-69658608D02*
G75*
G03*
X77760000Y-69815516I1672335J1078608D01*
G01*
X77760000Y-69816000D02*
X77760000Y-69660000D01*
X77760000Y-67500000D02*
X77760000Y-67344000D01*
%TO.C,C12*%
X91701252Y-82015000D02*
X91178748Y-82015000D01*
X91701252Y-80545000D02*
X91178748Y-80545000D01*
%TO.C,C11*%
X101018748Y-78005000D02*
X101541252Y-78005000D01*
X101018748Y-79475000D02*
X101541252Y-79475000D01*
%TO.C,C10*%
X106145000Y-67048748D02*
X106145000Y-67571252D01*
X104675000Y-67048748D02*
X104675000Y-67571252D01*
%TO.C,C9*%
X95985000Y-94988748D02*
X95985000Y-95511252D01*
X94515000Y-94988748D02*
X94515000Y-95511252D01*
%TO.C,C8*%
X106145000Y-61968748D02*
X106145000Y-62491252D01*
X104675000Y-61968748D02*
X104675000Y-62491252D01*
%TO.C,C7*%
X100865000Y-82811252D02*
X100865000Y-82288748D01*
X102335000Y-82811252D02*
X102335000Y-82288748D01*
%TO.C,C6*%
X86621252Y-87095000D02*
X86098748Y-87095000D01*
X86621252Y-85625000D02*
X86098748Y-85625000D01*
%TO.C,C5*%
X91975000Y-86941252D02*
X91975000Y-86418748D01*
X93445000Y-86941252D02*
X93445000Y-86418748D01*
%TO.C,C4*%
X113291252Y-85825000D02*
X112768748Y-85825000D01*
X113291252Y-84355000D02*
X112768748Y-84355000D01*
%TO.C,C3*%
X106418748Y-78005000D02*
X106941252Y-78005000D01*
X106418748Y-79475000D02*
X106941252Y-79475000D01*
%TO.C,C2*%
X93245000Y-72651252D02*
X93245000Y-72128748D01*
X94715000Y-72651252D02*
X94715000Y-72128748D01*
%TO.C,C1*%
X111498748Y-61495000D02*
X112021252Y-61495000D01*
X111498748Y-62965000D02*
X112021252Y-62965000D01*
%TO.C,Output +5V*%
D13*
X115403380Y-91368571D02*
X115403380Y-91178095D01*
X115451000Y-91082857D01*
X115546238Y-90987619D01*
X115736714Y-90940000D01*
X116070047Y-90940000D01*
X116260523Y-90987619D01*
X116355761Y-91082857D01*
X116403380Y-91178095D01*
X116403380Y-91368571D01*
X116355761Y-91463809D01*
X116260523Y-91559047D01*
X116070047Y-91606666D01*
X115736714Y-91606666D01*
X115546238Y-91559047D01*
X115451000Y-91463809D01*
X115403380Y-91368571D01*
X115736714Y-90082857D02*
X116403380Y-90082857D01*
X115736714Y-90511428D02*
X116260523Y-90511428D01*
X116355761Y-90463809D01*
X116403380Y-90368571D01*
X116403380Y-90225714D01*
X116355761Y-90130476D01*
X116308142Y-90082857D01*
X115736714Y-89749523D02*
X115736714Y-89368571D01*
X115403380Y-89606666D02*
X116260523Y-89606666D01*
X116355761Y-89559047D01*
X116403380Y-89463809D01*
X116403380Y-89368571D01*
X115736714Y-89035238D02*
X116736714Y-89035238D01*
X115784333Y-89035238D02*
X115736714Y-88940000D01*
X115736714Y-88749523D01*
X115784333Y-88654285D01*
X115831952Y-88606666D01*
X115927190Y-88559047D01*
X116212904Y-88559047D01*
X116308142Y-88606666D01*
X116355761Y-88654285D01*
X116403380Y-88749523D01*
X116403380Y-88940000D01*
X116355761Y-89035238D01*
X115736714Y-87701904D02*
X116403380Y-87701904D01*
X115736714Y-88130476D02*
X116260523Y-88130476D01*
X116355761Y-88082857D01*
X116403380Y-87987619D01*
X116403380Y-87844761D01*
X116355761Y-87749523D01*
X116308142Y-87701904D01*
X115736714Y-87368571D02*
X115736714Y-86987619D01*
X115403380Y-87225714D02*
X116260523Y-87225714D01*
X116355761Y-87178095D01*
X116403380Y-87082857D01*
X116403380Y-86987619D01*
X116022428Y-85892380D02*
X116022428Y-85130476D01*
X116403380Y-85511428D02*
X115641476Y-85511428D01*
X115403380Y-84178095D02*
X115403380Y-84654285D01*
X115879571Y-84701904D01*
X115831952Y-84654285D01*
X115784333Y-84559047D01*
X115784333Y-84320952D01*
X115831952Y-84225714D01*
X115879571Y-84178095D01*
X115974809Y-84130476D01*
X116212904Y-84130476D01*
X116308142Y-84178095D01*
X116355761Y-84225714D01*
X116403380Y-84320952D01*
X116403380Y-84559047D01*
X116355761Y-84654285D01*
X116308142Y-84701904D01*
X115403380Y-83844761D02*
X116403380Y-83511428D01*
X115403380Y-83178095D01*
%TO.C,Fully Charged*%
X79050142Y-65333571D02*
X78716809Y-65333571D01*
X78716809Y-65857380D02*
X78716809Y-64857380D01*
X79193000Y-64857380D01*
X80002523Y-65190714D02*
X80002523Y-65857380D01*
X79573952Y-65190714D02*
X79573952Y-65714523D01*
X79621571Y-65809761D01*
X79716809Y-65857380D01*
X79859666Y-65857380D01*
X79954904Y-65809761D01*
X80002523Y-65762142D01*
X80621571Y-65857380D02*
X80526333Y-65809761D01*
X80478714Y-65714523D01*
X80478714Y-64857380D01*
X81145380Y-65857380D02*
X81050142Y-65809761D01*
X81002523Y-65714523D01*
X81002523Y-64857380D01*
X81431095Y-65190714D02*
X81669190Y-65857380D01*
X81907285Y-65190714D02*
X81669190Y-65857380D01*
X81573952Y-66095476D01*
X81526333Y-66143095D01*
X81431095Y-66190714D01*
X83621571Y-65762142D02*
X83573952Y-65809761D01*
X83431095Y-65857380D01*
X83335857Y-65857380D01*
X83193000Y-65809761D01*
X83097761Y-65714523D01*
X83050142Y-65619285D01*
X83002523Y-65428809D01*
X83002523Y-65285952D01*
X83050142Y-65095476D01*
X83097761Y-65000238D01*
X83193000Y-64905000D01*
X83335857Y-64857380D01*
X83431095Y-64857380D01*
X83573952Y-64905000D01*
X83621571Y-64952619D01*
X84050142Y-65857380D02*
X84050142Y-64857380D01*
X84478714Y-65857380D02*
X84478714Y-65333571D01*
X84431095Y-65238333D01*
X84335857Y-65190714D01*
X84193000Y-65190714D01*
X84097761Y-65238333D01*
X84050142Y-65285952D01*
X85383476Y-65857380D02*
X85383476Y-65333571D01*
X85335857Y-65238333D01*
X85240619Y-65190714D01*
X85050142Y-65190714D01*
X84954904Y-65238333D01*
X85383476Y-65809761D02*
X85288238Y-65857380D01*
X85050142Y-65857380D01*
X84954904Y-65809761D01*
X84907285Y-65714523D01*
X84907285Y-65619285D01*
X84954904Y-65524047D01*
X85050142Y-65476428D01*
X85288238Y-65476428D01*
X85383476Y-65428809D01*
X85859666Y-65857380D02*
X85859666Y-65190714D01*
X85859666Y-65381190D02*
X85907285Y-65285952D01*
X85954904Y-65238333D01*
X86050142Y-65190714D01*
X86145380Y-65190714D01*
X86907285Y-65190714D02*
X86907285Y-66000238D01*
X86859666Y-66095476D01*
X86812047Y-66143095D01*
X86716809Y-66190714D01*
X86573952Y-66190714D01*
X86478714Y-66143095D01*
X86907285Y-65809761D02*
X86812047Y-65857380D01*
X86621571Y-65857380D01*
X86526333Y-65809761D01*
X86478714Y-65762142D01*
X86431095Y-65666904D01*
X86431095Y-65381190D01*
X86478714Y-65285952D01*
X86526333Y-65238333D01*
X86621571Y-65190714D01*
X86812047Y-65190714D01*
X86907285Y-65238333D01*
X87764428Y-65809761D02*
X87669190Y-65857380D01*
X87478714Y-65857380D01*
X87383476Y-65809761D01*
X87335857Y-65714523D01*
X87335857Y-65333571D01*
X87383476Y-65238333D01*
X87478714Y-65190714D01*
X87669190Y-65190714D01*
X87764428Y-65238333D01*
X87812047Y-65333571D01*
X87812047Y-65428809D01*
X87335857Y-65524047D01*
X88669190Y-65857380D02*
X88669190Y-64857380D01*
X88669190Y-65809761D02*
X88573952Y-65857380D01*
X88383476Y-65857380D01*
X88288238Y-65809761D01*
X88240619Y-65762142D01*
X88193000Y-65666904D01*
X88193000Y-65381190D01*
X88240619Y-65285952D01*
X88288238Y-65238333D01*
X88383476Y-65190714D01*
X88573952Y-65190714D01*
X88669190Y-65238333D01*
%TO.C,Charge Battery*%
X71644476Y-63095142D02*
X71596857Y-63142761D01*
X71454000Y-63190380D01*
X71358761Y-63190380D01*
X71215904Y-63142761D01*
X71120666Y-63047523D01*
X71073047Y-62952285D01*
X71025428Y-62761809D01*
X71025428Y-62618952D01*
X71073047Y-62428476D01*
X71120666Y-62333238D01*
X71215904Y-62238000D01*
X71358761Y-62190380D01*
X71454000Y-62190380D01*
X71596857Y-62238000D01*
X71644476Y-62285619D01*
X72073047Y-63190380D02*
X72073047Y-62190380D01*
X72501619Y-63190380D02*
X72501619Y-62666571D01*
X72454000Y-62571333D01*
X72358761Y-62523714D01*
X72215904Y-62523714D01*
X72120666Y-62571333D01*
X72073047Y-62618952D01*
X73406380Y-63190380D02*
X73406380Y-62666571D01*
X73358761Y-62571333D01*
X73263523Y-62523714D01*
X73073047Y-62523714D01*
X72977809Y-62571333D01*
X73406380Y-63142761D02*
X73311142Y-63190380D01*
X73073047Y-63190380D01*
X72977809Y-63142761D01*
X72930190Y-63047523D01*
X72930190Y-62952285D01*
X72977809Y-62857047D01*
X73073047Y-62809428D01*
X73311142Y-62809428D01*
X73406380Y-62761809D01*
X73882571Y-63190380D02*
X73882571Y-62523714D01*
X73882571Y-62714190D02*
X73930190Y-62618952D01*
X73977809Y-62571333D01*
X74073047Y-62523714D01*
X74168285Y-62523714D01*
X74930190Y-62523714D02*
X74930190Y-63333238D01*
X74882571Y-63428476D01*
X74834952Y-63476095D01*
X74739714Y-63523714D01*
X74596857Y-63523714D01*
X74501619Y-63476095D01*
X74930190Y-63142761D02*
X74834952Y-63190380D01*
X74644476Y-63190380D01*
X74549238Y-63142761D01*
X74501619Y-63095142D01*
X74454000Y-62999904D01*
X74454000Y-62714190D01*
X74501619Y-62618952D01*
X74549238Y-62571333D01*
X74644476Y-62523714D01*
X74834952Y-62523714D01*
X74930190Y-62571333D01*
X75787333Y-63142761D02*
X75692095Y-63190380D01*
X75501619Y-63190380D01*
X75406380Y-63142761D01*
X75358761Y-63047523D01*
X75358761Y-62666571D01*
X75406380Y-62571333D01*
X75501619Y-62523714D01*
X75692095Y-62523714D01*
X75787333Y-62571333D01*
X75834952Y-62666571D01*
X75834952Y-62761809D01*
X75358761Y-62857047D01*
X77358761Y-62666571D02*
X77501619Y-62714190D01*
X77549238Y-62761809D01*
X77596857Y-62857047D01*
X77596857Y-62999904D01*
X77549238Y-63095142D01*
X77501619Y-63142761D01*
X77406380Y-63190380D01*
X77025428Y-63190380D01*
X77025428Y-62190380D01*
X77358761Y-62190380D01*
X77454000Y-62238000D01*
X77501619Y-62285619D01*
X77549238Y-62380857D01*
X77549238Y-62476095D01*
X77501619Y-62571333D01*
X77454000Y-62618952D01*
X77358761Y-62666571D01*
X77025428Y-62666571D01*
X78454000Y-63190380D02*
X78454000Y-62666571D01*
X78406380Y-62571333D01*
X78311142Y-62523714D01*
X78120666Y-62523714D01*
X78025428Y-62571333D01*
X78454000Y-63142761D02*
X78358761Y-63190380D01*
X78120666Y-63190380D01*
X78025428Y-63142761D01*
X77977809Y-63047523D01*
X77977809Y-62952285D01*
X78025428Y-62857047D01*
X78120666Y-62809428D01*
X78358761Y-62809428D01*
X78454000Y-62761809D01*
X78787333Y-62523714D02*
X79168285Y-62523714D01*
X78930190Y-62190380D02*
X78930190Y-63047523D01*
X78977809Y-63142761D01*
X79073047Y-63190380D01*
X79168285Y-63190380D01*
X79358761Y-62523714D02*
X79739714Y-62523714D01*
X79501619Y-62190380D02*
X79501619Y-63047523D01*
X79549238Y-63142761D01*
X79644476Y-63190380D01*
X79739714Y-63190380D01*
X80454000Y-63142761D02*
X80358761Y-63190380D01*
X80168285Y-63190380D01*
X80073047Y-63142761D01*
X80025428Y-63047523D01*
X80025428Y-62666571D01*
X80073047Y-62571333D01*
X80168285Y-62523714D01*
X80358761Y-62523714D01*
X80454000Y-62571333D01*
X80501619Y-62666571D01*
X80501619Y-62761809D01*
X80025428Y-62857047D01*
X80930190Y-63190380D02*
X80930190Y-62523714D01*
X80930190Y-62714190D02*
X80977809Y-62618952D01*
X81025428Y-62571333D01*
X81120666Y-62523714D01*
X81215904Y-62523714D01*
X81454000Y-62523714D02*
X81692095Y-63190380D01*
X81930190Y-62523714D02*
X81692095Y-63190380D01*
X81596857Y-63428476D01*
X81549238Y-63476095D01*
X81454000Y-63523714D01*
%TO.C,U4*%
X102317380Y-90226904D02*
X103126904Y-90226904D01*
X103222142Y-90179285D01*
X103269761Y-90131666D01*
X103317380Y-90036428D01*
X103317380Y-89845952D01*
X103269761Y-89750714D01*
X103222142Y-89703095D01*
X103126904Y-89655476D01*
X102317380Y-89655476D01*
X102650714Y-88750714D02*
X103317380Y-88750714D01*
X102269761Y-88988809D02*
X102984047Y-89226904D01*
X102984047Y-88607857D01*
%TO.C,U3*%
D14*
X89202380Y-61264523D02*
X89202380Y-62292619D01*
X89262857Y-62413571D01*
X89323333Y-62474047D01*
X89444285Y-62534523D01*
X89686190Y-62534523D01*
X89807142Y-62474047D01*
X89867619Y-62413571D01*
X89928095Y-62292619D01*
X89928095Y-61264523D01*
X90411904Y-61264523D02*
X91198095Y-61264523D01*
X90774761Y-61748333D01*
X90956190Y-61748333D01*
X91077142Y-61808809D01*
X91137619Y-61869285D01*
X91198095Y-61990238D01*
X91198095Y-62292619D01*
X91137619Y-62413571D01*
X91077142Y-62474047D01*
X90956190Y-62534523D01*
X90593333Y-62534523D01*
X90472380Y-62474047D01*
X90411904Y-62413571D01*
%TO.C,U2*%
D13*
X108673095Y-75647380D02*
X108673095Y-76456904D01*
X108720714Y-76552142D01*
X108768333Y-76599761D01*
X108863571Y-76647380D01*
X109054047Y-76647380D01*
X109149285Y-76599761D01*
X109196904Y-76552142D01*
X109244523Y-76456904D01*
X109244523Y-75647380D01*
X109673095Y-75742619D02*
X109720714Y-75695000D01*
X109815952Y-75647380D01*
X110054047Y-75647380D01*
X110149285Y-75695000D01*
X110196904Y-75742619D01*
X110244523Y-75837857D01*
X110244523Y-75933095D01*
X110196904Y-76075952D01*
X109625476Y-76647380D01*
X110244523Y-76647380D01*
%TO.C,U1*%
X113912380Y-59666904D02*
X114721904Y-59666904D01*
X114817142Y-59619285D01*
X114864761Y-59571666D01*
X114912380Y-59476428D01*
X114912380Y-59285952D01*
X114864761Y-59190714D01*
X114817142Y-59143095D01*
X114721904Y-59095476D01*
X113912380Y-59095476D01*
X114912380Y-58095476D02*
X114912380Y-58666904D01*
X114912380Y-58381190D02*
X113912380Y-58381190D01*
X114055238Y-58476428D01*
X114150476Y-58571666D01*
X114198095Y-58666904D01*
%TO.C,TP1*%
X103386095Y-94956380D02*
X103957523Y-94956380D01*
X103671809Y-95956380D02*
X103671809Y-94956380D01*
X104290857Y-95956380D02*
X104290857Y-94956380D01*
X104671809Y-94956380D01*
X104767047Y-95004000D01*
X104814666Y-95051619D01*
X104862285Y-95146857D01*
X104862285Y-95289714D01*
X104814666Y-95384952D01*
X104767047Y-95432571D01*
X104671809Y-95480190D01*
X104290857Y-95480190D01*
X105814666Y-95956380D02*
X105243238Y-95956380D01*
X105528952Y-95956380D02*
X105528952Y-94956380D01*
X105433714Y-95099238D01*
X105338476Y-95194476D01*
X105243238Y-95242095D01*
%TO.C,R10*%
X106949642Y-90242380D02*
X106616309Y-89766190D01*
X106378214Y-90242380D02*
X106378214Y-89242380D01*
X106759166Y-89242380D01*
X106854404Y-89290000D01*
X106902023Y-89337619D01*
X106949642Y-89432857D01*
X106949642Y-89575714D01*
X106902023Y-89670952D01*
X106854404Y-89718571D01*
X106759166Y-89766190D01*
X106378214Y-89766190D01*
X107902023Y-90242380D02*
X107330595Y-90242380D01*
X107616309Y-90242380D02*
X107616309Y-89242380D01*
X107521071Y-89385238D01*
X107425833Y-89480476D01*
X107330595Y-89528095D01*
X108521071Y-89242380D02*
X108616309Y-89242380D01*
X108711547Y-89290000D01*
X108759166Y-89337619D01*
X108806785Y-89432857D01*
X108854404Y-89623333D01*
X108854404Y-89861428D01*
X108806785Y-90051904D01*
X108759166Y-90147142D01*
X108711547Y-90194761D01*
X108616309Y-90242380D01*
X108521071Y-90242380D01*
X108425833Y-90194761D01*
X108378214Y-90147142D01*
X108330595Y-90051904D01*
X108282976Y-89861428D01*
X108282976Y-89623333D01*
X108330595Y-89432857D01*
X108378214Y-89337619D01*
X108425833Y-89290000D01*
X108521071Y-89242380D01*
%TO.C,R9*%
X97862380Y-62396666D02*
X97386190Y-62730000D01*
X97862380Y-62968095D02*
X96862380Y-62968095D01*
X96862380Y-62587142D01*
X96910000Y-62491904D01*
X96957619Y-62444285D01*
X97052857Y-62396666D01*
X97195714Y-62396666D01*
X97290952Y-62444285D01*
X97338571Y-62491904D01*
X97386190Y-62587142D01*
X97386190Y-62968095D01*
X97862380Y-61920476D02*
X97862380Y-61730000D01*
X97814761Y-61634761D01*
X97767142Y-61587142D01*
X97624285Y-61491904D01*
X97433809Y-61444285D01*
X97052857Y-61444285D01*
X96957619Y-61491904D01*
X96910000Y-61539523D01*
X96862380Y-61634761D01*
X96862380Y-61825238D01*
X96910000Y-61920476D01*
X96957619Y-61968095D01*
X97052857Y-62015714D01*
X97290952Y-62015714D01*
X97386190Y-61968095D01*
X97433809Y-61920476D01*
X97481428Y-61825238D01*
X97481428Y-61634761D01*
X97433809Y-61539523D01*
X97386190Y-61491904D01*
X97290952Y-61444285D01*
%TO.C,R8*%
X97862380Y-69659166D02*
X97386190Y-69992500D01*
X97862380Y-70230595D02*
X96862380Y-70230595D01*
X96862380Y-69849642D01*
X96910000Y-69754404D01*
X96957619Y-69706785D01*
X97052857Y-69659166D01*
X97195714Y-69659166D01*
X97290952Y-69706785D01*
X97338571Y-69754404D01*
X97386190Y-69849642D01*
X97386190Y-70230595D01*
X97290952Y-69087738D02*
X97243333Y-69182976D01*
X97195714Y-69230595D01*
X97100476Y-69278214D01*
X97052857Y-69278214D01*
X96957619Y-69230595D01*
X96910000Y-69182976D01*
X96862380Y-69087738D01*
X96862380Y-68897261D01*
X96910000Y-68802023D01*
X96957619Y-68754404D01*
X97052857Y-68706785D01*
X97100476Y-68706785D01*
X97195714Y-68754404D01*
X97243333Y-68802023D01*
X97290952Y-68897261D01*
X97290952Y-69087738D01*
X97338571Y-69182976D01*
X97386190Y-69230595D01*
X97481428Y-69278214D01*
X97671904Y-69278214D01*
X97767142Y-69230595D01*
X97814761Y-69182976D01*
X97862380Y-69087738D01*
X97862380Y-68897261D01*
X97814761Y-68802023D01*
X97767142Y-68754404D01*
X97671904Y-68706785D01*
X97481428Y-68706785D01*
X97386190Y-68754404D01*
X97338571Y-68802023D01*
X97290952Y-68897261D01*
%TO.C,R7*%
X92900833Y-66112380D02*
X92567500Y-65636190D01*
X92329404Y-66112380D02*
X92329404Y-65112380D01*
X92710357Y-65112380D01*
X92805595Y-65160000D01*
X92853214Y-65207619D01*
X92900833Y-65302857D01*
X92900833Y-65445714D01*
X92853214Y-65540952D01*
X92805595Y-65588571D01*
X92710357Y-65636190D01*
X92329404Y-65636190D01*
X93234166Y-65112380D02*
X93900833Y-65112380D01*
X93472261Y-66112380D01*
%TO.C,R6*%
X112592380Y-80176666D02*
X112116190Y-80510000D01*
X112592380Y-80748095D02*
X111592380Y-80748095D01*
X111592380Y-80367142D01*
X111640000Y-80271904D01*
X111687619Y-80224285D01*
X111782857Y-80176666D01*
X111925714Y-80176666D01*
X112020952Y-80224285D01*
X112068571Y-80271904D01*
X112116190Y-80367142D01*
X112116190Y-80748095D01*
X111592380Y-79319523D02*
X111592380Y-79510000D01*
X111640000Y-79605238D01*
X111687619Y-79652857D01*
X111830476Y-79748095D01*
X112020952Y-79795714D01*
X112401904Y-79795714D01*
X112497142Y-79748095D01*
X112544761Y-79700476D01*
X112592380Y-79605238D01*
X112592380Y-79414761D01*
X112544761Y-79319523D01*
X112497142Y-79271904D01*
X112401904Y-79224285D01*
X112163809Y-79224285D01*
X112068571Y-79271904D01*
X112020952Y-79319523D01*
X111973333Y-79414761D01*
X111973333Y-79605238D01*
X112020952Y-79700476D01*
X112068571Y-79748095D01*
X112163809Y-79795714D01*
%TO.C,R5*%
X106752380Y-83074166D02*
X106276190Y-83407500D01*
X106752380Y-83645595D02*
X105752380Y-83645595D01*
X105752380Y-83264642D01*
X105800000Y-83169404D01*
X105847619Y-83121785D01*
X105942857Y-83074166D01*
X106085714Y-83074166D01*
X106180952Y-83121785D01*
X106228571Y-83169404D01*
X106276190Y-83264642D01*
X106276190Y-83645595D01*
X105752380Y-82169404D02*
X105752380Y-82645595D01*
X106228571Y-82693214D01*
X106180952Y-82645595D01*
X106133333Y-82550357D01*
X106133333Y-82312261D01*
X106180952Y-82217023D01*
X106228571Y-82169404D01*
X106323809Y-82121785D01*
X106561904Y-82121785D01*
X106657142Y-82169404D01*
X106704761Y-82217023D01*
X106752380Y-82312261D01*
X106752380Y-82550357D01*
X106704761Y-82645595D01*
X106657142Y-82693214D01*
%TO.C,R4*%
X116402380Y-80176666D02*
X115926190Y-80510000D01*
X116402380Y-80748095D02*
X115402380Y-80748095D01*
X115402380Y-80367142D01*
X115450000Y-80271904D01*
X115497619Y-80224285D01*
X115592857Y-80176666D01*
X115735714Y-80176666D01*
X115830952Y-80224285D01*
X115878571Y-80271904D01*
X115926190Y-80367142D01*
X115926190Y-80748095D01*
X115735714Y-79319523D02*
X116402380Y-79319523D01*
X115354761Y-79557619D02*
X116069047Y-79795714D01*
X116069047Y-79176666D01*
%TO.C,R3*%
X87702380Y-71286666D02*
X87226190Y-71620000D01*
X87702380Y-71858095D02*
X86702380Y-71858095D01*
X86702380Y-71477142D01*
X86750000Y-71381904D01*
X86797619Y-71334285D01*
X86892857Y-71286666D01*
X87035714Y-71286666D01*
X87130952Y-71334285D01*
X87178571Y-71381904D01*
X87226190Y-71477142D01*
X87226190Y-71858095D01*
X86702380Y-70953333D02*
X86702380Y-70334285D01*
X87083333Y-70667619D01*
X87083333Y-70524761D01*
X87130952Y-70429523D01*
X87178571Y-70381904D01*
X87273809Y-70334285D01*
X87511904Y-70334285D01*
X87607142Y-70381904D01*
X87654761Y-70429523D01*
X87702380Y-70524761D01*
X87702380Y-70810476D01*
X87654761Y-70905714D01*
X87607142Y-70953333D01*
%TO.C,R2*%
X70557380Y-67754166D02*
X70081190Y-68087500D01*
X70557380Y-68325595D02*
X69557380Y-68325595D01*
X69557380Y-67944642D01*
X69605000Y-67849404D01*
X69652619Y-67801785D01*
X69747857Y-67754166D01*
X69890714Y-67754166D01*
X69985952Y-67801785D01*
X70033571Y-67849404D01*
X70081190Y-67944642D01*
X70081190Y-68325595D01*
X69652619Y-67373214D02*
X69605000Y-67325595D01*
X69557380Y-67230357D01*
X69557380Y-66992261D01*
X69605000Y-66897023D01*
X69652619Y-66849404D01*
X69747857Y-66801785D01*
X69843095Y-66801785D01*
X69985952Y-66849404D01*
X70557380Y-67420833D01*
X70557380Y-66801785D01*
%TO.C,R1*%
X111593333Y-68142380D02*
X111260000Y-67666190D01*
X111021904Y-68142380D02*
X111021904Y-67142380D01*
X111402857Y-67142380D01*
X111498095Y-67190000D01*
X111545714Y-67237619D01*
X111593333Y-67332857D01*
X111593333Y-67475714D01*
X111545714Y-67570952D01*
X111498095Y-67618571D01*
X111402857Y-67666190D01*
X111021904Y-67666190D01*
X112545714Y-68142380D02*
X111974285Y-68142380D01*
X112260000Y-68142380D02*
X112260000Y-67142380D01*
X112164761Y-67285238D01*
X112069523Y-67380476D01*
X111974285Y-67428095D01*
%TO.C,Q1*%
X88804761Y-58927619D02*
X88709523Y-58880000D01*
X88614285Y-58784761D01*
X88471428Y-58641904D01*
X88376190Y-58594285D01*
X88280952Y-58594285D01*
X88328571Y-58832380D02*
X88233333Y-58784761D01*
X88138095Y-58689523D01*
X88090476Y-58499047D01*
X88090476Y-58165714D01*
X88138095Y-57975238D01*
X88233333Y-57880000D01*
X88328571Y-57832380D01*
X88519047Y-57832380D01*
X88614285Y-57880000D01*
X88709523Y-57975238D01*
X88757142Y-58165714D01*
X88757142Y-58499047D01*
X88709523Y-58689523D01*
X88614285Y-58784761D01*
X88519047Y-58832380D01*
X88328571Y-58832380D01*
X89709523Y-58832380D02*
X89138095Y-58832380D01*
X89423809Y-58832380D02*
X89423809Y-57832380D01*
X89328571Y-57975238D01*
X89233333Y-58070476D01*
X89138095Y-58118095D01*
%TO.C,L2*%
X103582380Y-56046666D02*
X103582380Y-56522857D01*
X102582380Y-56522857D01*
X102677619Y-55760952D02*
X102630000Y-55713333D01*
X102582380Y-55618095D01*
X102582380Y-55380000D01*
X102630000Y-55284761D01*
X102677619Y-55237142D01*
X102772857Y-55189523D01*
X102868095Y-55189523D01*
X103010952Y-55237142D01*
X103582380Y-55808571D01*
X103582380Y-55189523D01*
%TO.C,L1*%
X94692380Y-80046666D02*
X94692380Y-80522857D01*
X93692380Y-80522857D01*
X94692380Y-79189523D02*
X94692380Y-79760952D01*
X94692380Y-79475238D02*
X93692380Y-79475238D01*
X93835238Y-79570476D01*
X93930476Y-79665714D01*
X93978095Y-79760952D01*
%TO.C,5V Output*%
X83272380Y-94971809D02*
X83272380Y-95448000D01*
X83748571Y-95495619D01*
X83700952Y-95448000D01*
X83653333Y-95352761D01*
X83653333Y-95114666D01*
X83700952Y-95019428D01*
X83748571Y-94971809D01*
X83843809Y-94924190D01*
X84081904Y-94924190D01*
X84177142Y-94971809D01*
X84224761Y-95019428D01*
X84272380Y-95114666D01*
X84272380Y-95352761D01*
X84224761Y-95448000D01*
X84177142Y-95495619D01*
X83272380Y-94638476D02*
X84272380Y-94305142D01*
X83272380Y-93971809D01*
X83272380Y-92686095D02*
X83272380Y-92495619D01*
X83320000Y-92400380D01*
X83415238Y-92305142D01*
X83605714Y-92257523D01*
X83939047Y-92257523D01*
X84129523Y-92305142D01*
X84224761Y-92400380D01*
X84272380Y-92495619D01*
X84272380Y-92686095D01*
X84224761Y-92781333D01*
X84129523Y-92876571D01*
X83939047Y-92924190D01*
X83605714Y-92924190D01*
X83415238Y-92876571D01*
X83320000Y-92781333D01*
X83272380Y-92686095D01*
X83605714Y-91400380D02*
X84272380Y-91400380D01*
X83605714Y-91828952D02*
X84129523Y-91828952D01*
X84224761Y-91781333D01*
X84272380Y-91686095D01*
X84272380Y-91543238D01*
X84224761Y-91448000D01*
X84177142Y-91400380D01*
X83605714Y-91067047D02*
X83605714Y-90686095D01*
X83272380Y-90924190D02*
X84129523Y-90924190D01*
X84224761Y-90876571D01*
X84272380Y-90781333D01*
X84272380Y-90686095D01*
X83605714Y-90352761D02*
X84605714Y-90352761D01*
X83653333Y-90352761D02*
X83605714Y-90257523D01*
X83605714Y-90067047D01*
X83653333Y-89971809D01*
X83700952Y-89924190D01*
X83796190Y-89876571D01*
X84081904Y-89876571D01*
X84177142Y-89924190D01*
X84224761Y-89971809D01*
X84272380Y-90067047D01*
X84272380Y-90257523D01*
X84224761Y-90352761D01*
X83605714Y-89019428D02*
X84272380Y-89019428D01*
X83605714Y-89448000D02*
X84129523Y-89448000D01*
X84224761Y-89400380D01*
X84272380Y-89305142D01*
X84272380Y-89162285D01*
X84224761Y-89067047D01*
X84177142Y-89019428D01*
X83605714Y-88686095D02*
X83605714Y-88305142D01*
X83272380Y-88543238D02*
X84129523Y-88543238D01*
X84224761Y-88495619D01*
X84272380Y-88400380D01*
X84272380Y-88305142D01*
%TO.C,Solar Panel*%
X84351761Y-83359095D02*
X84399380Y-83216238D01*
X84399380Y-82978142D01*
X84351761Y-82882904D01*
X84304142Y-82835285D01*
X84208904Y-82787666D01*
X84113666Y-82787666D01*
X84018428Y-82835285D01*
X83970809Y-82882904D01*
X83923190Y-82978142D01*
X83875571Y-83168619D01*
X83827952Y-83263857D01*
X83780333Y-83311476D01*
X83685095Y-83359095D01*
X83589857Y-83359095D01*
X83494619Y-83311476D01*
X83447000Y-83263857D01*
X83399380Y-83168619D01*
X83399380Y-82930523D01*
X83447000Y-82787666D01*
X84399380Y-82216238D02*
X84351761Y-82311476D01*
X84304142Y-82359095D01*
X84208904Y-82406714D01*
X83923190Y-82406714D01*
X83827952Y-82359095D01*
X83780333Y-82311476D01*
X83732714Y-82216238D01*
X83732714Y-82073380D01*
X83780333Y-81978142D01*
X83827952Y-81930523D01*
X83923190Y-81882904D01*
X84208904Y-81882904D01*
X84304142Y-81930523D01*
X84351761Y-81978142D01*
X84399380Y-82073380D01*
X84399380Y-82216238D01*
X84399380Y-81311476D02*
X84351761Y-81406714D01*
X84256523Y-81454333D01*
X83399380Y-81454333D01*
X84399380Y-80501952D02*
X83875571Y-80501952D01*
X83780333Y-80549571D01*
X83732714Y-80644809D01*
X83732714Y-80835285D01*
X83780333Y-80930523D01*
X84351761Y-80501952D02*
X84399380Y-80597190D01*
X84399380Y-80835285D01*
X84351761Y-80930523D01*
X84256523Y-80978142D01*
X84161285Y-80978142D01*
X84066047Y-80930523D01*
X84018428Y-80835285D01*
X84018428Y-80597190D01*
X83970809Y-80501952D01*
X84399380Y-80025761D02*
X83732714Y-80025761D01*
X83923190Y-80025761D02*
X83827952Y-79978142D01*
X83780333Y-79930523D01*
X83732714Y-79835285D01*
X83732714Y-79740047D01*
X84399380Y-78644809D02*
X83399380Y-78644809D01*
X83399380Y-78263857D01*
X83447000Y-78168619D01*
X83494619Y-78121000D01*
X83589857Y-78073380D01*
X83732714Y-78073380D01*
X83827952Y-78121000D01*
X83875571Y-78168619D01*
X83923190Y-78263857D01*
X83923190Y-78644809D01*
X84399380Y-77216238D02*
X83875571Y-77216238D01*
X83780333Y-77263857D01*
X83732714Y-77359095D01*
X83732714Y-77549571D01*
X83780333Y-77644809D01*
X84351761Y-77216238D02*
X84399380Y-77311476D01*
X84399380Y-77549571D01*
X84351761Y-77644809D01*
X84256523Y-77692428D01*
X84161285Y-77692428D01*
X84066047Y-77644809D01*
X84018428Y-77549571D01*
X84018428Y-77311476D01*
X83970809Y-77216238D01*
X83732714Y-76740047D02*
X84399380Y-76740047D01*
X83827952Y-76740047D02*
X83780333Y-76692428D01*
X83732714Y-76597190D01*
X83732714Y-76454333D01*
X83780333Y-76359095D01*
X83875571Y-76311476D01*
X84399380Y-76311476D01*
X84351761Y-75454333D02*
X84399380Y-75549571D01*
X84399380Y-75740047D01*
X84351761Y-75835285D01*
X84256523Y-75882904D01*
X83875571Y-75882904D01*
X83780333Y-75835285D01*
X83732714Y-75740047D01*
X83732714Y-75549571D01*
X83780333Y-75454333D01*
X83875571Y-75406714D01*
X83970809Y-75406714D01*
X84066047Y-75882904D01*
X84399380Y-74835285D02*
X84351761Y-74930523D01*
X84256523Y-74978142D01*
X83399380Y-74978142D01*
%TO.C,Battery*%
X114482571Y-69127428D02*
X114530190Y-68984571D01*
X114577809Y-68936952D01*
X114673047Y-68889333D01*
X114815904Y-68889333D01*
X114911142Y-68936952D01*
X114958761Y-68984571D01*
X115006380Y-69079809D01*
X115006380Y-69460761D01*
X114006380Y-69460761D01*
X114006380Y-69127428D01*
X114054000Y-69032190D01*
X114101619Y-68984571D01*
X114196857Y-68936952D01*
X114292095Y-68936952D01*
X114387333Y-68984571D01*
X114434952Y-69032190D01*
X114482571Y-69127428D01*
X114482571Y-69460761D01*
X115006380Y-68032190D02*
X114482571Y-68032190D01*
X114387333Y-68079809D01*
X114339714Y-68175047D01*
X114339714Y-68365523D01*
X114387333Y-68460761D01*
X114958761Y-68032190D02*
X115006380Y-68127428D01*
X115006380Y-68365523D01*
X114958761Y-68460761D01*
X114863523Y-68508380D01*
X114768285Y-68508380D01*
X114673047Y-68460761D01*
X114625428Y-68365523D01*
X114625428Y-68127428D01*
X114577809Y-68032190D01*
X114339714Y-67698857D02*
X114339714Y-67317904D01*
X114006380Y-67556000D02*
X114863523Y-67556000D01*
X114958761Y-67508380D01*
X115006380Y-67413142D01*
X115006380Y-67317904D01*
X114339714Y-67127428D02*
X114339714Y-66746476D01*
X114006380Y-66984571D02*
X114863523Y-66984571D01*
X114958761Y-66936952D01*
X115006380Y-66841714D01*
X115006380Y-66746476D01*
X114958761Y-66032190D02*
X115006380Y-66127428D01*
X115006380Y-66317904D01*
X114958761Y-66413142D01*
X114863523Y-66460761D01*
X114482571Y-66460761D01*
X114387333Y-66413142D01*
X114339714Y-66317904D01*
X114339714Y-66127428D01*
X114387333Y-66032190D01*
X114482571Y-65984571D01*
X114577809Y-65984571D01*
X114673047Y-66460761D01*
X115006380Y-65556000D02*
X114339714Y-65556000D01*
X114530190Y-65556000D02*
X114434952Y-65508380D01*
X114387333Y-65460761D01*
X114339714Y-65365523D01*
X114339714Y-65270285D01*
X114339714Y-65032190D02*
X115006380Y-64794095D01*
X114339714Y-64556000D02*
X115006380Y-64794095D01*
X115244476Y-64889333D01*
X115292095Y-64936952D01*
X115339714Y-65032190D01*
%TO.C,D6*%
X91002380Y-95988095D02*
X90002380Y-95988095D01*
X90002380Y-95750000D01*
X90050000Y-95607142D01*
X90145238Y-95511904D01*
X90240476Y-95464285D01*
X90430952Y-95416666D01*
X90573809Y-95416666D01*
X90764285Y-95464285D01*
X90859523Y-95511904D01*
X90954761Y-95607142D01*
X91002380Y-95750000D01*
X91002380Y-95988095D01*
X90002380Y-94559523D02*
X90002380Y-94750000D01*
X90050000Y-94845238D01*
X90097619Y-94892857D01*
X90240476Y-94988095D01*
X90430952Y-95035714D01*
X90811904Y-95035714D01*
X90907142Y-94988095D01*
X90954761Y-94940476D01*
X91002380Y-94845238D01*
X91002380Y-94654761D01*
X90954761Y-94559523D01*
X90907142Y-94511904D01*
X90811904Y-94464285D01*
X90573809Y-94464285D01*
X90478571Y-94511904D01*
X90430952Y-94559523D01*
X90383333Y-94654761D01*
X90383333Y-94845238D01*
X90430952Y-94940476D01*
X90478571Y-94988095D01*
X90573809Y-95035714D01*
%TO.C,D5*%
X97862380Y-56618095D02*
X96862380Y-56618095D01*
X96862380Y-56380000D01*
X96910000Y-56237142D01*
X97005238Y-56141904D01*
X97100476Y-56094285D01*
X97290952Y-56046666D01*
X97433809Y-56046666D01*
X97624285Y-56094285D01*
X97719523Y-56141904D01*
X97814761Y-56237142D01*
X97862380Y-56380000D01*
X97862380Y-56618095D01*
X96862380Y-55141904D02*
X96862380Y-55618095D01*
X97338571Y-55665714D01*
X97290952Y-55618095D01*
X97243333Y-55522857D01*
X97243333Y-55284761D01*
X97290952Y-55189523D01*
X97338571Y-55141904D01*
X97433809Y-55094285D01*
X97671904Y-55094285D01*
X97767142Y-55141904D01*
X97814761Y-55189523D01*
X97862380Y-55284761D01*
X97862380Y-55522857D01*
X97814761Y-55618095D01*
X97767142Y-55665714D01*
%TO.C,D4*%
X92909404Y-57982380D02*
X92909404Y-56982380D01*
X93147500Y-56982380D01*
X93290357Y-57030000D01*
X93385595Y-57125238D01*
X93433214Y-57220476D01*
X93480833Y-57410952D01*
X93480833Y-57553809D01*
X93433214Y-57744285D01*
X93385595Y-57839523D01*
X93290357Y-57934761D01*
X93147500Y-57982380D01*
X92909404Y-57982380D01*
X94337976Y-57315714D02*
X94337976Y-57982380D01*
X94099880Y-56934761D02*
X93861785Y-57649047D01*
X94480833Y-57649047D01*
%TO.C,D3*%
X88161904Y-77542380D02*
X88161904Y-76542380D01*
X88400000Y-76542380D01*
X88542857Y-76590000D01*
X88638095Y-76685238D01*
X88685714Y-76780476D01*
X88733333Y-76970952D01*
X88733333Y-77113809D01*
X88685714Y-77304285D01*
X88638095Y-77399523D01*
X88542857Y-77494761D01*
X88400000Y-77542380D01*
X88161904Y-77542380D01*
X89066666Y-76542380D02*
X89685714Y-76542380D01*
X89352380Y-76923333D01*
X89495238Y-76923333D01*
X89590476Y-76970952D01*
X89638095Y-77018571D01*
X89685714Y-77113809D01*
X89685714Y-77351904D01*
X89638095Y-77447142D01*
X89590476Y-77494761D01*
X89495238Y-77542380D01*
X89209523Y-77542380D01*
X89114285Y-77494761D01*
X89066666Y-77447142D01*
%TO.C,Charging*%
X73319000Y-72112142D02*
X73271380Y-72159761D01*
X73128523Y-72207380D01*
X73033285Y-72207380D01*
X72890428Y-72159761D01*
X72795190Y-72064523D01*
X72747571Y-71969285D01*
X72699952Y-71778809D01*
X72699952Y-71635952D01*
X72747571Y-71445476D01*
X72795190Y-71350238D01*
X72890428Y-71255000D01*
X73033285Y-71207380D01*
X73128523Y-71207380D01*
X73271380Y-71255000D01*
X73319000Y-71302619D01*
X73747571Y-72207380D02*
X73747571Y-71207380D01*
X74176142Y-72207380D02*
X74176142Y-71683571D01*
X74128523Y-71588333D01*
X74033285Y-71540714D01*
X73890428Y-71540714D01*
X73795190Y-71588333D01*
X73747571Y-71635952D01*
X75080904Y-72207380D02*
X75080904Y-71683571D01*
X75033285Y-71588333D01*
X74938047Y-71540714D01*
X74747571Y-71540714D01*
X74652333Y-71588333D01*
X75080904Y-72159761D02*
X74985666Y-72207380D01*
X74747571Y-72207380D01*
X74652333Y-72159761D01*
X74604714Y-72064523D01*
X74604714Y-71969285D01*
X74652333Y-71874047D01*
X74747571Y-71826428D01*
X74985666Y-71826428D01*
X75080904Y-71778809D01*
X75557095Y-72207380D02*
X75557095Y-71540714D01*
X75557095Y-71731190D02*
X75604714Y-71635952D01*
X75652333Y-71588333D01*
X75747571Y-71540714D01*
X75842809Y-71540714D01*
X76604714Y-71540714D02*
X76604714Y-72350238D01*
X76557095Y-72445476D01*
X76509476Y-72493095D01*
X76414238Y-72540714D01*
X76271380Y-72540714D01*
X76176142Y-72493095D01*
X76604714Y-72159761D02*
X76509476Y-72207380D01*
X76319000Y-72207380D01*
X76223761Y-72159761D01*
X76176142Y-72112142D01*
X76128523Y-72016904D01*
X76128523Y-71731190D01*
X76176142Y-71635952D01*
X76223761Y-71588333D01*
X76319000Y-71540714D01*
X76509476Y-71540714D01*
X76604714Y-71588333D01*
X77080904Y-72207380D02*
X77080904Y-71540714D01*
X77080904Y-71207380D02*
X77033285Y-71255000D01*
X77080904Y-71302619D01*
X77128523Y-71255000D01*
X77080904Y-71207380D01*
X77080904Y-71302619D01*
X77557095Y-71540714D02*
X77557095Y-72207380D01*
X77557095Y-71635952D02*
X77604714Y-71588333D01*
X77699952Y-71540714D01*
X77842809Y-71540714D01*
X77938047Y-71588333D01*
X77985666Y-71683571D01*
X77985666Y-72207380D01*
X78890428Y-71540714D02*
X78890428Y-72350238D01*
X78842809Y-72445476D01*
X78795190Y-72493095D01*
X78699952Y-72540714D01*
X78557095Y-72540714D01*
X78461857Y-72493095D01*
X78890428Y-72159761D02*
X78795190Y-72207380D01*
X78604714Y-72207380D01*
X78509476Y-72159761D01*
X78461857Y-72112142D01*
X78414238Y-72016904D01*
X78414238Y-71731190D01*
X78461857Y-71635952D01*
X78509476Y-71588333D01*
X78604714Y-71540714D01*
X78795190Y-71540714D01*
X78890428Y-71588333D01*
%TO.C,C12*%
X90797142Y-83317142D02*
X90749523Y-83364761D01*
X90606666Y-83412380D01*
X90511428Y-83412380D01*
X90368571Y-83364761D01*
X90273333Y-83269523D01*
X90225714Y-83174285D01*
X90178095Y-82983809D01*
X90178095Y-82840952D01*
X90225714Y-82650476D01*
X90273333Y-82555238D01*
X90368571Y-82460000D01*
X90511428Y-82412380D01*
X90606666Y-82412380D01*
X90749523Y-82460000D01*
X90797142Y-82507619D01*
X91749523Y-83412380D02*
X91178095Y-83412380D01*
X91463809Y-83412380D02*
X91463809Y-82412380D01*
X91368571Y-82555238D01*
X91273333Y-82650476D01*
X91178095Y-82698095D01*
X92130476Y-82507619D02*
X92178095Y-82460000D01*
X92273333Y-82412380D01*
X92511428Y-82412380D01*
X92606666Y-82460000D01*
X92654285Y-82507619D01*
X92701904Y-82602857D01*
X92701904Y-82698095D01*
X92654285Y-82840952D01*
X92082857Y-83412380D01*
X92701904Y-83412380D01*
%TO.C,C11*%
X100637142Y-77417142D02*
X100589523Y-77464761D01*
X100446666Y-77512380D01*
X100351428Y-77512380D01*
X100208571Y-77464761D01*
X100113333Y-77369523D01*
X100065714Y-77274285D01*
X100018095Y-77083809D01*
X100018095Y-76940952D01*
X100065714Y-76750476D01*
X100113333Y-76655238D01*
X100208571Y-76560000D01*
X100351428Y-76512380D01*
X100446666Y-76512380D01*
X100589523Y-76560000D01*
X100637142Y-76607619D01*
X101589523Y-77512380D02*
X101018095Y-77512380D01*
X101303809Y-77512380D02*
X101303809Y-76512380D01*
X101208571Y-76655238D01*
X101113333Y-76750476D01*
X101018095Y-76798095D01*
X102541904Y-77512380D02*
X101970476Y-77512380D01*
X102256190Y-77512380D02*
X102256190Y-76512380D01*
X102160952Y-76655238D01*
X102065714Y-76750476D01*
X101970476Y-76798095D01*
%TO.C,C10*%
X107447142Y-67952857D02*
X107494761Y-68000476D01*
X107542380Y-68143333D01*
X107542380Y-68238571D01*
X107494761Y-68381428D01*
X107399523Y-68476666D01*
X107304285Y-68524285D01*
X107113809Y-68571904D01*
X106970952Y-68571904D01*
X106780476Y-68524285D01*
X106685238Y-68476666D01*
X106590000Y-68381428D01*
X106542380Y-68238571D01*
X106542380Y-68143333D01*
X106590000Y-68000476D01*
X106637619Y-67952857D01*
X107542380Y-67000476D02*
X107542380Y-67571904D01*
X107542380Y-67286190D02*
X106542380Y-67286190D01*
X106685238Y-67381428D01*
X106780476Y-67476666D01*
X106828095Y-67571904D01*
X106542380Y-66381428D02*
X106542380Y-66286190D01*
X106590000Y-66190952D01*
X106637619Y-66143333D01*
X106732857Y-66095714D01*
X106923333Y-66048095D01*
X107161428Y-66048095D01*
X107351904Y-66095714D01*
X107447142Y-66143333D01*
X107494761Y-66190952D01*
X107542380Y-66286190D01*
X107542380Y-66381428D01*
X107494761Y-66476666D01*
X107447142Y-66524285D01*
X107351904Y-66571904D01*
X107161428Y-66619523D01*
X106923333Y-66619523D01*
X106732857Y-66571904D01*
X106637619Y-66524285D01*
X106590000Y-66476666D01*
X106542380Y-66381428D01*
%TO.C,C9*%
X97287142Y-95416666D02*
X97334761Y-95464285D01*
X97382380Y-95607142D01*
X97382380Y-95702380D01*
X97334761Y-95845238D01*
X97239523Y-95940476D01*
X97144285Y-95988095D01*
X96953809Y-96035714D01*
X96810952Y-96035714D01*
X96620476Y-95988095D01*
X96525238Y-95940476D01*
X96430000Y-95845238D01*
X96382380Y-95702380D01*
X96382380Y-95607142D01*
X96430000Y-95464285D01*
X96477619Y-95416666D01*
X97382380Y-94940476D02*
X97382380Y-94750000D01*
X97334761Y-94654761D01*
X97287142Y-94607142D01*
X97144285Y-94511904D01*
X96953809Y-94464285D01*
X96572857Y-94464285D01*
X96477619Y-94511904D01*
X96430000Y-94559523D01*
X96382380Y-94654761D01*
X96382380Y-94845238D01*
X96430000Y-94940476D01*
X96477619Y-94988095D01*
X96572857Y-95035714D01*
X96810952Y-95035714D01*
X96906190Y-94988095D01*
X96953809Y-94940476D01*
X97001428Y-94845238D01*
X97001428Y-94654761D01*
X96953809Y-94559523D01*
X96906190Y-94511904D01*
X96810952Y-94464285D01*
%TO.C,C8*%
X107447142Y-62396666D02*
X107494761Y-62444285D01*
X107542380Y-62587142D01*
X107542380Y-62682380D01*
X107494761Y-62825238D01*
X107399523Y-62920476D01*
X107304285Y-62968095D01*
X107113809Y-63015714D01*
X106970952Y-63015714D01*
X106780476Y-62968095D01*
X106685238Y-62920476D01*
X106590000Y-62825238D01*
X106542380Y-62682380D01*
X106542380Y-62587142D01*
X106590000Y-62444285D01*
X106637619Y-62396666D01*
X106970952Y-61825238D02*
X106923333Y-61920476D01*
X106875714Y-61968095D01*
X106780476Y-62015714D01*
X106732857Y-62015714D01*
X106637619Y-61968095D01*
X106590000Y-61920476D01*
X106542380Y-61825238D01*
X106542380Y-61634761D01*
X106590000Y-61539523D01*
X106637619Y-61491904D01*
X106732857Y-61444285D01*
X106780476Y-61444285D01*
X106875714Y-61491904D01*
X106923333Y-61539523D01*
X106970952Y-61634761D01*
X106970952Y-61825238D01*
X107018571Y-61920476D01*
X107066190Y-61968095D01*
X107161428Y-62015714D01*
X107351904Y-62015714D01*
X107447142Y-61968095D01*
X107494761Y-61920476D01*
X107542380Y-61825238D01*
X107542380Y-61634761D01*
X107494761Y-61539523D01*
X107447142Y-61491904D01*
X107351904Y-61444285D01*
X107161428Y-61444285D01*
X107066190Y-61491904D01*
X107018571Y-61539523D01*
X106970952Y-61634761D01*
%TO.C,C7*%
X100277142Y-82716666D02*
X100324761Y-82764285D01*
X100372380Y-82907142D01*
X100372380Y-83002380D01*
X100324761Y-83145238D01*
X100229523Y-83240476D01*
X100134285Y-83288095D01*
X99943809Y-83335714D01*
X99800952Y-83335714D01*
X99610476Y-83288095D01*
X99515238Y-83240476D01*
X99420000Y-83145238D01*
X99372380Y-83002380D01*
X99372380Y-82907142D01*
X99420000Y-82764285D01*
X99467619Y-82716666D01*
X99372380Y-82383333D02*
X99372380Y-81716666D01*
X100372380Y-82145238D01*
%TO.C,C6*%
X86193333Y-88397142D02*
X86145714Y-88444761D01*
X86002857Y-88492380D01*
X85907619Y-88492380D01*
X85764761Y-88444761D01*
X85669523Y-88349523D01*
X85621904Y-88254285D01*
X85574285Y-88063809D01*
X85574285Y-87920952D01*
X85621904Y-87730476D01*
X85669523Y-87635238D01*
X85764761Y-87540000D01*
X85907619Y-87492380D01*
X86002857Y-87492380D01*
X86145714Y-87540000D01*
X86193333Y-87587619D01*
X87050476Y-87492380D02*
X86860000Y-87492380D01*
X86764761Y-87540000D01*
X86717142Y-87587619D01*
X86621904Y-87730476D01*
X86574285Y-87920952D01*
X86574285Y-88301904D01*
X86621904Y-88397142D01*
X86669523Y-88444761D01*
X86764761Y-88492380D01*
X86955238Y-88492380D01*
X87050476Y-88444761D01*
X87098095Y-88397142D01*
X87145714Y-88301904D01*
X87145714Y-88063809D01*
X87098095Y-87968571D01*
X87050476Y-87920952D01*
X86955238Y-87873333D01*
X86764761Y-87873333D01*
X86669523Y-87920952D01*
X86621904Y-87968571D01*
X86574285Y-88063809D01*
%TO.C,C5*%
X91387142Y-86846666D02*
X91434761Y-86894285D01*
X91482380Y-87037142D01*
X91482380Y-87132380D01*
X91434761Y-87275238D01*
X91339523Y-87370476D01*
X91244285Y-87418095D01*
X91053809Y-87465714D01*
X90910952Y-87465714D01*
X90720476Y-87418095D01*
X90625238Y-87370476D01*
X90530000Y-87275238D01*
X90482380Y-87132380D01*
X90482380Y-87037142D01*
X90530000Y-86894285D01*
X90577619Y-86846666D01*
X90482380Y-85941904D02*
X90482380Y-86418095D01*
X90958571Y-86465714D01*
X90910952Y-86418095D01*
X90863333Y-86322857D01*
X90863333Y-86084761D01*
X90910952Y-85989523D01*
X90958571Y-85941904D01*
X91053809Y-85894285D01*
X91291904Y-85894285D01*
X91387142Y-85941904D01*
X91434761Y-85989523D01*
X91482380Y-86084761D01*
X91482380Y-86322857D01*
X91434761Y-86418095D01*
X91387142Y-86465714D01*
%TO.C,C4*%
X112863333Y-87127142D02*
X112815714Y-87174761D01*
X112672857Y-87222380D01*
X112577619Y-87222380D01*
X112434761Y-87174761D01*
X112339523Y-87079523D01*
X112291904Y-86984285D01*
X112244285Y-86793809D01*
X112244285Y-86650952D01*
X112291904Y-86460476D01*
X112339523Y-86365238D01*
X112434761Y-86270000D01*
X112577619Y-86222380D01*
X112672857Y-86222380D01*
X112815714Y-86270000D01*
X112863333Y-86317619D01*
X113720476Y-86555714D02*
X113720476Y-87222380D01*
X113482380Y-86174761D02*
X113244285Y-86889047D01*
X113863333Y-86889047D01*
%TO.C,C3*%
X106513333Y-77417142D02*
X106465714Y-77464761D01*
X106322857Y-77512380D01*
X106227619Y-77512380D01*
X106084761Y-77464761D01*
X105989523Y-77369523D01*
X105941904Y-77274285D01*
X105894285Y-77083809D01*
X105894285Y-76940952D01*
X105941904Y-76750476D01*
X105989523Y-76655238D01*
X106084761Y-76560000D01*
X106227619Y-76512380D01*
X106322857Y-76512380D01*
X106465714Y-76560000D01*
X106513333Y-76607619D01*
X106846666Y-76512380D02*
X107465714Y-76512380D01*
X107132380Y-76893333D01*
X107275238Y-76893333D01*
X107370476Y-76940952D01*
X107418095Y-76988571D01*
X107465714Y-77083809D01*
X107465714Y-77321904D01*
X107418095Y-77417142D01*
X107370476Y-77464761D01*
X107275238Y-77512380D01*
X106989523Y-77512380D01*
X106894285Y-77464761D01*
X106846666Y-77417142D01*
%TO.C,C2*%
X92657142Y-72556666D02*
X92704761Y-72604285D01*
X92752380Y-72747142D01*
X92752380Y-72842380D01*
X92704761Y-72985238D01*
X92609523Y-73080476D01*
X92514285Y-73128095D01*
X92323809Y-73175714D01*
X92180952Y-73175714D01*
X91990476Y-73128095D01*
X91895238Y-73080476D01*
X91800000Y-72985238D01*
X91752380Y-72842380D01*
X91752380Y-72747142D01*
X91800000Y-72604285D01*
X91847619Y-72556666D01*
X91847619Y-72175714D02*
X91800000Y-72128095D01*
X91752380Y-72032857D01*
X91752380Y-71794761D01*
X91800000Y-71699523D01*
X91847619Y-71651904D01*
X91942857Y-71604285D01*
X92038095Y-71604285D01*
X92180952Y-71651904D01*
X92752380Y-72223333D01*
X92752380Y-71604285D01*
%TO.C,C1*%
X111593333Y-60907142D02*
X111545714Y-60954761D01*
X111402857Y-61002380D01*
X111307619Y-61002380D01*
X111164761Y-60954761D01*
X111069523Y-60859523D01*
X111021904Y-60764285D01*
X110974285Y-60573809D01*
X110974285Y-60430952D01*
X111021904Y-60240476D01*
X111069523Y-60145238D01*
X111164761Y-60050000D01*
X111307619Y-60002380D01*
X111402857Y-60002380D01*
X111545714Y-60050000D01*
X111593333Y-60097619D01*
X112545714Y-61002380D02*
X111974285Y-61002380D01*
X112260000Y-61002380D02*
X112260000Y-60002380D01*
X112164761Y-60145238D01*
X112069523Y-60240476D01*
X111974285Y-60288095D01*
%TD*%
M02*
