%TF.GenerationSoftware,KiCad,Pcbnew,(5.1.10)-1*%
%TF.CreationDate,2021-08-29T18:49:46-07:00*%
%TF.ProjectId,Solar Charger,536f6c61-7220-4436-9861-726765722e6b,rev?*%
%TF.SameCoordinates,Original*%
%TF.FileFunction,Copper,L1,Top*%
%TF.FilePolarity,Positive*%
%FSLAX46Y46*%
G04 Gerber Fmt 4.6, Leading zero omitted, Abs format (unit mm)*
G04 Created by KiCad (PCBNEW (5.1.10)-1) date 2021-08-29 18:49:46*
%MOMM*%
%LPD*%
G01*
G04 APERTURE LIST*
%TA.AperFunction,ComponentPad*%
%ADD10C,1.700000*%
%TD*%
%TA.AperFunction,ComponentPad*%
%ADD11C,2.000000*%
%TD*%
%TA.AperFunction,ComponentPad*%
%ADD12C,1.800000*%
%TD*%
%TA.AperFunction,ComponentPad*%
%ADD13R,1.800000X1.800000*%
%TD*%
%TA.AperFunction,SMDPad,CuDef*%
%ADD14R,0.480000X1.470000*%
%TD*%
%TA.AperFunction,SMDPad,CuDef*%
%ADD15R,1.525000X0.650000*%
%TD*%
%TA.AperFunction,SMDPad,CuDef*%
%ADD16R,1.470000X0.480000*%
%TD*%
%TA.AperFunction,SMDPad,CuDef*%
%ADD17R,2.620000X3.810000*%
%TD*%
%TA.AperFunction,SMDPad,CuDef*%
%ADD18R,1.600000X0.610000*%
%TD*%
%TA.AperFunction,SMDPad,CuDef*%
%ADD19R,2.000000X2.000000*%
%TD*%
%TA.AperFunction,SMDPad,CuDef*%
%ADD20R,0.900000X0.800000*%
%TD*%
%TA.AperFunction,ComponentPad*%
%ADD21C,3.000000*%
%TD*%
%TA.AperFunction,ComponentPad*%
%ADD22R,3.000000X3.000000*%
%TD*%
%TA.AperFunction,ViaPad*%
%ADD23C,0.800000*%
%TD*%
%TA.AperFunction,Conductor*%
%ADD24C,0.700000*%
%TD*%
%TA.AperFunction,Conductor*%
%ADD25C,0.410000*%
%TD*%
%TA.AperFunction,Conductor*%
%ADD26C,0.254000*%
%TD*%
%TA.AperFunction,Conductor*%
%ADD27C,0.100000*%
%TD*%
G04 APERTURE END LIST*
D10*
%TO.P,Output +5V,3*%
%TO.N,N/C*%
X119860000Y-83440000D03*
%TO.P,Output +5V,2*%
%TO.N,Bat_Boost*%
X119860000Y-87440000D03*
%TO.P,Output +5V,1*%
%TO.N,-Charge*%
X119860000Y-91440000D03*
D11*
%TO.P,Output +5V,*%
%TO.N,*%
X124110000Y-93440000D03*
X124110000Y-81440000D03*
X118110000Y-81440000D03*
X118110000Y-93440000D03*
%TD*%
D12*
%TO.P,Fully Charged,2*%
%TO.N,Net-(D1-Pad2)*%
X81280000Y-68580000D03*
D13*
%TO.P,Fully Charged,1*%
%TO.N,Net-(D2-Pad1)*%
X83820000Y-68580000D03*
%TD*%
D10*
%TO.P,Charge Battery,3*%
%TO.N,N/C*%
X72550000Y-58420000D03*
%TO.P,Charge Battery,2*%
%TO.N,Charge*%
X76550000Y-58420000D03*
%TO.P,Charge Battery,1*%
%TO.N,VDC*%
X80550000Y-58420000D03*
D11*
%TO.P,Charge Battery,*%
%TO.N,*%
X82550000Y-54170000D03*
X70550000Y-54170000D03*
X70550000Y-60170000D03*
X82550000Y-60170000D03*
%TD*%
D14*
%TO.P,U4,1*%
%TO.N,GND*%
X101305000Y-87140000D03*
%TO.P,U4,2*%
%TO.N,Net-(C7-Pad1)*%
X100655000Y-87140000D03*
%TO.P,U4,3*%
%TO.N,Bat_Boost*%
X100005000Y-87140000D03*
%TO.P,U4,4*%
%TO.N,eFuse*%
X99355000Y-87140000D03*
%TO.P,U4,5*%
%TO.N,+5V*%
X99355000Y-91440000D03*
%TO.P,U4,6*%
%TO.N,Net-(TP1-Pad1)*%
X100005000Y-91440000D03*
%TO.P,U4,7*%
%TO.N,Net-(R10-Pad1)*%
X100655000Y-91440000D03*
%TO.P,U4,8*%
%TO.N,Net-(U4-Pad8)*%
X101305000Y-91440000D03*
%TD*%
D15*
%TO.P,U3,1*%
%TO.N,Charge*%
X87458000Y-59960000D03*
%TO.P,U3,2*%
%TO.N,GND*%
X87458000Y-60960000D03*
%TO.P,U3,3*%
%TO.N,Net-(D1-Pad1)*%
X87458000Y-61960000D03*
%TO.P,U3,4*%
%TO.N,Net-(D2-Pad1)*%
X87458000Y-62960000D03*
%TO.P,U3,5*%
%TO.N,Net-(R3-Pad2)*%
X87458000Y-63960000D03*
%TO.P,U3,6*%
%TO.N,Net-(R7-Pad2)*%
X92882000Y-63960000D03*
%TO.P,U3,7*%
%TO.N,-Charge*%
X92882000Y-62960000D03*
%TO.P,U3,8*%
%TO.N,+Charge*%
X92882000Y-61960000D03*
%TO.P,U3,9*%
%TO.N,Charge*%
X92882000Y-60960000D03*
%TO.P,U3,10*%
%TO.N,MOSFET*%
X92882000Y-59960000D03*
%TD*%
D16*
%TO.P,U2,1*%
%TO.N,Net-(R4-Pad1)*%
X111760000Y-74635000D03*
%TO.P,U2,2*%
%TO.N,Net-(R5-Pad2)*%
X111760000Y-73985000D03*
%TO.P,U2,3*%
%TO.N,Bat_Boost*%
X111760000Y-73335000D03*
%TO.P,U2,4*%
%TO.N,GND*%
X111760000Y-72685000D03*
%TO.P,U2,5*%
%TO.N,Net-(D3-Pad2)*%
X107460000Y-72685000D03*
%TO.P,U2,6*%
%TO.N,Bat_Boost*%
X107460000Y-73335000D03*
%TO.P,U2,7*%
X107460000Y-73985000D03*
%TO.P,U2,8*%
%TO.N,Net-(C3-Pad2)*%
X107460000Y-74635000D03*
%TD*%
D17*
%TO.P,U1,GND*%
%TO.N,N/C*%
X119380000Y-57150000D03*
D18*
%TO.P,U1,2*%
%TO.N,-BATT*%
X122080000Y-57635000D03*
%TO.P,U1,5*%
%TO.N,GND*%
X116680000Y-55095000D03*
%TO.P,U1,6*%
%TO.N,Net-(C1-Pad2)*%
X116680000Y-56365000D03*
%TO.P,U1,7*%
%TO.N,GND*%
X116680000Y-57635000D03*
%TO.P,U1,8*%
X116680000Y-58905000D03*
%TO.P,U1,4*%
%TO.N,-BATT*%
X122080000Y-55095000D03*
%TO.P,U1,3*%
X122080000Y-56365000D03*
%TO.P,U1,1*%
X122080000Y-58905000D03*
%TD*%
D19*
%TO.P,TP1,1*%
%TO.N,Net-(TP1-Pad1)*%
X101600000Y-95250000D03*
%TD*%
%TO.P,R10,2*%
%TO.N,GND*%
%TA.AperFunction,SMDPad,CuDef*%
G36*
G01*
X107992500Y-91890001D02*
X107992500Y-90989999D01*
G75*
G02*
X108242499Y-90740000I249999J0D01*
G01*
X108767501Y-90740000D01*
G75*
G02*
X109017500Y-90989999I0J-249999D01*
G01*
X109017500Y-91890001D01*
G75*
G02*
X108767501Y-92140000I-249999J0D01*
G01*
X108242499Y-92140000D01*
G75*
G02*
X107992500Y-91890001I0J249999D01*
G01*
G37*
%TD.AperFunction*%
%TO.P,R10,1*%
%TO.N,Net-(R10-Pad1)*%
%TA.AperFunction,SMDPad,CuDef*%
G36*
G01*
X106167500Y-91890001D02*
X106167500Y-90989999D01*
G75*
G02*
X106417499Y-90740000I249999J0D01*
G01*
X106942501Y-90740000D01*
G75*
G02*
X107192500Y-90989999I0J-249999D01*
G01*
X107192500Y-91890001D01*
G75*
G02*
X106942501Y-92140000I-249999J0D01*
G01*
X106417499Y-92140000D01*
G75*
G02*
X106167500Y-91890001I0J249999D01*
G01*
G37*
%TD.AperFunction*%
%TD*%
%TO.P,R9,2*%
%TO.N,+Charge*%
%TA.AperFunction,SMDPad,CuDef*%
G36*
G01*
X99510001Y-61830000D02*
X98609999Y-61830000D01*
G75*
G02*
X98360000Y-61580001I0J249999D01*
G01*
X98360000Y-61054999D01*
G75*
G02*
X98609999Y-60805000I249999J0D01*
G01*
X99510001Y-60805000D01*
G75*
G02*
X99760000Y-61054999I0J-249999D01*
G01*
X99760000Y-61580001D01*
G75*
G02*
X99510001Y-61830000I-249999J0D01*
G01*
G37*
%TD.AperFunction*%
%TO.P,R9,1*%
%TO.N,-Charge*%
%TA.AperFunction,SMDPad,CuDef*%
G36*
G01*
X99510001Y-63655000D02*
X98609999Y-63655000D01*
G75*
G02*
X98360000Y-63405001I0J249999D01*
G01*
X98360000Y-62879999D01*
G75*
G02*
X98609999Y-62630000I249999J0D01*
G01*
X99510001Y-62630000D01*
G75*
G02*
X99760000Y-62879999I0J-249999D01*
G01*
X99760000Y-63405001D01*
G75*
G02*
X99510001Y-63655000I-249999J0D01*
G01*
G37*
%TD.AperFunction*%
%TD*%
%TO.P,R8,2*%
%TO.N,Net-(R7-Pad2)*%
%TA.AperFunction,SMDPad,CuDef*%
G36*
G01*
X99510001Y-69092500D02*
X98609999Y-69092500D01*
G75*
G02*
X98360000Y-68842501I0J249999D01*
G01*
X98360000Y-68317499D01*
G75*
G02*
X98609999Y-68067500I249999J0D01*
G01*
X99510001Y-68067500D01*
G75*
G02*
X99760000Y-68317499I0J-249999D01*
G01*
X99760000Y-68842501D01*
G75*
G02*
X99510001Y-69092500I-249999J0D01*
G01*
G37*
%TD.AperFunction*%
%TO.P,R8,1*%
%TO.N,GND*%
%TA.AperFunction,SMDPad,CuDef*%
G36*
G01*
X99510001Y-70917500D02*
X98609999Y-70917500D01*
G75*
G02*
X98360000Y-70667501I0J249999D01*
G01*
X98360000Y-70142499D01*
G75*
G02*
X98609999Y-69892500I249999J0D01*
G01*
X99510001Y-69892500D01*
G75*
G02*
X99760000Y-70142499I0J-249999D01*
G01*
X99760000Y-70667501D01*
G75*
G02*
X99510001Y-70917500I-249999J0D01*
G01*
G37*
%TD.AperFunction*%
%TD*%
%TO.P,R7,2*%
%TO.N,Net-(R7-Pad2)*%
%TA.AperFunction,SMDPad,CuDef*%
G36*
G01*
X93467500Y-67760001D02*
X93467500Y-66859999D01*
G75*
G02*
X93717499Y-66610000I249999J0D01*
G01*
X94242501Y-66610000D01*
G75*
G02*
X94492500Y-66859999I0J-249999D01*
G01*
X94492500Y-67760001D01*
G75*
G02*
X94242501Y-68010000I-249999J0D01*
G01*
X93717499Y-68010000D01*
G75*
G02*
X93467500Y-67760001I0J249999D01*
G01*
G37*
%TD.AperFunction*%
%TO.P,R7,1*%
%TO.N,Charge*%
%TA.AperFunction,SMDPad,CuDef*%
G36*
G01*
X91642500Y-67760001D02*
X91642500Y-66859999D01*
G75*
G02*
X91892499Y-66610000I249999J0D01*
G01*
X92417501Y-66610000D01*
G75*
G02*
X92667500Y-66859999I0J-249999D01*
G01*
X92667500Y-67760001D01*
G75*
G02*
X92417501Y-68010000I-249999J0D01*
G01*
X91892499Y-68010000D01*
G75*
G02*
X91642500Y-67760001I0J249999D01*
G01*
G37*
%TD.AperFunction*%
%TD*%
%TO.P,R6,2*%
%TO.N,GND*%
%TA.AperFunction,SMDPad,CuDef*%
G36*
G01*
X110039999Y-80410000D02*
X110940001Y-80410000D01*
G75*
G02*
X111190000Y-80659999I0J-249999D01*
G01*
X111190000Y-81185001D01*
G75*
G02*
X110940001Y-81435000I-249999J0D01*
G01*
X110039999Y-81435000D01*
G75*
G02*
X109790000Y-81185001I0J249999D01*
G01*
X109790000Y-80659999D01*
G75*
G02*
X110039999Y-80410000I249999J0D01*
G01*
G37*
%TD.AperFunction*%
%TO.P,R6,1*%
%TO.N,Net-(R5-Pad2)*%
%TA.AperFunction,SMDPad,CuDef*%
G36*
G01*
X110039999Y-78585000D02*
X110940001Y-78585000D01*
G75*
G02*
X111190000Y-78834999I0J-249999D01*
G01*
X111190000Y-79360001D01*
G75*
G02*
X110940001Y-79610000I-249999J0D01*
G01*
X110039999Y-79610000D01*
G75*
G02*
X109790000Y-79360001I0J249999D01*
G01*
X109790000Y-78834999D01*
G75*
G02*
X110039999Y-78585000I249999J0D01*
G01*
G37*
%TD.AperFunction*%
%TD*%
%TO.P,R5,2*%
%TO.N,Net-(R5-Pad2)*%
%TA.AperFunction,SMDPad,CuDef*%
G36*
G01*
X108400001Y-82507500D02*
X107499999Y-82507500D01*
G75*
G02*
X107250000Y-82257501I0J249999D01*
G01*
X107250000Y-81732499D01*
G75*
G02*
X107499999Y-81482500I249999J0D01*
G01*
X108400001Y-81482500D01*
G75*
G02*
X108650000Y-81732499I0J-249999D01*
G01*
X108650000Y-82257501D01*
G75*
G02*
X108400001Y-82507500I-249999J0D01*
G01*
G37*
%TD.AperFunction*%
%TO.P,R5,1*%
%TO.N,eFuse*%
%TA.AperFunction,SMDPad,CuDef*%
G36*
G01*
X108400001Y-84332500D02*
X107499999Y-84332500D01*
G75*
G02*
X107250000Y-84082501I0J249999D01*
G01*
X107250000Y-83557499D01*
G75*
G02*
X107499999Y-83307500I249999J0D01*
G01*
X108400001Y-83307500D01*
G75*
G02*
X108650000Y-83557499I0J-249999D01*
G01*
X108650000Y-84082501D01*
G75*
G02*
X108400001Y-84332500I-249999J0D01*
G01*
G37*
%TD.AperFunction*%
%TD*%
%TO.P,R4,2*%
%TO.N,Net-(C4-Pad1)*%
%TA.AperFunction,SMDPad,CuDef*%
G36*
G01*
X113849999Y-80410000D02*
X114750001Y-80410000D01*
G75*
G02*
X115000000Y-80659999I0J-249999D01*
G01*
X115000000Y-81185001D01*
G75*
G02*
X114750001Y-81435000I-249999J0D01*
G01*
X113849999Y-81435000D01*
G75*
G02*
X113600000Y-81185001I0J249999D01*
G01*
X113600000Y-80659999D01*
G75*
G02*
X113849999Y-80410000I249999J0D01*
G01*
G37*
%TD.AperFunction*%
%TO.P,R4,1*%
%TO.N,Net-(R4-Pad1)*%
%TA.AperFunction,SMDPad,CuDef*%
G36*
G01*
X113849999Y-78585000D02*
X114750001Y-78585000D01*
G75*
G02*
X115000000Y-78834999I0J-249999D01*
G01*
X115000000Y-79360001D01*
G75*
G02*
X114750001Y-79610000I-249999J0D01*
G01*
X113849999Y-79610000D01*
G75*
G02*
X113600000Y-79360001I0J249999D01*
G01*
X113600000Y-78834999D01*
G75*
G02*
X113849999Y-78585000I249999J0D01*
G01*
G37*
%TD.AperFunction*%
%TD*%
%TO.P,R3,2*%
%TO.N,Net-(R3-Pad2)*%
%TA.AperFunction,SMDPad,CuDef*%
G36*
G01*
X89350001Y-70720000D02*
X88449999Y-70720000D01*
G75*
G02*
X88200000Y-70470001I0J249999D01*
G01*
X88200000Y-69944999D01*
G75*
G02*
X88449999Y-69695000I249999J0D01*
G01*
X89350001Y-69695000D01*
G75*
G02*
X89600000Y-69944999I0J-249999D01*
G01*
X89600000Y-70470001D01*
G75*
G02*
X89350001Y-70720000I-249999J0D01*
G01*
G37*
%TD.AperFunction*%
%TO.P,R3,1*%
%TO.N,Net-(C2-Pad2)*%
%TA.AperFunction,SMDPad,CuDef*%
G36*
G01*
X89350001Y-72545000D02*
X88449999Y-72545000D01*
G75*
G02*
X88200000Y-72295001I0J249999D01*
G01*
X88200000Y-71769999D01*
G75*
G02*
X88449999Y-71520000I249999J0D01*
G01*
X89350001Y-71520000D01*
G75*
G02*
X89600000Y-71769999I0J-249999D01*
G01*
X89600000Y-72295001D01*
G75*
G02*
X89350001Y-72545000I-249999J0D01*
G01*
G37*
%TD.AperFunction*%
%TD*%
%TO.P,R2,2*%
%TO.N,Charge*%
%TA.AperFunction,SMDPad,CuDef*%
G36*
G01*
X72205001Y-67187500D02*
X71304999Y-67187500D01*
G75*
G02*
X71055000Y-66937501I0J249999D01*
G01*
X71055000Y-66412499D01*
G75*
G02*
X71304999Y-66162500I249999J0D01*
G01*
X72205001Y-66162500D01*
G75*
G02*
X72455000Y-66412499I0J-249999D01*
G01*
X72455000Y-66937501D01*
G75*
G02*
X72205001Y-67187500I-249999J0D01*
G01*
G37*
%TD.AperFunction*%
%TO.P,R2,1*%
%TO.N,Net-(D1-Pad2)*%
%TA.AperFunction,SMDPad,CuDef*%
G36*
G01*
X72205001Y-69012500D02*
X71304999Y-69012500D01*
G75*
G02*
X71055000Y-68762501I0J249999D01*
G01*
X71055000Y-68237499D01*
G75*
G02*
X71304999Y-67987500I249999J0D01*
G01*
X72205001Y-67987500D01*
G75*
G02*
X72455000Y-68237499I0J-249999D01*
G01*
X72455000Y-68762501D01*
G75*
G02*
X72205001Y-69012500I-249999J0D01*
G01*
G37*
%TD.AperFunction*%
%TD*%
%TO.P,R1,2*%
%TO.N,-Charge*%
%TA.AperFunction,SMDPad,CuDef*%
G36*
G01*
X111360000Y-65589999D02*
X111360000Y-66490001D01*
G75*
G02*
X111110001Y-66740000I-249999J0D01*
G01*
X110584999Y-66740000D01*
G75*
G02*
X110335000Y-66490001I0J249999D01*
G01*
X110335000Y-65589999D01*
G75*
G02*
X110584999Y-65340000I249999J0D01*
G01*
X111110001Y-65340000D01*
G75*
G02*
X111360000Y-65589999I0J-249999D01*
G01*
G37*
%TD.AperFunction*%
%TO.P,R1,1*%
%TO.N,Net-(C1-Pad2)*%
%TA.AperFunction,SMDPad,CuDef*%
G36*
G01*
X113185000Y-65589999D02*
X113185000Y-66490001D01*
G75*
G02*
X112935001Y-66740000I-249999J0D01*
G01*
X112409999Y-66740000D01*
G75*
G02*
X112160000Y-66490001I0J249999D01*
G01*
X112160000Y-65589999D01*
G75*
G02*
X112409999Y-65340000I249999J0D01*
G01*
X112935001Y-65340000D01*
G75*
G02*
X113185000Y-65589999I0J-249999D01*
G01*
G37*
%TD.AperFunction*%
%TD*%
D20*
%TO.P,Q1,3*%
%TO.N,Net-(D4-Pad2)*%
X87900000Y-55880000D03*
%TO.P,Q1,2*%
%TO.N,Charge*%
X89900000Y-54930000D03*
%TO.P,Q1,1*%
%TO.N,MOSFET*%
X89900000Y-56830000D03*
%TD*%
%TO.P,L2,2*%
%TO.N,Net-(D4-Pad1)*%
%TA.AperFunction,SMDPad,CuDef*%
G36*
G01*
X106485000Y-55105000D02*
X104335000Y-55105000D01*
G75*
G02*
X104085000Y-54855000I0J250000D01*
G01*
X104085000Y-54105000D01*
G75*
G02*
X104335000Y-53855000I250000J0D01*
G01*
X106485000Y-53855000D01*
G75*
G02*
X106735000Y-54105000I0J-250000D01*
G01*
X106735000Y-54855000D01*
G75*
G02*
X106485000Y-55105000I-250000J0D01*
G01*
G37*
%TD.AperFunction*%
%TO.P,L2,1*%
%TO.N,+Charge*%
%TA.AperFunction,SMDPad,CuDef*%
G36*
G01*
X106485000Y-57905000D02*
X104335000Y-57905000D01*
G75*
G02*
X104085000Y-57655000I0J250000D01*
G01*
X104085000Y-56905000D01*
G75*
G02*
X104335000Y-56655000I250000J0D01*
G01*
X106485000Y-56655000D01*
G75*
G02*
X106735000Y-56905000I0J-250000D01*
G01*
X106735000Y-57655000D01*
G75*
G02*
X106485000Y-57905000I-250000J0D01*
G01*
G37*
%TD.AperFunction*%
%TD*%
%TO.P,L1,2*%
%TO.N,Net-(D3-Pad2)*%
%TA.AperFunction,SMDPad,CuDef*%
G36*
G01*
X97595000Y-79105000D02*
X95445000Y-79105000D01*
G75*
G02*
X95195000Y-78855000I0J250000D01*
G01*
X95195000Y-78105000D01*
G75*
G02*
X95445000Y-77855000I250000J0D01*
G01*
X97595000Y-77855000D01*
G75*
G02*
X97845000Y-78105000I0J-250000D01*
G01*
X97845000Y-78855000D01*
G75*
G02*
X97595000Y-79105000I-250000J0D01*
G01*
G37*
%TD.AperFunction*%
%TO.P,L1,1*%
%TO.N,Bat_Boost*%
%TA.AperFunction,SMDPad,CuDef*%
G36*
G01*
X97595000Y-81905000D02*
X95445000Y-81905000D01*
G75*
G02*
X95195000Y-81655000I0J250000D01*
G01*
X95195000Y-80905000D01*
G75*
G02*
X95445000Y-80655000I250000J0D01*
G01*
X97595000Y-80655000D01*
G75*
G02*
X97845000Y-80905000I0J-250000D01*
G01*
X97845000Y-81655000D01*
G75*
G02*
X97595000Y-81905000I-250000J0D01*
G01*
G37*
%TD.AperFunction*%
%TD*%
D21*
%TO.P,5V Output,2*%
%TO.N,GND*%
X76200000Y-93900000D03*
D22*
%TO.P,5V Output,1*%
%TO.N,+5V*%
X76200000Y-88900000D03*
%TD*%
D21*
%TO.P,Solar Panel,2*%
%TO.N,GND*%
X76200000Y-81280000D03*
D22*
%TO.P,Solar Panel,1*%
%TO.N,VDC*%
X76200000Y-76280000D03*
%TD*%
D21*
%TO.P,Battery,2*%
%TO.N,-BATT*%
X121666000Y-64850000D03*
D22*
%TO.P,Battery,1*%
%TO.N,-Charge*%
X121666000Y-69850000D03*
%TD*%
%TO.P,D6,2*%
%TO.N,GND*%
%TA.AperFunction,SMDPad,CuDef*%
G36*
G01*
X88443750Y-95700000D02*
X89356250Y-95700000D01*
G75*
G02*
X89600000Y-95943750I0J-243750D01*
G01*
X89600000Y-96431250D01*
G75*
G02*
X89356250Y-96675000I-243750J0D01*
G01*
X88443750Y-96675000D01*
G75*
G02*
X88200000Y-96431250I0J243750D01*
G01*
X88200000Y-95943750D01*
G75*
G02*
X88443750Y-95700000I243750J0D01*
G01*
G37*
%TD.AperFunction*%
%TO.P,D6,1*%
%TO.N,+5V*%
%TA.AperFunction,SMDPad,CuDef*%
G36*
G01*
X88443750Y-93825000D02*
X89356250Y-93825000D01*
G75*
G02*
X89600000Y-94068750I0J-243750D01*
G01*
X89600000Y-94556250D01*
G75*
G02*
X89356250Y-94800000I-243750J0D01*
G01*
X88443750Y-94800000D01*
G75*
G02*
X88200000Y-94556250I0J243750D01*
G01*
X88200000Y-94068750D01*
G75*
G02*
X88443750Y-93825000I243750J0D01*
G01*
G37*
%TD.AperFunction*%
%TD*%
%TO.P,D5,2*%
%TO.N,GND*%
%TA.AperFunction,SMDPad,CuDef*%
G36*
G01*
X99516250Y-55430000D02*
X98603750Y-55430000D01*
G75*
G02*
X98360000Y-55186250I0J243750D01*
G01*
X98360000Y-54698750D01*
G75*
G02*
X98603750Y-54455000I243750J0D01*
G01*
X99516250Y-54455000D01*
G75*
G02*
X99760000Y-54698750I0J-243750D01*
G01*
X99760000Y-55186250D01*
G75*
G02*
X99516250Y-55430000I-243750J0D01*
G01*
G37*
%TD.AperFunction*%
%TO.P,D5,1*%
%TO.N,Net-(D4-Pad1)*%
%TA.AperFunction,SMDPad,CuDef*%
G36*
G01*
X99516250Y-57305000D02*
X98603750Y-57305000D01*
G75*
G02*
X98360000Y-57061250I0J243750D01*
G01*
X98360000Y-56573750D01*
G75*
G02*
X98603750Y-56330000I243750J0D01*
G01*
X99516250Y-56330000D01*
G75*
G02*
X99760000Y-56573750I0J-243750D01*
G01*
X99760000Y-57061250D01*
G75*
G02*
X99516250Y-57305000I-243750J0D01*
G01*
G37*
%TD.AperFunction*%
%TD*%
%TO.P,D4,2*%
%TO.N,Net-(D4-Pad2)*%
%TA.AperFunction,SMDPad,CuDef*%
G36*
G01*
X93197500Y-55423750D02*
X93197500Y-56336250D01*
G75*
G02*
X92953750Y-56580000I-243750J0D01*
G01*
X92466250Y-56580000D01*
G75*
G02*
X92222500Y-56336250I0J243750D01*
G01*
X92222500Y-55423750D01*
G75*
G02*
X92466250Y-55180000I243750J0D01*
G01*
X92953750Y-55180000D01*
G75*
G02*
X93197500Y-55423750I0J-243750D01*
G01*
G37*
%TD.AperFunction*%
%TO.P,D4,1*%
%TO.N,Net-(D4-Pad1)*%
%TA.AperFunction,SMDPad,CuDef*%
G36*
G01*
X95072500Y-55423750D02*
X95072500Y-56336250D01*
G75*
G02*
X94828750Y-56580000I-243750J0D01*
G01*
X94341250Y-56580000D01*
G75*
G02*
X94097500Y-56336250I0J243750D01*
G01*
X94097500Y-55423750D01*
G75*
G02*
X94341250Y-55180000I243750J0D01*
G01*
X94828750Y-55180000D01*
G75*
G02*
X95072500Y-55423750I0J-243750D01*
G01*
G37*
%TD.AperFunction*%
%TD*%
%TO.P,D3,2*%
%TO.N,Net-(D3-Pad2)*%
%TA.AperFunction,SMDPad,CuDef*%
G36*
G01*
X89350000Y-79196250D02*
X89350000Y-78283750D01*
G75*
G02*
X89593750Y-78040000I243750J0D01*
G01*
X90081250Y-78040000D01*
G75*
G02*
X90325000Y-78283750I0J-243750D01*
G01*
X90325000Y-79196250D01*
G75*
G02*
X90081250Y-79440000I-243750J0D01*
G01*
X89593750Y-79440000D01*
G75*
G02*
X89350000Y-79196250I0J243750D01*
G01*
G37*
%TD.AperFunction*%
%TO.P,D3,1*%
%TO.N,eFuse*%
%TA.AperFunction,SMDPad,CuDef*%
G36*
G01*
X87475000Y-79196250D02*
X87475000Y-78283750D01*
G75*
G02*
X87718750Y-78040000I243750J0D01*
G01*
X88206250Y-78040000D01*
G75*
G02*
X88450000Y-78283750I0J-243750D01*
G01*
X88450000Y-79196250D01*
G75*
G02*
X88206250Y-79440000I-243750J0D01*
G01*
X87718750Y-79440000D01*
G75*
G02*
X87475000Y-79196250I0J243750D01*
G01*
G37*
%TD.AperFunction*%
%TD*%
D12*
%TO.P,Charging,2*%
%TO.N,Net-(D1-Pad2)*%
X74930000Y-68580000D03*
D13*
%TO.P,Charging,1*%
%TO.N,Net-(D1-Pad1)*%
X77470000Y-68580000D03*
%TD*%
%TO.P,C12,2*%
%TO.N,GND*%
%TA.AperFunction,SMDPad,CuDef*%
G36*
G01*
X90990000Y-80805000D02*
X90990000Y-81755000D01*
G75*
G02*
X90740000Y-82005000I-250000J0D01*
G01*
X90240000Y-82005000D01*
G75*
G02*
X89990000Y-81755000I0J250000D01*
G01*
X89990000Y-80805000D01*
G75*
G02*
X90240000Y-80555000I250000J0D01*
G01*
X90740000Y-80555000D01*
G75*
G02*
X90990000Y-80805000I0J-250000D01*
G01*
G37*
%TD.AperFunction*%
%TO.P,C12,1*%
%TO.N,Bat_Boost*%
%TA.AperFunction,SMDPad,CuDef*%
G36*
G01*
X92890000Y-80805000D02*
X92890000Y-81755000D01*
G75*
G02*
X92640000Y-82005000I-250000J0D01*
G01*
X92140000Y-82005000D01*
G75*
G02*
X91890000Y-81755000I0J250000D01*
G01*
X91890000Y-80805000D01*
G75*
G02*
X92140000Y-80555000I250000J0D01*
G01*
X92640000Y-80555000D01*
G75*
G02*
X92890000Y-80805000I0J-250000D01*
G01*
G37*
%TD.AperFunction*%
%TD*%
%TO.P,C11,2*%
%TO.N,GND*%
%TA.AperFunction,SMDPad,CuDef*%
G36*
G01*
X101730000Y-79215000D02*
X101730000Y-78265000D01*
G75*
G02*
X101980000Y-78015000I250000J0D01*
G01*
X102480000Y-78015000D01*
G75*
G02*
X102730000Y-78265000I0J-250000D01*
G01*
X102730000Y-79215000D01*
G75*
G02*
X102480000Y-79465000I-250000J0D01*
G01*
X101980000Y-79465000D01*
G75*
G02*
X101730000Y-79215000I0J250000D01*
G01*
G37*
%TD.AperFunction*%
%TO.P,C11,1*%
%TO.N,Bat_Boost*%
%TA.AperFunction,SMDPad,CuDef*%
G36*
G01*
X99830000Y-79215000D02*
X99830000Y-78265000D01*
G75*
G02*
X100080000Y-78015000I250000J0D01*
G01*
X100580000Y-78015000D01*
G75*
G02*
X100830000Y-78265000I0J-250000D01*
G01*
X100830000Y-79215000D01*
G75*
G02*
X100580000Y-79465000I-250000J0D01*
G01*
X100080000Y-79465000D01*
G75*
G02*
X99830000Y-79215000I0J250000D01*
G01*
G37*
%TD.AperFunction*%
%TD*%
%TO.P,C10,2*%
%TO.N,GND*%
%TA.AperFunction,SMDPad,CuDef*%
G36*
G01*
X104935000Y-67760000D02*
X105885000Y-67760000D01*
G75*
G02*
X106135000Y-68010000I0J-250000D01*
G01*
X106135000Y-68510000D01*
G75*
G02*
X105885000Y-68760000I-250000J0D01*
G01*
X104935000Y-68760000D01*
G75*
G02*
X104685000Y-68510000I0J250000D01*
G01*
X104685000Y-68010000D01*
G75*
G02*
X104935000Y-67760000I250000J0D01*
G01*
G37*
%TD.AperFunction*%
%TO.P,C10,1*%
%TO.N,-Charge*%
%TA.AperFunction,SMDPad,CuDef*%
G36*
G01*
X104935000Y-65860000D02*
X105885000Y-65860000D01*
G75*
G02*
X106135000Y-66110000I0J-250000D01*
G01*
X106135000Y-66610000D01*
G75*
G02*
X105885000Y-66860000I-250000J0D01*
G01*
X104935000Y-66860000D01*
G75*
G02*
X104685000Y-66610000I0J250000D01*
G01*
X104685000Y-66110000D01*
G75*
G02*
X104935000Y-65860000I250000J0D01*
G01*
G37*
%TD.AperFunction*%
%TD*%
%TO.P,C9,2*%
%TO.N,GND*%
%TA.AperFunction,SMDPad,CuDef*%
G36*
G01*
X94775000Y-95700000D02*
X95725000Y-95700000D01*
G75*
G02*
X95975000Y-95950000I0J-250000D01*
G01*
X95975000Y-96450000D01*
G75*
G02*
X95725000Y-96700000I-250000J0D01*
G01*
X94775000Y-96700000D01*
G75*
G02*
X94525000Y-96450000I0J250000D01*
G01*
X94525000Y-95950000D01*
G75*
G02*
X94775000Y-95700000I250000J0D01*
G01*
G37*
%TD.AperFunction*%
%TO.P,C9,1*%
%TO.N,+5V*%
%TA.AperFunction,SMDPad,CuDef*%
G36*
G01*
X94775000Y-93800000D02*
X95725000Y-93800000D01*
G75*
G02*
X95975000Y-94050000I0J-250000D01*
G01*
X95975000Y-94550000D01*
G75*
G02*
X95725000Y-94800000I-250000J0D01*
G01*
X94775000Y-94800000D01*
G75*
G02*
X94525000Y-94550000I0J250000D01*
G01*
X94525000Y-94050000D01*
G75*
G02*
X94775000Y-93800000I250000J0D01*
G01*
G37*
%TD.AperFunction*%
%TD*%
%TO.P,C8,2*%
%TO.N,-Charge*%
%TA.AperFunction,SMDPad,CuDef*%
G36*
G01*
X104935000Y-62680000D02*
X105885000Y-62680000D01*
G75*
G02*
X106135000Y-62930000I0J-250000D01*
G01*
X106135000Y-63430000D01*
G75*
G02*
X105885000Y-63680000I-250000J0D01*
G01*
X104935000Y-63680000D01*
G75*
G02*
X104685000Y-63430000I0J250000D01*
G01*
X104685000Y-62930000D01*
G75*
G02*
X104935000Y-62680000I250000J0D01*
G01*
G37*
%TD.AperFunction*%
%TO.P,C8,1*%
%TO.N,GND*%
%TA.AperFunction,SMDPad,CuDef*%
G36*
G01*
X104935000Y-60780000D02*
X105885000Y-60780000D01*
G75*
G02*
X106135000Y-61030000I0J-250000D01*
G01*
X106135000Y-61530000D01*
G75*
G02*
X105885000Y-61780000I-250000J0D01*
G01*
X104935000Y-61780000D01*
G75*
G02*
X104685000Y-61530000I0J250000D01*
G01*
X104685000Y-61030000D01*
G75*
G02*
X104935000Y-60780000I250000J0D01*
G01*
G37*
%TD.AperFunction*%
%TD*%
%TO.P,C7,2*%
%TO.N,GND*%
%TA.AperFunction,SMDPad,CuDef*%
G36*
G01*
X102075000Y-82100000D02*
X101125000Y-82100000D01*
G75*
G02*
X100875000Y-81850000I0J250000D01*
G01*
X100875000Y-81350000D01*
G75*
G02*
X101125000Y-81100000I250000J0D01*
G01*
X102075000Y-81100000D01*
G75*
G02*
X102325000Y-81350000I0J-250000D01*
G01*
X102325000Y-81850000D01*
G75*
G02*
X102075000Y-82100000I-250000J0D01*
G01*
G37*
%TD.AperFunction*%
%TO.P,C7,1*%
%TO.N,Net-(C7-Pad1)*%
%TA.AperFunction,SMDPad,CuDef*%
G36*
G01*
X102075000Y-84000000D02*
X101125000Y-84000000D01*
G75*
G02*
X100875000Y-83750000I0J250000D01*
G01*
X100875000Y-83250000D01*
G75*
G02*
X101125000Y-83000000I250000J0D01*
G01*
X102075000Y-83000000D01*
G75*
G02*
X102325000Y-83250000I0J-250000D01*
G01*
X102325000Y-83750000D01*
G75*
G02*
X102075000Y-84000000I-250000J0D01*
G01*
G37*
%TD.AperFunction*%
%TD*%
%TO.P,C6,2*%
%TO.N,GND*%
%TA.AperFunction,SMDPad,CuDef*%
G36*
G01*
X85910000Y-85885000D02*
X85910000Y-86835000D01*
G75*
G02*
X85660000Y-87085000I-250000J0D01*
G01*
X85160000Y-87085000D01*
G75*
G02*
X84910000Y-86835000I0J250000D01*
G01*
X84910000Y-85885000D01*
G75*
G02*
X85160000Y-85635000I250000J0D01*
G01*
X85660000Y-85635000D01*
G75*
G02*
X85910000Y-85885000I0J-250000D01*
G01*
G37*
%TD.AperFunction*%
%TO.P,C6,1*%
%TO.N,eFuse*%
%TA.AperFunction,SMDPad,CuDef*%
G36*
G01*
X87810000Y-85885000D02*
X87810000Y-86835000D01*
G75*
G02*
X87560000Y-87085000I-250000J0D01*
G01*
X87060000Y-87085000D01*
G75*
G02*
X86810000Y-86835000I0J250000D01*
G01*
X86810000Y-85885000D01*
G75*
G02*
X87060000Y-85635000I250000J0D01*
G01*
X87560000Y-85635000D01*
G75*
G02*
X87810000Y-85885000I0J-250000D01*
G01*
G37*
%TD.AperFunction*%
%TD*%
%TO.P,C5,2*%
%TO.N,eFuse*%
%TA.AperFunction,SMDPad,CuDef*%
G36*
G01*
X93185000Y-86230000D02*
X92235000Y-86230000D01*
G75*
G02*
X91985000Y-85980000I0J250000D01*
G01*
X91985000Y-85480000D01*
G75*
G02*
X92235000Y-85230000I250000J0D01*
G01*
X93185000Y-85230000D01*
G75*
G02*
X93435000Y-85480000I0J-250000D01*
G01*
X93435000Y-85980000D01*
G75*
G02*
X93185000Y-86230000I-250000J0D01*
G01*
G37*
%TD.AperFunction*%
%TO.P,C5,1*%
%TO.N,GND*%
%TA.AperFunction,SMDPad,CuDef*%
G36*
G01*
X93185000Y-88130000D02*
X92235000Y-88130000D01*
G75*
G02*
X91985000Y-87880000I0J250000D01*
G01*
X91985000Y-87380000D01*
G75*
G02*
X92235000Y-87130000I250000J0D01*
G01*
X93185000Y-87130000D01*
G75*
G02*
X93435000Y-87380000I0J-250000D01*
G01*
X93435000Y-87880000D01*
G75*
G02*
X93185000Y-88130000I-250000J0D01*
G01*
G37*
%TD.AperFunction*%
%TD*%
%TO.P,C4,2*%
%TO.N,GND*%
%TA.AperFunction,SMDPad,CuDef*%
G36*
G01*
X112580000Y-84615000D02*
X112580000Y-85565000D01*
G75*
G02*
X112330000Y-85815000I-250000J0D01*
G01*
X111830000Y-85815000D01*
G75*
G02*
X111580000Y-85565000I0J250000D01*
G01*
X111580000Y-84615000D01*
G75*
G02*
X111830000Y-84365000I250000J0D01*
G01*
X112330000Y-84365000D01*
G75*
G02*
X112580000Y-84615000I0J-250000D01*
G01*
G37*
%TD.AperFunction*%
%TO.P,C4,1*%
%TO.N,Net-(C4-Pad1)*%
%TA.AperFunction,SMDPad,CuDef*%
G36*
G01*
X114480000Y-84615000D02*
X114480000Y-85565000D01*
G75*
G02*
X114230000Y-85815000I-250000J0D01*
G01*
X113730000Y-85815000D01*
G75*
G02*
X113480000Y-85565000I0J250000D01*
G01*
X113480000Y-84615000D01*
G75*
G02*
X113730000Y-84365000I250000J0D01*
G01*
X114230000Y-84365000D01*
G75*
G02*
X114480000Y-84615000I0J-250000D01*
G01*
G37*
%TD.AperFunction*%
%TD*%
%TO.P,C3,2*%
%TO.N,Net-(C3-Pad2)*%
%TA.AperFunction,SMDPad,CuDef*%
G36*
G01*
X107130000Y-79215000D02*
X107130000Y-78265000D01*
G75*
G02*
X107380000Y-78015000I250000J0D01*
G01*
X107880000Y-78015000D01*
G75*
G02*
X108130000Y-78265000I0J-250000D01*
G01*
X108130000Y-79215000D01*
G75*
G02*
X107880000Y-79465000I-250000J0D01*
G01*
X107380000Y-79465000D01*
G75*
G02*
X107130000Y-79215000I0J250000D01*
G01*
G37*
%TD.AperFunction*%
%TO.P,C3,1*%
%TO.N,GND*%
%TA.AperFunction,SMDPad,CuDef*%
G36*
G01*
X105230000Y-79215000D02*
X105230000Y-78265000D01*
G75*
G02*
X105480000Y-78015000I250000J0D01*
G01*
X105980000Y-78015000D01*
G75*
G02*
X106230000Y-78265000I0J-250000D01*
G01*
X106230000Y-79215000D01*
G75*
G02*
X105980000Y-79465000I-250000J0D01*
G01*
X105480000Y-79465000D01*
G75*
G02*
X105230000Y-79215000I0J250000D01*
G01*
G37*
%TD.AperFunction*%
%TD*%
%TO.P,C2,2*%
%TO.N,Net-(C2-Pad2)*%
%TA.AperFunction,SMDPad,CuDef*%
G36*
G01*
X94455000Y-71940000D02*
X93505000Y-71940000D01*
G75*
G02*
X93255000Y-71690000I0J250000D01*
G01*
X93255000Y-71190000D01*
G75*
G02*
X93505000Y-70940000I250000J0D01*
G01*
X94455000Y-70940000D01*
G75*
G02*
X94705000Y-71190000I0J-250000D01*
G01*
X94705000Y-71690000D01*
G75*
G02*
X94455000Y-71940000I-250000J0D01*
G01*
G37*
%TD.AperFunction*%
%TO.P,C2,1*%
%TO.N,GND*%
%TA.AperFunction,SMDPad,CuDef*%
G36*
G01*
X94455000Y-73840000D02*
X93505000Y-73840000D01*
G75*
G02*
X93255000Y-73590000I0J250000D01*
G01*
X93255000Y-73090000D01*
G75*
G02*
X93505000Y-72840000I250000J0D01*
G01*
X94455000Y-72840000D01*
G75*
G02*
X94705000Y-73090000I0J-250000D01*
G01*
X94705000Y-73590000D01*
G75*
G02*
X94455000Y-73840000I-250000J0D01*
G01*
G37*
%TD.AperFunction*%
%TD*%
%TO.P,C1,2*%
%TO.N,Net-(C1-Pad2)*%
%TA.AperFunction,SMDPad,CuDef*%
G36*
G01*
X112210000Y-62705000D02*
X112210000Y-61755000D01*
G75*
G02*
X112460000Y-61505000I250000J0D01*
G01*
X112960000Y-61505000D01*
G75*
G02*
X113210000Y-61755000I0J-250000D01*
G01*
X113210000Y-62705000D01*
G75*
G02*
X112960000Y-62955000I-250000J0D01*
G01*
X112460000Y-62955000D01*
G75*
G02*
X112210000Y-62705000I0J250000D01*
G01*
G37*
%TD.AperFunction*%
%TO.P,C1,1*%
%TO.N,GND*%
%TA.AperFunction,SMDPad,CuDef*%
G36*
G01*
X110310000Y-62705000D02*
X110310000Y-61755000D01*
G75*
G02*
X110560000Y-61505000I250000J0D01*
G01*
X111060000Y-61505000D01*
G75*
G02*
X111310000Y-61755000I0J-250000D01*
G01*
X111310000Y-62705000D01*
G75*
G02*
X111060000Y-62955000I-250000J0D01*
G01*
X110560000Y-62955000D01*
G75*
G02*
X110310000Y-62705000I0J250000D01*
G01*
G37*
%TD.AperFunction*%
%TD*%
D23*
%TO.N,GND*%
X78359000Y-93980000D03*
X102235000Y-87122000D03*
X88900000Y-97155000D03*
X95250000Y-97282000D03*
X92710000Y-88646000D03*
X84455000Y-86360000D03*
X89535000Y-81280000D03*
X93980000Y-74422000D03*
X101600000Y-80518000D03*
X104775000Y-78740000D03*
X103124000Y-78740000D03*
X110998000Y-85090000D03*
X110490000Y-82169000D03*
X111760000Y-71882000D03*
X100330000Y-70485000D03*
X105410000Y-69342000D03*
X115443000Y-55118000D03*
X116713000Y-59690000D03*
X109855000Y-62230000D03*
X105410000Y-60325000D03*
X99060000Y-53848000D03*
X86106000Y-60960000D03*
X109601000Y-91440000D03*
%TD*%
D24*
%TO.N,GND*%
X86106000Y-60960000D02*
X87458000Y-60960000D01*
X99060000Y-53848000D02*
X99060000Y-54942500D01*
X105410000Y-60325000D02*
X105410000Y-61280000D01*
X109855000Y-62230000D02*
X110810000Y-62230000D01*
X116680000Y-59657000D02*
X116713000Y-59690000D01*
X116680000Y-57635000D02*
X116680000Y-59657000D01*
X116657000Y-55118000D02*
X116680000Y-55095000D01*
X115443000Y-55118000D02*
X116657000Y-55118000D01*
X105410000Y-68260000D02*
X105410000Y-69342000D01*
X100250000Y-70405000D02*
X100330000Y-70485000D01*
X99060000Y-70405000D02*
X100250000Y-70405000D01*
X111760000Y-71882000D02*
X111760000Y-72544999D01*
X110490000Y-80922500D02*
X110490000Y-82169000D01*
X110998000Y-85090000D02*
X112080000Y-85090000D01*
X102230000Y-78740000D02*
X105730000Y-78740000D01*
X101600000Y-79370000D02*
X102230000Y-78740000D01*
X101600000Y-81600000D02*
X101600000Y-79370000D01*
X108505000Y-91440000D02*
X109601000Y-91440000D01*
X93980000Y-73340000D02*
X93980000Y-74422000D01*
X89535000Y-81280000D02*
X90490000Y-81280000D01*
X84455000Y-86360000D02*
X85410000Y-86360000D01*
X92710000Y-87630000D02*
X92710000Y-88646000D01*
X95250000Y-96200000D02*
X95250000Y-97282000D01*
X88900000Y-96187500D02*
X88900000Y-97155000D01*
X95237500Y-96187500D02*
X95250000Y-96200000D01*
X88900000Y-96187500D02*
X95237500Y-96187500D01*
X101463001Y-87122000D02*
X101445001Y-87140000D01*
X102235000Y-87122000D02*
X101463001Y-87122000D01*
X78279000Y-93900000D02*
X78359000Y-93980000D01*
X76200000Y-93900000D02*
X78279000Y-93900000D01*
%TO.N,Net-(C2-Pad2)*%
X93387500Y-72032500D02*
X93980000Y-71440000D01*
X88900000Y-72032500D02*
X93387500Y-72032500D01*
%TO.N,Net-(C3-Pad2)*%
X107630000Y-74945001D02*
X107460000Y-74775001D01*
X107630000Y-78740000D02*
X107630000Y-74945001D01*
%TO.N,Net-(C4-Pad1)*%
X114300000Y-84770000D02*
X113980000Y-85090000D01*
X114300000Y-80922500D02*
X114300000Y-84770000D01*
%TO.N,eFuse*%
X99214999Y-88315001D02*
X99214999Y-87140000D01*
X99324999Y-88425001D02*
X99214999Y-88315001D01*
X103344999Y-88425001D02*
X99324999Y-88425001D01*
X103344999Y-88425001D02*
X107950000Y-83820000D01*
X87962500Y-85707500D02*
X87310000Y-86360000D01*
X87962500Y-78740000D02*
X87962500Y-85707500D01*
X92080000Y-86360000D02*
X92710000Y-85730000D01*
X87310000Y-86360000D02*
X92080000Y-86360000D01*
X97804999Y-85730000D02*
X99214999Y-87140000D01*
X92710000Y-85730000D02*
X97804999Y-85730000D01*
D25*
%TO.N,Net-(C7-Pad1)*%
X100655000Y-86085998D02*
X100655000Y-87140000D01*
X101600000Y-85140998D02*
X100655000Y-86085998D01*
X101600000Y-83500000D02*
X101600000Y-85140998D01*
D24*
%TO.N,-Charge*%
X98877500Y-62960000D02*
X92882000Y-62960000D01*
X99060000Y-63142500D02*
X98877500Y-62960000D01*
X105372500Y-63142500D02*
X105410000Y-63180000D01*
X99060000Y-63142500D02*
X105372500Y-63142500D01*
X105410000Y-63180000D02*
X105410000Y-66360000D01*
X110527500Y-66360000D02*
X110847500Y-66040000D01*
X105410000Y-66360000D02*
X110527500Y-66360000D01*
X119380000Y-68580000D02*
X120650000Y-69850000D01*
X112687500Y-68580000D02*
X119380000Y-68580000D01*
X110847500Y-66740000D02*
X112687500Y-68580000D01*
X110847500Y-66040000D02*
X110847500Y-66740000D01*
X120650000Y-69850000D02*
X125850001Y-75050001D01*
X125850001Y-85449999D02*
X119860000Y-91440000D01*
X125850001Y-75050001D02*
X125850001Y-85449999D01*
%TO.N,+5V*%
X95237500Y-94312500D02*
X95250000Y-94300000D01*
X88900000Y-94312500D02*
X95237500Y-94312500D01*
X96354999Y-94300000D02*
X99214999Y-91440000D01*
X95250000Y-94300000D02*
X96354999Y-94300000D01*
X83487500Y-88900000D02*
X88900000Y-94312500D01*
X76200000Y-88900000D02*
X83487500Y-88900000D01*
D25*
%TO.N,Bat_Boost*%
X112720001Y-73335000D02*
X111760000Y-73335000D01*
X113045001Y-73660000D02*
X112720001Y-73335000D01*
D24*
X100330000Y-78740000D02*
X105410000Y-73660000D01*
X105410000Y-73660000D02*
X107135000Y-73660000D01*
X97790000Y-81280000D02*
X100330000Y-78740000D01*
X96520000Y-81280000D02*
X97790000Y-81280000D01*
X96520000Y-81280000D02*
X92390000Y-81280000D01*
X96520000Y-81280000D02*
X99974999Y-84734999D01*
D25*
X100005000Y-84765000D02*
X100005000Y-87140000D01*
X99974999Y-84734999D02*
X100005000Y-84765000D01*
X107460000Y-73335000D02*
X111760000Y-73335000D01*
D24*
X122559999Y-84740001D02*
X119860000Y-87440000D01*
X122559999Y-81919999D02*
X122559999Y-84740001D01*
X114300000Y-73660000D02*
X122559999Y-81919999D01*
X113045001Y-73660000D02*
X114300000Y-73660000D01*
D25*
X107460000Y-73335000D02*
X107460000Y-73985000D01*
X107460000Y-73335000D02*
X107135000Y-73660000D01*
D24*
%TO.N,Net-(D1-Pad2)*%
X74930000Y-69852792D02*
X76197208Y-71120000D01*
X74930000Y-68580000D02*
X74930000Y-69852792D01*
X76197208Y-71120000D02*
X78740000Y-71120000D01*
X78740000Y-71120000D02*
X81280000Y-68580000D01*
X74850000Y-68500000D02*
X74930000Y-68580000D01*
X71755000Y-68500000D02*
X74850000Y-68500000D01*
%TO.N,Net-(D1-Pad1)*%
X85690000Y-61960000D02*
X87458000Y-61960000D01*
X79070000Y-68580000D02*
X85690000Y-61960000D01*
X77470000Y-68580000D02*
X79070000Y-68580000D01*
%TO.N,Net-(D2-Pad1)*%
X85995500Y-62960000D02*
X87458000Y-62960000D01*
X83820000Y-65135500D02*
X85995500Y-62960000D01*
X83820000Y-68580000D02*
X83820000Y-65135500D01*
%TO.N,Net-(D3-Pad2)*%
X102455001Y-72544999D02*
X107460000Y-72544999D01*
X96520000Y-78480000D02*
X102455001Y-72544999D01*
X96260000Y-78740000D02*
X96520000Y-78480000D01*
X89837500Y-78740000D02*
X96260000Y-78740000D01*
%TO.N,Net-(D4-Pad2)*%
X87900000Y-55880000D02*
X92710000Y-55880000D01*
%TO.N,Net-(D4-Pad1)*%
X98122500Y-55880000D02*
X99060000Y-56817500D01*
X94585000Y-55880000D02*
X98122500Y-55880000D01*
X103072500Y-56817500D02*
X105410000Y-54480000D01*
X99060000Y-56817500D02*
X103072500Y-56817500D01*
%TO.N,-BATT*%
X122080000Y-63420000D02*
X120650000Y-64850000D01*
X122080000Y-55095000D02*
X122080000Y-63420000D01*
%TO.N,VDC*%
X68999999Y-69079999D02*
X72858000Y-72938000D01*
X71405999Y-57019999D02*
X68999999Y-59425999D01*
X79149999Y-57019999D02*
X71405999Y-57019999D01*
X80550000Y-58420000D02*
X79149999Y-57019999D01*
X72858000Y-72938000D02*
X72209999Y-72289999D01*
X68999999Y-59425999D02*
X68999999Y-69079999D01*
X76200000Y-76280000D02*
X72858000Y-72938000D01*
%TO.N,+Charge*%
X98417500Y-61960000D02*
X99060000Y-61317500D01*
X92882000Y-61960000D02*
X98417500Y-61960000D01*
X101372500Y-61317500D02*
X99060000Y-61317500D01*
X105410000Y-57280000D02*
X101372500Y-61317500D01*
%TO.N,MOSFET*%
X89900000Y-56978000D02*
X92882000Y-59960000D01*
X89900000Y-56830000D02*
X89900000Y-56978000D01*
%TO.N,Net-(R3-Pad2)*%
X87458000Y-68765500D02*
X88900000Y-70207500D01*
X87458000Y-63960000D02*
X87458000Y-68765500D01*
%TO.N,Net-(R4-Pad1)*%
X114300000Y-77315001D02*
X111760000Y-74775001D01*
X114300000Y-79097500D02*
X114300000Y-77315001D01*
%TO.N,Net-(R5-Pad2)*%
X110490000Y-79097500D02*
X110490000Y-75330002D01*
D25*
X110505000Y-73985000D02*
X111760000Y-73985000D01*
X110474999Y-73954999D02*
X110505000Y-73985000D01*
D24*
X110132500Y-78740000D02*
X110490000Y-79097500D01*
X110335000Y-79097500D02*
X110490000Y-79097500D01*
X107950000Y-81482500D02*
X110335000Y-79097500D01*
X107950000Y-81995000D02*
X107950000Y-81482500D01*
D25*
X110474999Y-75315001D02*
X110490000Y-75330002D01*
X110474999Y-73954999D02*
X110474999Y-75315001D01*
D24*
%TO.N,Net-(R7-Pad2)*%
X93980000Y-65058000D02*
X93980000Y-67310000D01*
X92882000Y-63960000D02*
X93980000Y-65058000D01*
X97790000Y-67310000D02*
X99060000Y-68580000D01*
X93980000Y-67310000D02*
X97790000Y-67310000D01*
%TO.N,Net-(R10-Pad1)*%
X106680000Y-91440000D02*
X105394999Y-90154999D01*
X105394999Y-90154999D02*
X100685001Y-90154999D01*
D25*
X100655000Y-90185000D02*
X100655000Y-91440000D01*
X100685001Y-90154999D02*
X100655000Y-90185000D01*
%TO.N,Net-(TP1-Pad1)*%
X100005000Y-93655000D02*
X101600000Y-95250000D01*
X100005000Y-91440000D02*
X100005000Y-93655000D01*
D24*
%TO.N,Charge*%
X89535502Y-60960000D02*
X92882000Y-60960000D01*
X88535502Y-59960000D02*
X89535502Y-60960000D01*
X87458000Y-59960000D02*
X88535502Y-59960000D01*
X91804498Y-60960000D02*
X90170000Y-62594498D01*
X92882000Y-60960000D02*
X91804498Y-60960000D01*
X90170000Y-65325000D02*
X92155000Y-67310000D01*
X90170000Y-62594498D02*
X90170000Y-65325000D01*
X76550000Y-58420000D02*
X79850001Y-61720001D01*
X86899999Y-59401999D02*
X87458000Y-59960000D01*
X86899999Y-55039999D02*
X86899999Y-59401999D01*
X87009999Y-54929999D02*
X86899999Y-55039999D01*
X89900000Y-54930000D02*
X87009999Y-54929999D01*
X85699998Y-59960000D02*
X86471000Y-59960000D01*
X83939997Y-61720001D02*
X85699998Y-59960000D01*
X79850001Y-61720001D02*
X83939997Y-61720001D01*
X86471000Y-59960000D02*
X87458000Y-59960000D01*
X85995500Y-59960000D02*
X86471000Y-59960000D01*
X71755000Y-63215000D02*
X76550000Y-58420000D01*
X71755000Y-66675000D02*
X71755000Y-63215000D01*
%TO.N,Net-(C1-Pad2)*%
X112672500Y-62267500D02*
X112710000Y-62230000D01*
X112672500Y-66040000D02*
X112672500Y-62267500D01*
X115854998Y-56365000D02*
X112710000Y-59509998D01*
X112710000Y-59509998D02*
X112710000Y-62230000D01*
X116680000Y-56365000D02*
X115854998Y-56365000D01*
%TD*%
D26*
%TO.N,GND*%
X69507748Y-52900013D02*
X69280013Y-53127748D01*
X69101082Y-53395537D01*
X68977832Y-53693088D01*
X68915000Y-54008967D01*
X68915000Y-54331033D01*
X68977832Y-54646912D01*
X69101082Y-54944463D01*
X69280013Y-55212252D01*
X69507748Y-55439987D01*
X69775537Y-55618918D01*
X70073088Y-55742168D01*
X70388967Y-55805000D01*
X70711033Y-55805000D01*
X71026912Y-55742168D01*
X71324463Y-55618918D01*
X71592252Y-55439987D01*
X71819987Y-55212252D01*
X71998918Y-54944463D01*
X72122168Y-54646912D01*
X72185000Y-54331033D01*
X72185000Y-54008967D01*
X72122168Y-53693088D01*
X71998918Y-53395537D01*
X71819987Y-53127748D01*
X71592252Y-52900013D01*
X71337810Y-52730000D01*
X81762190Y-52730000D01*
X81507748Y-52900013D01*
X81280013Y-53127748D01*
X81101082Y-53395537D01*
X80977832Y-53693088D01*
X80915000Y-54008967D01*
X80915000Y-54331033D01*
X80977832Y-54646912D01*
X81101082Y-54944463D01*
X81280013Y-55212252D01*
X81507748Y-55439987D01*
X81775537Y-55618918D01*
X82073088Y-55742168D01*
X82388967Y-55805000D01*
X82711033Y-55805000D01*
X83026912Y-55742168D01*
X83324463Y-55618918D01*
X83592252Y-55439987D01*
X83819987Y-55212252D01*
X83998918Y-54944463D01*
X84122168Y-54646912D01*
X84185000Y-54331033D01*
X84185000Y-54008967D01*
X84122168Y-53693088D01*
X83998918Y-53395537D01*
X83819987Y-53127748D01*
X83592252Y-52900013D01*
X83337810Y-52730000D01*
X128245000Y-52730000D01*
X128245001Y-97765000D01*
X68605000Y-97765000D01*
X68605000Y-96675000D01*
X87561928Y-96675000D01*
X87574188Y-96799482D01*
X87610498Y-96919180D01*
X87669463Y-97029494D01*
X87748815Y-97126185D01*
X87845506Y-97205537D01*
X87955820Y-97264502D01*
X88075518Y-97300812D01*
X88200000Y-97313072D01*
X88614250Y-97310000D01*
X88773000Y-97151250D01*
X88773000Y-96314500D01*
X89027000Y-96314500D01*
X89027000Y-97151250D01*
X89185750Y-97310000D01*
X89600000Y-97313072D01*
X89724482Y-97300812D01*
X89844180Y-97264502D01*
X89954494Y-97205537D01*
X90051185Y-97126185D01*
X90130537Y-97029494D01*
X90189502Y-96919180D01*
X90225812Y-96799482D01*
X90235609Y-96700000D01*
X93886928Y-96700000D01*
X93899188Y-96824482D01*
X93935498Y-96944180D01*
X93994463Y-97054494D01*
X94073815Y-97151185D01*
X94170506Y-97230537D01*
X94280820Y-97289502D01*
X94400518Y-97325812D01*
X94525000Y-97338072D01*
X94964250Y-97335000D01*
X95123000Y-97176250D01*
X95123000Y-96327000D01*
X95377000Y-96327000D01*
X95377000Y-97176250D01*
X95535750Y-97335000D01*
X95975000Y-97338072D01*
X96099482Y-97325812D01*
X96219180Y-97289502D01*
X96329494Y-97230537D01*
X96426185Y-97151185D01*
X96505537Y-97054494D01*
X96564502Y-96944180D01*
X96600812Y-96824482D01*
X96613072Y-96700000D01*
X96610000Y-96485750D01*
X96451250Y-96327000D01*
X95377000Y-96327000D01*
X95123000Y-96327000D01*
X94048750Y-96327000D01*
X93890000Y-96485750D01*
X93886928Y-96700000D01*
X90235609Y-96700000D01*
X90238072Y-96675000D01*
X90235000Y-96473250D01*
X90076250Y-96314500D01*
X89027000Y-96314500D01*
X88773000Y-96314500D01*
X87723750Y-96314500D01*
X87565000Y-96473250D01*
X87561928Y-96675000D01*
X68605000Y-96675000D01*
X68605000Y-95391653D01*
X74887952Y-95391653D01*
X75043962Y-95707214D01*
X75418745Y-95898020D01*
X75823551Y-96012044D01*
X76242824Y-96044902D01*
X76660451Y-95995334D01*
X77060383Y-95865243D01*
X77356038Y-95707214D01*
X77512048Y-95391653D01*
X76200000Y-94079605D01*
X74887952Y-95391653D01*
X68605000Y-95391653D01*
X68605000Y-93942824D01*
X74055098Y-93942824D01*
X74104666Y-94360451D01*
X74234757Y-94760383D01*
X74392786Y-95056038D01*
X74708347Y-95212048D01*
X76020395Y-93900000D01*
X76379605Y-93900000D01*
X77691653Y-95212048D01*
X78007214Y-95056038D01*
X78198020Y-94681255D01*
X78312044Y-94276449D01*
X78344902Y-93857176D01*
X78295334Y-93439549D01*
X78165243Y-93039617D01*
X78007214Y-92743962D01*
X77691653Y-92587952D01*
X76379605Y-93900000D01*
X76020395Y-93900000D01*
X74708347Y-92587952D01*
X74392786Y-92743962D01*
X74201980Y-93118745D01*
X74087956Y-93523551D01*
X74055098Y-93942824D01*
X68605000Y-93942824D01*
X68605000Y-92408347D01*
X74887952Y-92408347D01*
X76200000Y-93720395D01*
X77512048Y-92408347D01*
X77356038Y-92092786D01*
X76981255Y-91901980D01*
X76576449Y-91787956D01*
X76157176Y-91755098D01*
X75739549Y-91804666D01*
X75339617Y-91934757D01*
X75043962Y-92092786D01*
X74887952Y-92408347D01*
X68605000Y-92408347D01*
X68605000Y-85635000D01*
X84271928Y-85635000D01*
X84275000Y-86074250D01*
X84433750Y-86233000D01*
X85283000Y-86233000D01*
X85283000Y-85158750D01*
X85124250Y-85000000D01*
X84910000Y-84996928D01*
X84785518Y-85009188D01*
X84665820Y-85045498D01*
X84555506Y-85104463D01*
X84458815Y-85183815D01*
X84379463Y-85280506D01*
X84320498Y-85390820D01*
X84284188Y-85510518D01*
X84271928Y-85635000D01*
X68605000Y-85635000D01*
X68605000Y-82771653D01*
X74887952Y-82771653D01*
X75043962Y-83087214D01*
X75418745Y-83278020D01*
X75823551Y-83392044D01*
X76242824Y-83424902D01*
X76660451Y-83375334D01*
X77060383Y-83245243D01*
X77356038Y-83087214D01*
X77512048Y-82771653D01*
X76200000Y-81459605D01*
X74887952Y-82771653D01*
X68605000Y-82771653D01*
X68605000Y-81322824D01*
X74055098Y-81322824D01*
X74104666Y-81740451D01*
X74234757Y-82140383D01*
X74392786Y-82436038D01*
X74708347Y-82592048D01*
X76020395Y-81280000D01*
X76379605Y-81280000D01*
X77691653Y-82592048D01*
X78007214Y-82436038D01*
X78198020Y-82061255D01*
X78312044Y-81656449D01*
X78344902Y-81237176D01*
X78295334Y-80819549D01*
X78165243Y-80419617D01*
X78007214Y-80123962D01*
X77691653Y-79967952D01*
X76379605Y-81280000D01*
X76020395Y-81280000D01*
X74708347Y-79967952D01*
X74392786Y-80123962D01*
X74201980Y-80498745D01*
X74087956Y-80903551D01*
X74055098Y-81322824D01*
X68605000Y-81322824D01*
X68605000Y-79788347D01*
X74887952Y-79788347D01*
X76200000Y-81100395D01*
X77512048Y-79788347D01*
X77356038Y-79472786D01*
X76981255Y-79281980D01*
X76576449Y-79167956D01*
X76157176Y-79135098D01*
X75739549Y-79184666D01*
X75339617Y-79314757D01*
X75043962Y-79472786D01*
X74887952Y-79788347D01*
X68605000Y-79788347D01*
X68605000Y-70078000D01*
X72127290Y-73600290D01*
X74061928Y-75534929D01*
X74061928Y-77780000D01*
X74074188Y-77904482D01*
X74110498Y-78024180D01*
X74169463Y-78134494D01*
X74248815Y-78231185D01*
X74345506Y-78310537D01*
X74455820Y-78369502D01*
X74575518Y-78405812D01*
X74700000Y-78418072D01*
X77700000Y-78418072D01*
X77824482Y-78405812D01*
X77944180Y-78369502D01*
X78054494Y-78310537D01*
X78151185Y-78231185D01*
X78230537Y-78134494D01*
X78289502Y-78024180D01*
X78325812Y-77904482D01*
X78338072Y-77780000D01*
X78338072Y-74780000D01*
X78325812Y-74655518D01*
X78289502Y-74535820D01*
X78230537Y-74425506D01*
X78151185Y-74328815D01*
X78054494Y-74249463D01*
X77944180Y-74190498D01*
X77824482Y-74154188D01*
X77700000Y-74141928D01*
X75454929Y-74141928D01*
X75153001Y-73840000D01*
X92616928Y-73840000D01*
X92629188Y-73964482D01*
X92665498Y-74084180D01*
X92724463Y-74194494D01*
X92803815Y-74291185D01*
X92900506Y-74370537D01*
X93010820Y-74429502D01*
X93130518Y-74465812D01*
X93255000Y-74478072D01*
X93694250Y-74475000D01*
X93853000Y-74316250D01*
X93853000Y-73467000D01*
X94107000Y-73467000D01*
X94107000Y-74316250D01*
X94265750Y-74475000D01*
X94705000Y-74478072D01*
X94829482Y-74465812D01*
X94949180Y-74429502D01*
X95059494Y-74370537D01*
X95156185Y-74291185D01*
X95235537Y-74194494D01*
X95294502Y-74084180D01*
X95330812Y-73964482D01*
X95343072Y-73840000D01*
X95340000Y-73625750D01*
X95181250Y-73467000D01*
X94107000Y-73467000D01*
X93853000Y-73467000D01*
X92778750Y-73467000D01*
X92620000Y-73625750D01*
X92616928Y-73840000D01*
X75153001Y-73840000D01*
X73520290Y-72207290D01*
X70816537Y-69503537D01*
X70965149Y-69582972D01*
X71131745Y-69633508D01*
X71304999Y-69650572D01*
X72205001Y-69650572D01*
X72378255Y-69633508D01*
X72544851Y-69582972D01*
X72698387Y-69500905D01*
X72717767Y-69485000D01*
X73688573Y-69485000D01*
X73737688Y-69558505D01*
X73945001Y-69765818D01*
X73945001Y-69804403D01*
X73940235Y-69852792D01*
X73959253Y-70045885D01*
X74015576Y-70231558D01*
X74015577Y-70231559D01*
X74107041Y-70402676D01*
X74230131Y-70552662D01*
X74267711Y-70583503D01*
X75466497Y-71782290D01*
X75497338Y-71819870D01*
X75612600Y-71914463D01*
X75647324Y-71942960D01*
X75818441Y-72034424D01*
X76004114Y-72090747D01*
X76197208Y-72109765D01*
X76245588Y-72105000D01*
X78691620Y-72105000D01*
X78740000Y-72109765D01*
X78788380Y-72105000D01*
X78933094Y-72090747D01*
X79118767Y-72034424D01*
X79289884Y-71942960D01*
X79439870Y-71819870D01*
X79470716Y-71782284D01*
X81138000Y-70115000D01*
X81431184Y-70115000D01*
X81727743Y-70056011D01*
X82007095Y-69940299D01*
X82258505Y-69772312D01*
X82324944Y-69705873D01*
X82330498Y-69724180D01*
X82389463Y-69834494D01*
X82468815Y-69931185D01*
X82565506Y-70010537D01*
X82675820Y-70069502D01*
X82795518Y-70105812D01*
X82920000Y-70118072D01*
X84720000Y-70118072D01*
X84844482Y-70105812D01*
X84964180Y-70069502D01*
X85074494Y-70010537D01*
X85171185Y-69931185D01*
X85250537Y-69834494D01*
X85309502Y-69724180D01*
X85345812Y-69604482D01*
X85358072Y-69480000D01*
X85358072Y-67680000D01*
X85345812Y-67555518D01*
X85309502Y-67435820D01*
X85250537Y-67325506D01*
X85171185Y-67228815D01*
X85074494Y-67149463D01*
X84964180Y-67090498D01*
X84844482Y-67054188D01*
X84805000Y-67050299D01*
X84805000Y-65543500D01*
X86057972Y-64290528D01*
X86069688Y-64409482D01*
X86105998Y-64529180D01*
X86164963Y-64639494D01*
X86244315Y-64736185D01*
X86341006Y-64815537D01*
X86451320Y-64874502D01*
X86473000Y-64881079D01*
X86473001Y-68717110D01*
X86468235Y-68765500D01*
X86487253Y-68958593D01*
X86543576Y-69144266D01*
X86563933Y-69182351D01*
X86635041Y-69315384D01*
X86758131Y-69465370D01*
X86795711Y-69496211D01*
X87561928Y-70262429D01*
X87561928Y-70470001D01*
X87578992Y-70643255D01*
X87629528Y-70809851D01*
X87711595Y-70963387D01*
X87822038Y-71097962D01*
X87848891Y-71120000D01*
X87822038Y-71142038D01*
X87711595Y-71276613D01*
X87629528Y-71430149D01*
X87578992Y-71596745D01*
X87561928Y-71769999D01*
X87561928Y-72295001D01*
X87578992Y-72468255D01*
X87629528Y-72634851D01*
X87711595Y-72788387D01*
X87822038Y-72922962D01*
X87956613Y-73033405D01*
X88110149Y-73115472D01*
X88276745Y-73166008D01*
X88449999Y-73183072D01*
X89350001Y-73183072D01*
X89523255Y-73166008D01*
X89689851Y-73115472D01*
X89843387Y-73033405D01*
X89862767Y-73017500D01*
X92619473Y-73017500D01*
X92620000Y-73054250D01*
X92778750Y-73213000D01*
X93853000Y-73213000D01*
X93853000Y-73193000D01*
X94107000Y-73193000D01*
X94107000Y-73213000D01*
X95181250Y-73213000D01*
X95340000Y-73054250D01*
X95343072Y-72840000D01*
X95330812Y-72715518D01*
X95294502Y-72595820D01*
X95235537Y-72485506D01*
X95156185Y-72388815D01*
X95076406Y-72323342D01*
X95082962Y-72317962D01*
X95193405Y-72183386D01*
X95275472Y-72029850D01*
X95326008Y-71863254D01*
X95343072Y-71690000D01*
X95343072Y-71190000D01*
X95326008Y-71016746D01*
X95295903Y-70917500D01*
X97721928Y-70917500D01*
X97734188Y-71041982D01*
X97770498Y-71161680D01*
X97829463Y-71271994D01*
X97908815Y-71368685D01*
X98005506Y-71448037D01*
X98115820Y-71507002D01*
X98235518Y-71543312D01*
X98360000Y-71555572D01*
X98774250Y-71552500D01*
X98933000Y-71393750D01*
X98933000Y-70532000D01*
X99187000Y-70532000D01*
X99187000Y-71393750D01*
X99345750Y-71552500D01*
X99760000Y-71555572D01*
X99884482Y-71543312D01*
X100004180Y-71507002D01*
X100114494Y-71448037D01*
X100211185Y-71368685D01*
X100290537Y-71271994D01*
X100349502Y-71161680D01*
X100385812Y-71041982D01*
X100398072Y-70917500D01*
X100395000Y-70690750D01*
X100236250Y-70532000D01*
X99187000Y-70532000D01*
X98933000Y-70532000D01*
X97883750Y-70532000D01*
X97725000Y-70690750D01*
X97721928Y-70917500D01*
X95295903Y-70917500D01*
X95275472Y-70850150D01*
X95193405Y-70696614D01*
X95082962Y-70562038D01*
X94948386Y-70451595D01*
X94794850Y-70369528D01*
X94628254Y-70318992D01*
X94455000Y-70301928D01*
X93505000Y-70301928D01*
X93331746Y-70318992D01*
X93165150Y-70369528D01*
X93011614Y-70451595D01*
X92877038Y-70562038D01*
X92766595Y-70696614D01*
X92684528Y-70850150D01*
X92633992Y-71016746D01*
X92630963Y-71047500D01*
X90019375Y-71047500D01*
X90088405Y-70963387D01*
X90170472Y-70809851D01*
X90221008Y-70643255D01*
X90238072Y-70470001D01*
X90238072Y-69944999D01*
X90221008Y-69771745D01*
X90170472Y-69605149D01*
X90088405Y-69451613D01*
X89977962Y-69317038D01*
X89843387Y-69206595D01*
X89689851Y-69124528D01*
X89523255Y-69073992D01*
X89350001Y-69056928D01*
X89142429Y-69056928D01*
X88443000Y-68357500D01*
X88443000Y-64881079D01*
X88464680Y-64874502D01*
X88574994Y-64815537D01*
X88671685Y-64736185D01*
X88751037Y-64639494D01*
X88810002Y-64529180D01*
X88846312Y-64409482D01*
X88858572Y-64285000D01*
X88858572Y-63635000D01*
X88846312Y-63510518D01*
X88830988Y-63460000D01*
X88846312Y-63409482D01*
X88858572Y-63285000D01*
X88858572Y-62635000D01*
X88846312Y-62510518D01*
X88830988Y-62460000D01*
X88846312Y-62409482D01*
X88858572Y-62285000D01*
X88858572Y-61678696D01*
X88873211Y-61690710D01*
X88985618Y-61782960D01*
X89156735Y-61874424D01*
X89342408Y-61930747D01*
X89433153Y-61939685D01*
X89347040Y-62044614D01*
X89259729Y-62207962D01*
X89255576Y-62215732D01*
X89199253Y-62401405D01*
X89180235Y-62594498D01*
X89185000Y-62642878D01*
X89185001Y-65276610D01*
X89180235Y-65325000D01*
X89199253Y-65518093D01*
X89255576Y-65703766D01*
X89284495Y-65757869D01*
X89347041Y-65874884D01*
X89470131Y-66024870D01*
X89507711Y-66055711D01*
X91004428Y-67552429D01*
X91004428Y-67760001D01*
X91021492Y-67933255D01*
X91072028Y-68099851D01*
X91154095Y-68253387D01*
X91264538Y-68387962D01*
X91399113Y-68498405D01*
X91552649Y-68580472D01*
X91719245Y-68631008D01*
X91892499Y-68648072D01*
X92417501Y-68648072D01*
X92590755Y-68631008D01*
X92757351Y-68580472D01*
X92910887Y-68498405D01*
X93045462Y-68387962D01*
X93067500Y-68361109D01*
X93089538Y-68387962D01*
X93224113Y-68498405D01*
X93377649Y-68580472D01*
X93544245Y-68631008D01*
X93717499Y-68648072D01*
X94242501Y-68648072D01*
X94415755Y-68631008D01*
X94582351Y-68580472D01*
X94735887Y-68498405D01*
X94870462Y-68387962D01*
X94946754Y-68295000D01*
X97382000Y-68295000D01*
X97721928Y-68634928D01*
X97721928Y-68842501D01*
X97738992Y-69015755D01*
X97789528Y-69182351D01*
X97871595Y-69335887D01*
X97938276Y-69417137D01*
X97908815Y-69441315D01*
X97829463Y-69538006D01*
X97770498Y-69648320D01*
X97734188Y-69768018D01*
X97721928Y-69892500D01*
X97725000Y-70119250D01*
X97883750Y-70278000D01*
X98933000Y-70278000D01*
X98933000Y-70258000D01*
X99187000Y-70258000D01*
X99187000Y-70278000D01*
X100236250Y-70278000D01*
X100395000Y-70119250D01*
X100398072Y-69892500D01*
X100385812Y-69768018D01*
X100349502Y-69648320D01*
X100290537Y-69538006D01*
X100211185Y-69441315D01*
X100181724Y-69417137D01*
X100248405Y-69335887D01*
X100330472Y-69182351D01*
X100381008Y-69015755D01*
X100398072Y-68842501D01*
X100398072Y-68760000D01*
X104046928Y-68760000D01*
X104059188Y-68884482D01*
X104095498Y-69004180D01*
X104154463Y-69114494D01*
X104233815Y-69211185D01*
X104330506Y-69290537D01*
X104440820Y-69349502D01*
X104560518Y-69385812D01*
X104685000Y-69398072D01*
X105124250Y-69395000D01*
X105283000Y-69236250D01*
X105283000Y-68387000D01*
X105537000Y-68387000D01*
X105537000Y-69236250D01*
X105695750Y-69395000D01*
X106135000Y-69398072D01*
X106259482Y-69385812D01*
X106379180Y-69349502D01*
X106489494Y-69290537D01*
X106586185Y-69211185D01*
X106665537Y-69114494D01*
X106724502Y-69004180D01*
X106760812Y-68884482D01*
X106773072Y-68760000D01*
X106770000Y-68545750D01*
X106611250Y-68387000D01*
X105537000Y-68387000D01*
X105283000Y-68387000D01*
X104208750Y-68387000D01*
X104050000Y-68545750D01*
X104046928Y-68760000D01*
X100398072Y-68760000D01*
X100398072Y-68317499D01*
X100381008Y-68144245D01*
X100330472Y-67977649D01*
X100248405Y-67824113D01*
X100137962Y-67689538D01*
X100003387Y-67579095D01*
X99849851Y-67497028D01*
X99683255Y-67446492D01*
X99510001Y-67429428D01*
X99302428Y-67429428D01*
X98520716Y-66647716D01*
X98489870Y-66610130D01*
X98339884Y-66487040D01*
X98168767Y-66395576D01*
X97983094Y-66339253D01*
X97838380Y-66325000D01*
X97790000Y-66320235D01*
X97741620Y-66325000D01*
X94965000Y-66325000D01*
X94965000Y-65106377D01*
X94969765Y-65057999D01*
X94965000Y-65009620D01*
X94950747Y-64864906D01*
X94894424Y-64679233D01*
X94802960Y-64508116D01*
X94679870Y-64358130D01*
X94642284Y-64327284D01*
X94282572Y-63967572D01*
X94282572Y-63945000D01*
X97909849Y-63945000D01*
X97982038Y-64032962D01*
X98116613Y-64143405D01*
X98270149Y-64225472D01*
X98436745Y-64276008D01*
X98609999Y-64293072D01*
X99510001Y-64293072D01*
X99683255Y-64276008D01*
X99849851Y-64225472D01*
X100003387Y-64143405D01*
X100022767Y-64127500D01*
X104391771Y-64127500D01*
X104425000Y-64154771D01*
X104425001Y-65385229D01*
X104307038Y-65482038D01*
X104196595Y-65616614D01*
X104114528Y-65770150D01*
X104063992Y-65936746D01*
X104046928Y-66110000D01*
X104046928Y-66610000D01*
X104063992Y-66783254D01*
X104114528Y-66949850D01*
X104196595Y-67103386D01*
X104307038Y-67237962D01*
X104313594Y-67243342D01*
X104233815Y-67308815D01*
X104154463Y-67405506D01*
X104095498Y-67515820D01*
X104059188Y-67635518D01*
X104046928Y-67760000D01*
X104050000Y-67974250D01*
X104208750Y-68133000D01*
X105283000Y-68133000D01*
X105283000Y-68113000D01*
X105537000Y-68113000D01*
X105537000Y-68133000D01*
X106611250Y-68133000D01*
X106770000Y-67974250D01*
X106773072Y-67760000D01*
X106760812Y-67635518D01*
X106724502Y-67515820D01*
X106665537Y-67405506D01*
X106615881Y-67345000D01*
X110069773Y-67345000D01*
X110147631Y-67439870D01*
X110185211Y-67470711D01*
X111956789Y-69242290D01*
X111987630Y-69279870D01*
X112137616Y-69402960D01*
X112265346Y-69471233D01*
X112308733Y-69494424D01*
X112494406Y-69550747D01*
X112687500Y-69569765D01*
X112735880Y-69565000D01*
X118972000Y-69565000D01*
X119527928Y-70120928D01*
X119527928Y-71350000D01*
X119540188Y-71474482D01*
X119576498Y-71594180D01*
X119635463Y-71704494D01*
X119714815Y-71801185D01*
X119811506Y-71880537D01*
X119921820Y-71939502D01*
X120041518Y-71975812D01*
X120166000Y-71988072D01*
X121395072Y-71988072D01*
X124865001Y-75458002D01*
X124865001Y-79983021D01*
X124586912Y-79867832D01*
X124271033Y-79805000D01*
X123948967Y-79805000D01*
X123633088Y-79867832D01*
X123335537Y-79991082D01*
X123067748Y-80170013D01*
X122840013Y-80397748D01*
X122676085Y-80643084D01*
X115030716Y-72997716D01*
X114999870Y-72960130D01*
X114849884Y-72837040D01*
X114678767Y-72745576D01*
X114493094Y-72689253D01*
X114348380Y-72675000D01*
X114300000Y-72670235D01*
X114251620Y-72675000D01*
X113239888Y-72675000D01*
X113188938Y-72633186D01*
X113130000Y-72601683D01*
X113130000Y-72557998D01*
X113048269Y-72557998D01*
X113043010Y-72555187D01*
X113000852Y-72542398D01*
X113130000Y-72413250D01*
X113118863Y-72311094D01*
X113080752Y-72191958D01*
X113020131Y-72082545D01*
X112939329Y-71987062D01*
X112841452Y-71909177D01*
X112730261Y-71851883D01*
X112610029Y-71817382D01*
X112485377Y-71807001D01*
X112045750Y-71810000D01*
X111887000Y-71968750D01*
X111887000Y-72456928D01*
X111633000Y-72456928D01*
X111633000Y-71968750D01*
X111474250Y-71810000D01*
X111034623Y-71807001D01*
X110909971Y-71817382D01*
X110789739Y-71851883D01*
X110678548Y-71909177D01*
X110580671Y-71987062D01*
X110499869Y-72082545D01*
X110439248Y-72191958D01*
X110401137Y-72311094D01*
X110390000Y-72413250D01*
X110471750Y-72495000D01*
X108833072Y-72495000D01*
X108833072Y-72445000D01*
X108820812Y-72320518D01*
X108784502Y-72200820D01*
X108725537Y-72090506D01*
X108646185Y-71993815D01*
X108549494Y-71914463D01*
X108439180Y-71855498D01*
X108319482Y-71819188D01*
X108195000Y-71806928D01*
X108113322Y-71806928D01*
X108009884Y-71722039D01*
X107838767Y-71630575D01*
X107653094Y-71574252D01*
X107508380Y-71559999D01*
X102503381Y-71559999D01*
X102455001Y-71555234D01*
X102406621Y-71559999D01*
X102261907Y-71574252D01*
X102076234Y-71630575D01*
X101905117Y-71722039D01*
X101755131Y-71845129D01*
X101724290Y-71882709D01*
X96390072Y-77216928D01*
X95445000Y-77216928D01*
X95271746Y-77233992D01*
X95105150Y-77284528D01*
X94951614Y-77366595D01*
X94817038Y-77477038D01*
X94706595Y-77611614D01*
X94629953Y-77755000D01*
X90782586Y-77755000D01*
X90704792Y-77660208D01*
X90571164Y-77550542D01*
X90418709Y-77469053D01*
X90253285Y-77418872D01*
X90081250Y-77401928D01*
X89593750Y-77401928D01*
X89421715Y-77418872D01*
X89256291Y-77469053D01*
X89103836Y-77550542D01*
X88970208Y-77660208D01*
X88900000Y-77745756D01*
X88829792Y-77660208D01*
X88696164Y-77550542D01*
X88543709Y-77469053D01*
X88378285Y-77418872D01*
X88206250Y-77401928D01*
X87718750Y-77401928D01*
X87546715Y-77418872D01*
X87381291Y-77469053D01*
X87228836Y-77550542D01*
X87095208Y-77660208D01*
X86985542Y-77793836D01*
X86904053Y-77946291D01*
X86853872Y-78111715D01*
X86836928Y-78283750D01*
X86836928Y-79196250D01*
X86853872Y-79368285D01*
X86904053Y-79533709D01*
X86977500Y-79671119D01*
X86977501Y-85005053D01*
X86886746Y-85013992D01*
X86720150Y-85064528D01*
X86566614Y-85146595D01*
X86432038Y-85257038D01*
X86426658Y-85263594D01*
X86361185Y-85183815D01*
X86264494Y-85104463D01*
X86154180Y-85045498D01*
X86034482Y-85009188D01*
X85910000Y-84996928D01*
X85695750Y-85000000D01*
X85537000Y-85158750D01*
X85537000Y-86233000D01*
X85557000Y-86233000D01*
X85557000Y-86487000D01*
X85537000Y-86487000D01*
X85537000Y-87561250D01*
X85695750Y-87720000D01*
X85910000Y-87723072D01*
X86034482Y-87710812D01*
X86154180Y-87674502D01*
X86264494Y-87615537D01*
X86361185Y-87536185D01*
X86426658Y-87456406D01*
X86432038Y-87462962D01*
X86566614Y-87573405D01*
X86720150Y-87655472D01*
X86886746Y-87706008D01*
X87060000Y-87723072D01*
X87560000Y-87723072D01*
X87733254Y-87706008D01*
X87899850Y-87655472D01*
X88053386Y-87573405D01*
X88187962Y-87462962D01*
X88284770Y-87345000D01*
X91350750Y-87345000D01*
X91508750Y-87503000D01*
X92583000Y-87503000D01*
X92583000Y-87483000D01*
X92837000Y-87483000D01*
X92837000Y-87503000D01*
X93911250Y-87503000D01*
X94070000Y-87344250D01*
X94073072Y-87130000D01*
X94060812Y-87005518D01*
X94024502Y-86885820D01*
X93965537Y-86775506D01*
X93915881Y-86715000D01*
X97396999Y-86715000D01*
X98230000Y-87548001D01*
X98229999Y-88266620D01*
X98225234Y-88315001D01*
X98229999Y-88363380D01*
X98244252Y-88508094D01*
X98300575Y-88693767D01*
X98392039Y-88864885D01*
X98515129Y-89014871D01*
X98552717Y-89045718D01*
X98594280Y-89087282D01*
X98625129Y-89124871D01*
X98775115Y-89247961D01*
X98946232Y-89339425D01*
X99131905Y-89395748D01*
X99276619Y-89410001D01*
X99276621Y-89410001D01*
X99324998Y-89414766D01*
X99373376Y-89410001D01*
X100040120Y-89410001D01*
X99985131Y-89455129D01*
X99862041Y-89605115D01*
X99770577Y-89776232D01*
X99714254Y-89961905D01*
X99703312Y-90073004D01*
X99680000Y-90075299D01*
X99595000Y-90066928D01*
X99115000Y-90066928D01*
X98990518Y-90079188D01*
X98870820Y-90115498D01*
X98760506Y-90174463D01*
X98663815Y-90253815D01*
X98584463Y-90350506D01*
X98525498Y-90460820D01*
X98489188Y-90580518D01*
X98476928Y-90705000D01*
X98476928Y-90785070D01*
X96040007Y-93221992D01*
X95898254Y-93178992D01*
X95725000Y-93161928D01*
X94775000Y-93161928D01*
X94601746Y-93178992D01*
X94435150Y-93229528D01*
X94281614Y-93311595D01*
X94262234Y-93327500D01*
X89831118Y-93327500D01*
X89693709Y-93254053D01*
X89528285Y-93203872D01*
X89356250Y-93186928D01*
X89167429Y-93186928D01*
X84218216Y-88237716D01*
X84187370Y-88200130D01*
X84101917Y-88130000D01*
X91346928Y-88130000D01*
X91359188Y-88254482D01*
X91395498Y-88374180D01*
X91454463Y-88484494D01*
X91533815Y-88581185D01*
X91630506Y-88660537D01*
X91740820Y-88719502D01*
X91860518Y-88755812D01*
X91985000Y-88768072D01*
X92424250Y-88765000D01*
X92583000Y-88606250D01*
X92583000Y-87757000D01*
X92837000Y-87757000D01*
X92837000Y-88606250D01*
X92995750Y-88765000D01*
X93435000Y-88768072D01*
X93559482Y-88755812D01*
X93679180Y-88719502D01*
X93789494Y-88660537D01*
X93886185Y-88581185D01*
X93965537Y-88484494D01*
X94024502Y-88374180D01*
X94060812Y-88254482D01*
X94073072Y-88130000D01*
X94070000Y-87915750D01*
X93911250Y-87757000D01*
X92837000Y-87757000D01*
X92583000Y-87757000D01*
X91508750Y-87757000D01*
X91350000Y-87915750D01*
X91346928Y-88130000D01*
X84101917Y-88130000D01*
X84037384Y-88077040D01*
X83866267Y-87985576D01*
X83680594Y-87929253D01*
X83535880Y-87915000D01*
X83487500Y-87910235D01*
X83439120Y-87915000D01*
X78338072Y-87915000D01*
X78338072Y-87400000D01*
X78325812Y-87275518D01*
X78289502Y-87155820D01*
X78251648Y-87085000D01*
X84271928Y-87085000D01*
X84284188Y-87209482D01*
X84320498Y-87329180D01*
X84379463Y-87439494D01*
X84458815Y-87536185D01*
X84555506Y-87615537D01*
X84665820Y-87674502D01*
X84785518Y-87710812D01*
X84910000Y-87723072D01*
X85124250Y-87720000D01*
X85283000Y-87561250D01*
X85283000Y-86487000D01*
X84433750Y-86487000D01*
X84275000Y-86645750D01*
X84271928Y-87085000D01*
X78251648Y-87085000D01*
X78230537Y-87045506D01*
X78151185Y-86948815D01*
X78054494Y-86869463D01*
X77944180Y-86810498D01*
X77824482Y-86774188D01*
X77700000Y-86761928D01*
X74700000Y-86761928D01*
X74575518Y-86774188D01*
X74455820Y-86810498D01*
X74345506Y-86869463D01*
X74248815Y-86948815D01*
X74169463Y-87045506D01*
X74110498Y-87155820D01*
X74074188Y-87275518D01*
X74061928Y-87400000D01*
X74061928Y-90400000D01*
X74074188Y-90524482D01*
X74110498Y-90644180D01*
X74169463Y-90754494D01*
X74248815Y-90851185D01*
X74345506Y-90930537D01*
X74455820Y-90989502D01*
X74575518Y-91025812D01*
X74700000Y-91038072D01*
X77700000Y-91038072D01*
X77824482Y-91025812D01*
X77944180Y-90989502D01*
X78054494Y-90930537D01*
X78151185Y-90851185D01*
X78230537Y-90754494D01*
X78289502Y-90644180D01*
X78325812Y-90524482D01*
X78338072Y-90400000D01*
X78338072Y-89885000D01*
X83079500Y-89885000D01*
X87561928Y-94367429D01*
X87561928Y-94556250D01*
X87578872Y-94728285D01*
X87629053Y-94893709D01*
X87710542Y-95046164D01*
X87820208Y-95179792D01*
X87826564Y-95185008D01*
X87748815Y-95248815D01*
X87669463Y-95345506D01*
X87610498Y-95455820D01*
X87574188Y-95575518D01*
X87561928Y-95700000D01*
X87565000Y-95901750D01*
X87723750Y-96060500D01*
X88773000Y-96060500D01*
X88773000Y-96040500D01*
X89027000Y-96040500D01*
X89027000Y-96060500D01*
X90076250Y-96060500D01*
X90235000Y-95901750D01*
X90238072Y-95700000D01*
X90225812Y-95575518D01*
X90189502Y-95455820D01*
X90130537Y-95345506D01*
X90091140Y-95297500D01*
X94033860Y-95297500D01*
X93994463Y-95345506D01*
X93935498Y-95455820D01*
X93899188Y-95575518D01*
X93886928Y-95700000D01*
X93890000Y-95914250D01*
X94048750Y-96073000D01*
X95123000Y-96073000D01*
X95123000Y-96053000D01*
X95377000Y-96053000D01*
X95377000Y-96073000D01*
X96451250Y-96073000D01*
X96610000Y-95914250D01*
X96613072Y-95700000D01*
X96600812Y-95575518D01*
X96564502Y-95455820D01*
X96505537Y-95345506D01*
X96451955Y-95280216D01*
X96548093Y-95270747D01*
X96733766Y-95214424D01*
X96904883Y-95122960D01*
X97054869Y-94999870D01*
X97085715Y-94962284D01*
X99165001Y-92882999D01*
X99165001Y-93613737D01*
X99160937Y-93655000D01*
X99165001Y-93696263D01*
X99165001Y-93696264D01*
X99177155Y-93819669D01*
X99200527Y-93896715D01*
X99225188Y-93978009D01*
X99303186Y-94123936D01*
X99377481Y-94214463D01*
X99408158Y-94251843D01*
X99440208Y-94278146D01*
X99961928Y-94799867D01*
X99961928Y-96250000D01*
X99974188Y-96374482D01*
X100010498Y-96494180D01*
X100069463Y-96604494D01*
X100148815Y-96701185D01*
X100245506Y-96780537D01*
X100355820Y-96839502D01*
X100475518Y-96875812D01*
X100600000Y-96888072D01*
X102600000Y-96888072D01*
X102724482Y-96875812D01*
X102844180Y-96839502D01*
X102954494Y-96780537D01*
X103051185Y-96701185D01*
X103130537Y-96604494D01*
X103189502Y-96494180D01*
X103225812Y-96374482D01*
X103238072Y-96250000D01*
X103238072Y-94250000D01*
X103225812Y-94125518D01*
X103189502Y-94005820D01*
X103130537Y-93895506D01*
X103051185Y-93798815D01*
X102954494Y-93719463D01*
X102844180Y-93660498D01*
X102724482Y-93624188D01*
X102600000Y-93611928D01*
X101149867Y-93611928D01*
X100845000Y-93307062D01*
X100845000Y-92813072D01*
X100895000Y-92813072D01*
X100980000Y-92804701D01*
X101065000Y-92813072D01*
X101545000Y-92813072D01*
X101669482Y-92800812D01*
X101789180Y-92764502D01*
X101899494Y-92705537D01*
X101996185Y-92626185D01*
X102075537Y-92529494D01*
X102134502Y-92419180D01*
X102170812Y-92299482D01*
X102183072Y-92175000D01*
X102183072Y-91139999D01*
X104986999Y-91139999D01*
X105529428Y-91682429D01*
X105529428Y-91890001D01*
X105546492Y-92063255D01*
X105597028Y-92229851D01*
X105679095Y-92383387D01*
X105789538Y-92517962D01*
X105924113Y-92628405D01*
X106077649Y-92710472D01*
X106244245Y-92761008D01*
X106417499Y-92778072D01*
X106942501Y-92778072D01*
X107115755Y-92761008D01*
X107282351Y-92710472D01*
X107435887Y-92628405D01*
X107517137Y-92561724D01*
X107541315Y-92591185D01*
X107638006Y-92670537D01*
X107748320Y-92729502D01*
X107868018Y-92765812D01*
X107992500Y-92778072D01*
X108219250Y-92775000D01*
X108378000Y-92616250D01*
X108378000Y-91567000D01*
X108632000Y-91567000D01*
X108632000Y-92616250D01*
X108790750Y-92775000D01*
X109017500Y-92778072D01*
X109141982Y-92765812D01*
X109261680Y-92729502D01*
X109371994Y-92670537D01*
X109468685Y-92591185D01*
X109548037Y-92494494D01*
X109607002Y-92384180D01*
X109643312Y-92264482D01*
X109655572Y-92140000D01*
X109652500Y-91725750D01*
X109493750Y-91567000D01*
X108632000Y-91567000D01*
X108378000Y-91567000D01*
X108358000Y-91567000D01*
X108358000Y-91313000D01*
X108378000Y-91313000D01*
X108378000Y-90263750D01*
X108632000Y-90263750D01*
X108632000Y-91313000D01*
X109493750Y-91313000D01*
X109652500Y-91154250D01*
X109655572Y-90740000D01*
X109643312Y-90615518D01*
X109607002Y-90495820D01*
X109548037Y-90385506D01*
X109468685Y-90288815D01*
X109371994Y-90209463D01*
X109261680Y-90150498D01*
X109141982Y-90114188D01*
X109017500Y-90101928D01*
X108790750Y-90105000D01*
X108632000Y-90263750D01*
X108378000Y-90263750D01*
X108219250Y-90105000D01*
X107992500Y-90101928D01*
X107868018Y-90114188D01*
X107748320Y-90150498D01*
X107638006Y-90209463D01*
X107541315Y-90288815D01*
X107517137Y-90318276D01*
X107435887Y-90251595D01*
X107282351Y-90169528D01*
X107115755Y-90118992D01*
X106942501Y-90101928D01*
X106734929Y-90101928D01*
X106125714Y-89492714D01*
X106094869Y-89455129D01*
X105944883Y-89332039D01*
X105773766Y-89240575D01*
X105588093Y-89184252D01*
X105443379Y-89169999D01*
X105394999Y-89165234D01*
X105346619Y-89169999D01*
X103989880Y-89169999D01*
X104044869Y-89124871D01*
X104075715Y-89087285D01*
X107348000Y-85815000D01*
X110941928Y-85815000D01*
X110954188Y-85939482D01*
X110990498Y-86059180D01*
X111049463Y-86169494D01*
X111128815Y-86266185D01*
X111225506Y-86345537D01*
X111335820Y-86404502D01*
X111455518Y-86440812D01*
X111580000Y-86453072D01*
X111794250Y-86450000D01*
X111953000Y-86291250D01*
X111953000Y-85217000D01*
X111103750Y-85217000D01*
X110945000Y-85375750D01*
X110941928Y-85815000D01*
X107348000Y-85815000D01*
X108192429Y-84970572D01*
X108400001Y-84970572D01*
X108573255Y-84953508D01*
X108739851Y-84902972D01*
X108893387Y-84820905D01*
X109027962Y-84710462D01*
X109138405Y-84575887D01*
X109220472Y-84422351D01*
X109237869Y-84365000D01*
X110941928Y-84365000D01*
X110945000Y-84804250D01*
X111103750Y-84963000D01*
X111953000Y-84963000D01*
X111953000Y-83888750D01*
X111794250Y-83730000D01*
X111580000Y-83726928D01*
X111455518Y-83739188D01*
X111335820Y-83775498D01*
X111225506Y-83834463D01*
X111128815Y-83913815D01*
X111049463Y-84010506D01*
X110990498Y-84120820D01*
X110954188Y-84240518D01*
X110941928Y-84365000D01*
X109237869Y-84365000D01*
X109271008Y-84255755D01*
X109288072Y-84082501D01*
X109288072Y-83557499D01*
X109271008Y-83384245D01*
X109220472Y-83217649D01*
X109138405Y-83064113D01*
X109027962Y-82929538D01*
X109001109Y-82907500D01*
X109027962Y-82885462D01*
X109138405Y-82750887D01*
X109220472Y-82597351D01*
X109271008Y-82430755D01*
X109288072Y-82257501D01*
X109288072Y-81824354D01*
X109338815Y-81886185D01*
X109435506Y-81965537D01*
X109545820Y-82024502D01*
X109665518Y-82060812D01*
X109790000Y-82073072D01*
X110204250Y-82070000D01*
X110363000Y-81911250D01*
X110363000Y-81049500D01*
X110617000Y-81049500D01*
X110617000Y-81911250D01*
X110775750Y-82070000D01*
X111190000Y-82073072D01*
X111314482Y-82060812D01*
X111434180Y-82024502D01*
X111544494Y-81965537D01*
X111641185Y-81886185D01*
X111720537Y-81789494D01*
X111779502Y-81679180D01*
X111815812Y-81559482D01*
X111828072Y-81435000D01*
X111825000Y-81208250D01*
X111666250Y-81049500D01*
X110617000Y-81049500D01*
X110363000Y-81049500D01*
X110343000Y-81049500D01*
X110343000Y-80795500D01*
X110363000Y-80795500D01*
X110363000Y-80775500D01*
X110617000Y-80775500D01*
X110617000Y-80795500D01*
X111666250Y-80795500D01*
X111825000Y-80636750D01*
X111828072Y-80410000D01*
X111815812Y-80285518D01*
X111779502Y-80165820D01*
X111720537Y-80055506D01*
X111641185Y-79958815D01*
X111611724Y-79934637D01*
X111678405Y-79853387D01*
X111760472Y-79699851D01*
X111811008Y-79533255D01*
X111828072Y-79360001D01*
X111828072Y-78834999D01*
X111811008Y-78661745D01*
X111760472Y-78495149D01*
X111678405Y-78341613D01*
X111567962Y-78207038D01*
X111475000Y-78130746D01*
X111475000Y-75883001D01*
X113315001Y-77723002D01*
X113315001Y-78130746D01*
X113222038Y-78207038D01*
X113111595Y-78341613D01*
X113029528Y-78495149D01*
X112978992Y-78661745D01*
X112961928Y-78834999D01*
X112961928Y-79360001D01*
X112978992Y-79533255D01*
X113029528Y-79699851D01*
X113111595Y-79853387D01*
X113222038Y-79987962D01*
X113248891Y-80010000D01*
X113222038Y-80032038D01*
X113111595Y-80166613D01*
X113029528Y-80320149D01*
X112978992Y-80486745D01*
X112961928Y-80659999D01*
X112961928Y-81185001D01*
X112978992Y-81358255D01*
X113029528Y-81524851D01*
X113111595Y-81678387D01*
X113222038Y-81812962D01*
X113315000Y-81889254D01*
X113315001Y-83834696D01*
X113236614Y-83876595D01*
X113102038Y-83987038D01*
X113096658Y-83993594D01*
X113031185Y-83913815D01*
X112934494Y-83834463D01*
X112824180Y-83775498D01*
X112704482Y-83739188D01*
X112580000Y-83726928D01*
X112365750Y-83730000D01*
X112207000Y-83888750D01*
X112207000Y-84963000D01*
X112227000Y-84963000D01*
X112227000Y-85217000D01*
X112207000Y-85217000D01*
X112207000Y-86291250D01*
X112365750Y-86450000D01*
X112580000Y-86453072D01*
X112704482Y-86440812D01*
X112824180Y-86404502D01*
X112934494Y-86345537D01*
X113031185Y-86266185D01*
X113096658Y-86186406D01*
X113102038Y-86192962D01*
X113236614Y-86303405D01*
X113390150Y-86385472D01*
X113556746Y-86436008D01*
X113730000Y-86453072D01*
X114230000Y-86453072D01*
X114403254Y-86436008D01*
X114569850Y-86385472D01*
X114723386Y-86303405D01*
X114857962Y-86192962D01*
X114968405Y-86058386D01*
X115050472Y-85904850D01*
X115101008Y-85738254D01*
X115118072Y-85565000D01*
X115118072Y-85325840D01*
X115122960Y-85319884D01*
X115214424Y-85148767D01*
X115270747Y-84963094D01*
X115276268Y-84907040D01*
X115289765Y-84770001D01*
X115285000Y-84721621D01*
X115285000Y-81889254D01*
X115377962Y-81812962D01*
X115488405Y-81678387D01*
X115570472Y-81524851D01*
X115621008Y-81358255D01*
X115628817Y-81278967D01*
X116475000Y-81278967D01*
X116475000Y-81601033D01*
X116537832Y-81916912D01*
X116661082Y-82214463D01*
X116840013Y-82482252D01*
X117067748Y-82709987D01*
X117335537Y-82888918D01*
X117633088Y-83012168D01*
X117948967Y-83075000D01*
X118271033Y-83075000D01*
X118424586Y-83044457D01*
X118375000Y-83293740D01*
X118375000Y-83586260D01*
X118432068Y-83873158D01*
X118544010Y-84143411D01*
X118706525Y-84386632D01*
X118913368Y-84593475D01*
X119156589Y-84755990D01*
X119426842Y-84867932D01*
X119713740Y-84925000D01*
X120006260Y-84925000D01*
X120293158Y-84867932D01*
X120563411Y-84755990D01*
X120806632Y-84593475D01*
X121013475Y-84386632D01*
X121175990Y-84143411D01*
X121287932Y-83873158D01*
X121345000Y-83586260D01*
X121345000Y-83293740D01*
X121287932Y-83006842D01*
X121175990Y-82736589D01*
X121013475Y-82493368D01*
X120806632Y-82286525D01*
X120563411Y-82124010D01*
X120293158Y-82012068D01*
X120006260Y-81955000D01*
X119713740Y-81955000D01*
X119662140Y-81965264D01*
X119682168Y-81916912D01*
X119745000Y-81601033D01*
X119745000Y-81278967D01*
X119682168Y-80963088D01*
X119558918Y-80665537D01*
X119379987Y-80397748D01*
X119152252Y-80170013D01*
X118884463Y-79991082D01*
X118586912Y-79867832D01*
X118271033Y-79805000D01*
X117948967Y-79805000D01*
X117633088Y-79867832D01*
X117335537Y-79991082D01*
X117067748Y-80170013D01*
X116840013Y-80397748D01*
X116661082Y-80665537D01*
X116537832Y-80963088D01*
X116475000Y-81278967D01*
X115628817Y-81278967D01*
X115638072Y-81185001D01*
X115638072Y-80659999D01*
X115621008Y-80486745D01*
X115570472Y-80320149D01*
X115488405Y-80166613D01*
X115377962Y-80032038D01*
X115351109Y-80010000D01*
X115377962Y-79987962D01*
X115488405Y-79853387D01*
X115570472Y-79699851D01*
X115621008Y-79533255D01*
X115638072Y-79360001D01*
X115638072Y-78834999D01*
X115621008Y-78661745D01*
X115570472Y-78495149D01*
X115488405Y-78341613D01*
X115377962Y-78207038D01*
X115285000Y-78130746D01*
X115285000Y-77363378D01*
X115289765Y-77315000D01*
X115285000Y-77266621D01*
X115270747Y-77121907D01*
X115214424Y-76936234D01*
X115122960Y-76765117D01*
X114999870Y-76615131D01*
X114962284Y-76584285D01*
X113133072Y-74755073D01*
X113133072Y-74645000D01*
X113892000Y-74645000D01*
X121574999Y-82328000D01*
X121575000Y-84332000D01*
X119952000Y-85955000D01*
X119713740Y-85955000D01*
X119426842Y-86012068D01*
X119156589Y-86124010D01*
X118913368Y-86286525D01*
X118706525Y-86493368D01*
X118544010Y-86736589D01*
X118432068Y-87006842D01*
X118375000Y-87293740D01*
X118375000Y-87586260D01*
X118432068Y-87873158D01*
X118544010Y-88143411D01*
X118706525Y-88386632D01*
X118913368Y-88593475D01*
X119156589Y-88755990D01*
X119426842Y-88867932D01*
X119713740Y-88925000D01*
X120006260Y-88925000D01*
X120293158Y-88867932D01*
X120563411Y-88755990D01*
X120806632Y-88593475D01*
X121013475Y-88386632D01*
X121175990Y-88143411D01*
X121287932Y-87873158D01*
X121345000Y-87586260D01*
X121345000Y-87348000D01*
X123222283Y-85470717D01*
X123259869Y-85439871D01*
X123382959Y-85289885D01*
X123474423Y-85118768D01*
X123521646Y-84963094D01*
X123530746Y-84933096D01*
X123549764Y-84740002D01*
X123544999Y-84691622D01*
X123544999Y-82975680D01*
X123633088Y-83012168D01*
X123948967Y-83075000D01*
X124271033Y-83075000D01*
X124586912Y-83012168D01*
X124865002Y-82896979D01*
X124865002Y-85041997D01*
X119952000Y-89955000D01*
X119713740Y-89955000D01*
X119426842Y-90012068D01*
X119156589Y-90124010D01*
X118913368Y-90286525D01*
X118706525Y-90493368D01*
X118544010Y-90736589D01*
X118432068Y-91006842D01*
X118375000Y-91293740D01*
X118375000Y-91586260D01*
X118424586Y-91835543D01*
X118271033Y-91805000D01*
X117948967Y-91805000D01*
X117633088Y-91867832D01*
X117335537Y-91991082D01*
X117067748Y-92170013D01*
X116840013Y-92397748D01*
X116661082Y-92665537D01*
X116537832Y-92963088D01*
X116475000Y-93278967D01*
X116475000Y-93601033D01*
X116537832Y-93916912D01*
X116661082Y-94214463D01*
X116840013Y-94482252D01*
X117067748Y-94709987D01*
X117335537Y-94888918D01*
X117633088Y-95012168D01*
X117948967Y-95075000D01*
X118271033Y-95075000D01*
X118586912Y-95012168D01*
X118884463Y-94888918D01*
X119152252Y-94709987D01*
X119379987Y-94482252D01*
X119558918Y-94214463D01*
X119682168Y-93916912D01*
X119745000Y-93601033D01*
X119745000Y-93278967D01*
X122475000Y-93278967D01*
X122475000Y-93601033D01*
X122537832Y-93916912D01*
X122661082Y-94214463D01*
X122840013Y-94482252D01*
X123067748Y-94709987D01*
X123335537Y-94888918D01*
X123633088Y-95012168D01*
X123948967Y-95075000D01*
X124271033Y-95075000D01*
X124586912Y-95012168D01*
X124884463Y-94888918D01*
X125152252Y-94709987D01*
X125379987Y-94482252D01*
X125558918Y-94214463D01*
X125682168Y-93916912D01*
X125745000Y-93601033D01*
X125745000Y-93278967D01*
X125682168Y-92963088D01*
X125558918Y-92665537D01*
X125379987Y-92397748D01*
X125152252Y-92170013D01*
X124884463Y-91991082D01*
X124586912Y-91867832D01*
X124271033Y-91805000D01*
X123948967Y-91805000D01*
X123633088Y-91867832D01*
X123335537Y-91991082D01*
X123067748Y-92170013D01*
X122840013Y-92397748D01*
X122661082Y-92665537D01*
X122537832Y-92963088D01*
X122475000Y-93278967D01*
X119745000Y-93278967D01*
X119682168Y-92963088D01*
X119662140Y-92914736D01*
X119713740Y-92925000D01*
X120006260Y-92925000D01*
X120293158Y-92867932D01*
X120563411Y-92755990D01*
X120806632Y-92593475D01*
X121013475Y-92386632D01*
X121175990Y-92143411D01*
X121287932Y-91873158D01*
X121345000Y-91586260D01*
X121345000Y-91348000D01*
X126512291Y-86180710D01*
X126549871Y-86149869D01*
X126672961Y-85999883D01*
X126764425Y-85828766D01*
X126820748Y-85643093D01*
X126835001Y-85498379D01*
X126839766Y-85449999D01*
X126835001Y-85401619D01*
X126835001Y-75098381D01*
X126839766Y-75050001D01*
X126820748Y-74856907D01*
X126764425Y-74671234D01*
X126756025Y-74655518D01*
X126672961Y-74500117D01*
X126549871Y-74350131D01*
X126512291Y-74319290D01*
X123762875Y-71569875D01*
X123791812Y-71474482D01*
X123804072Y-71350000D01*
X123804072Y-68350000D01*
X123791812Y-68225518D01*
X123755502Y-68105820D01*
X123696537Y-67995506D01*
X123617185Y-67898815D01*
X123520494Y-67819463D01*
X123410180Y-67760498D01*
X123290482Y-67724188D01*
X123166000Y-67711928D01*
X120166000Y-67711928D01*
X120041518Y-67724188D01*
X119930784Y-67757779D01*
X119929884Y-67757040D01*
X119758767Y-67665576D01*
X119573094Y-67609253D01*
X119428380Y-67595000D01*
X119380000Y-67590235D01*
X119331620Y-67595000D01*
X113095501Y-67595000D01*
X112878573Y-67378072D01*
X112935001Y-67378072D01*
X113108255Y-67361008D01*
X113274851Y-67310472D01*
X113428387Y-67228405D01*
X113562962Y-67117962D01*
X113673405Y-66983387D01*
X113755472Y-66829851D01*
X113806008Y-66663255D01*
X113823072Y-66490001D01*
X113823072Y-65589999D01*
X113806008Y-65416745D01*
X113755472Y-65250149D01*
X113673405Y-65096613D01*
X113657500Y-65077233D01*
X113657500Y-63248229D01*
X113698405Y-63198386D01*
X113780472Y-63044850D01*
X113831008Y-62878254D01*
X113848072Y-62705000D01*
X113848072Y-61755000D01*
X113831008Y-61581746D01*
X113780472Y-61415150D01*
X113698405Y-61261614D01*
X113695000Y-61257465D01*
X113695000Y-59917998D01*
X114402998Y-59210000D01*
X115241928Y-59210000D01*
X115254188Y-59334482D01*
X115290498Y-59454180D01*
X115349463Y-59564494D01*
X115428815Y-59661185D01*
X115525506Y-59740537D01*
X115635820Y-59799502D01*
X115755518Y-59835812D01*
X115880000Y-59848072D01*
X116394250Y-59845000D01*
X116553000Y-59686250D01*
X116553000Y-59032000D01*
X115403750Y-59032000D01*
X115245000Y-59190750D01*
X115241928Y-59210000D01*
X114402998Y-59210000D01*
X115328759Y-58284239D01*
X115290498Y-58355820D01*
X115254188Y-58475518D01*
X115241928Y-58600000D01*
X115245000Y-58619250D01*
X115403750Y-58778000D01*
X116553000Y-58778000D01*
X116553000Y-57762000D01*
X116533000Y-57762000D01*
X116533000Y-57508000D01*
X116553000Y-57508000D01*
X116553000Y-57488000D01*
X116807000Y-57488000D01*
X116807000Y-57508000D01*
X116827000Y-57508000D01*
X116827000Y-57762000D01*
X116807000Y-57762000D01*
X116807000Y-58778000D01*
X116827000Y-58778000D01*
X116827000Y-59032000D01*
X116807000Y-59032000D01*
X116807000Y-59686250D01*
X116965750Y-59845000D01*
X117480000Y-59848072D01*
X117604482Y-59835812D01*
X117724180Y-59799502D01*
X117834494Y-59740537D01*
X117917592Y-59672341D01*
X117945518Y-59680812D01*
X118070000Y-59693072D01*
X120690000Y-59693072D01*
X120814482Y-59680812D01*
X120842408Y-59672341D01*
X120925506Y-59740537D01*
X121035820Y-59799502D01*
X121095001Y-59817454D01*
X121095001Y-62786752D01*
X121043244Y-62797047D01*
X120654698Y-62957988D01*
X120305017Y-63191637D01*
X120007637Y-63489017D01*
X119773988Y-63838698D01*
X119613047Y-64227244D01*
X119531000Y-64639721D01*
X119531000Y-65060279D01*
X119613047Y-65472756D01*
X119773988Y-65861302D01*
X120007637Y-66210983D01*
X120305017Y-66508363D01*
X120654698Y-66742012D01*
X121043244Y-66902953D01*
X121455721Y-66985000D01*
X121876279Y-66985000D01*
X122288756Y-66902953D01*
X122677302Y-66742012D01*
X123026983Y-66508363D01*
X123324363Y-66210983D01*
X123558012Y-65861302D01*
X123718953Y-65472756D01*
X123801000Y-65060279D01*
X123801000Y-64639721D01*
X123718953Y-64227244D01*
X123558012Y-63838698D01*
X123324363Y-63489017D01*
X123065000Y-63229654D01*
X123065000Y-59817454D01*
X123124180Y-59799502D01*
X123234494Y-59740537D01*
X123331185Y-59661185D01*
X123410537Y-59564494D01*
X123469502Y-59454180D01*
X123505812Y-59334482D01*
X123518072Y-59210000D01*
X123518072Y-58600000D01*
X123505812Y-58475518D01*
X123469502Y-58355820D01*
X123423630Y-58270000D01*
X123469502Y-58184180D01*
X123505812Y-58064482D01*
X123518072Y-57940000D01*
X123518072Y-57330000D01*
X123505812Y-57205518D01*
X123469502Y-57085820D01*
X123423630Y-57000000D01*
X123469502Y-56914180D01*
X123505812Y-56794482D01*
X123518072Y-56670000D01*
X123518072Y-56060000D01*
X123505812Y-55935518D01*
X123469502Y-55815820D01*
X123423630Y-55730000D01*
X123469502Y-55644180D01*
X123505812Y-55524482D01*
X123518072Y-55400000D01*
X123518072Y-54790000D01*
X123505812Y-54665518D01*
X123469502Y-54545820D01*
X123410537Y-54435506D01*
X123331185Y-54338815D01*
X123234494Y-54259463D01*
X123124180Y-54200498D01*
X123004482Y-54164188D01*
X122880000Y-54151928D01*
X122364326Y-54151928D01*
X122273093Y-54124253D01*
X122080000Y-54105235D01*
X121886906Y-54124253D01*
X121795673Y-54151928D01*
X121280000Y-54151928D01*
X121155518Y-54164188D01*
X121035820Y-54200498D01*
X120925506Y-54259463D01*
X120828815Y-54338815D01*
X120749463Y-54435506D01*
X120690498Y-54545820D01*
X120671961Y-54606928D01*
X118088039Y-54606928D01*
X118069502Y-54545820D01*
X118010537Y-54435506D01*
X117931185Y-54338815D01*
X117834494Y-54259463D01*
X117724180Y-54200498D01*
X117604482Y-54164188D01*
X117480000Y-54151928D01*
X116965750Y-54155000D01*
X116807000Y-54313750D01*
X116807000Y-54968000D01*
X116827000Y-54968000D01*
X116827000Y-55222000D01*
X116807000Y-55222000D01*
X116807000Y-55242000D01*
X116553000Y-55242000D01*
X116553000Y-55222000D01*
X115403750Y-55222000D01*
X115245000Y-55380750D01*
X115241928Y-55400000D01*
X115254188Y-55524482D01*
X115268603Y-55572003D01*
X115155128Y-55665130D01*
X115124287Y-55702710D01*
X112047716Y-58779282D01*
X112010130Y-58810128D01*
X111887040Y-58960114D01*
X111809884Y-59104463D01*
X111795576Y-59131232D01*
X111739253Y-59316905D01*
X111720235Y-59509998D01*
X111725000Y-59558378D01*
X111725001Y-61024119D01*
X111664494Y-60974463D01*
X111554180Y-60915498D01*
X111434482Y-60879188D01*
X111310000Y-60866928D01*
X111095750Y-60870000D01*
X110937000Y-61028750D01*
X110937000Y-62103000D01*
X110957000Y-62103000D01*
X110957000Y-62357000D01*
X110937000Y-62357000D01*
X110937000Y-63431250D01*
X111095750Y-63590000D01*
X111310000Y-63593072D01*
X111434482Y-63580812D01*
X111554180Y-63544502D01*
X111664494Y-63485537D01*
X111687501Y-63466656D01*
X111687500Y-64920625D01*
X111603387Y-64851595D01*
X111449851Y-64769528D01*
X111283255Y-64718992D01*
X111110001Y-64701928D01*
X110584999Y-64701928D01*
X110411745Y-64718992D01*
X110245149Y-64769528D01*
X110091613Y-64851595D01*
X109957038Y-64962038D01*
X109846595Y-65096613D01*
X109764528Y-65250149D01*
X109726655Y-65375000D01*
X106395000Y-65375000D01*
X106395000Y-64154770D01*
X106512962Y-64057962D01*
X106623405Y-63923386D01*
X106705472Y-63769850D01*
X106756008Y-63603254D01*
X106773072Y-63430000D01*
X106773072Y-62955000D01*
X109671928Y-62955000D01*
X109684188Y-63079482D01*
X109720498Y-63199180D01*
X109779463Y-63309494D01*
X109858815Y-63406185D01*
X109955506Y-63485537D01*
X110065820Y-63544502D01*
X110185518Y-63580812D01*
X110310000Y-63593072D01*
X110524250Y-63590000D01*
X110683000Y-63431250D01*
X110683000Y-62357000D01*
X109833750Y-62357000D01*
X109675000Y-62515750D01*
X109671928Y-62955000D01*
X106773072Y-62955000D01*
X106773072Y-62930000D01*
X106756008Y-62756746D01*
X106705472Y-62590150D01*
X106623405Y-62436614D01*
X106512962Y-62302038D01*
X106506406Y-62296658D01*
X106586185Y-62231185D01*
X106665537Y-62134494D01*
X106724502Y-62024180D01*
X106760812Y-61904482D01*
X106773072Y-61780000D01*
X106770000Y-61565750D01*
X106709250Y-61505000D01*
X109671928Y-61505000D01*
X109675000Y-61944250D01*
X109833750Y-62103000D01*
X110683000Y-62103000D01*
X110683000Y-61028750D01*
X110524250Y-60870000D01*
X110310000Y-60866928D01*
X110185518Y-60879188D01*
X110065820Y-60915498D01*
X109955506Y-60974463D01*
X109858815Y-61053815D01*
X109779463Y-61150506D01*
X109720498Y-61260820D01*
X109684188Y-61380518D01*
X109671928Y-61505000D01*
X106709250Y-61505000D01*
X106611250Y-61407000D01*
X105537000Y-61407000D01*
X105537000Y-61427000D01*
X105283000Y-61427000D01*
X105283000Y-61407000D01*
X104208750Y-61407000D01*
X104050000Y-61565750D01*
X104046928Y-61780000D01*
X104059188Y-61904482D01*
X104095498Y-62024180D01*
X104154463Y-62134494D01*
X104173343Y-62157500D01*
X101890504Y-62157500D01*
X101922384Y-62140460D01*
X102072370Y-62017370D01*
X102103216Y-61979784D01*
X103303000Y-60780000D01*
X104046928Y-60780000D01*
X104050000Y-60994250D01*
X104208750Y-61153000D01*
X105283000Y-61153000D01*
X105283000Y-60303750D01*
X105537000Y-60303750D01*
X105537000Y-61153000D01*
X106611250Y-61153000D01*
X106770000Y-60994250D01*
X106773072Y-60780000D01*
X106760812Y-60655518D01*
X106724502Y-60535820D01*
X106665537Y-60425506D01*
X106586185Y-60328815D01*
X106489494Y-60249463D01*
X106379180Y-60190498D01*
X106259482Y-60154188D01*
X106135000Y-60141928D01*
X105695750Y-60145000D01*
X105537000Y-60303750D01*
X105283000Y-60303750D01*
X105124250Y-60145000D01*
X104685000Y-60141928D01*
X104560518Y-60154188D01*
X104440820Y-60190498D01*
X104330506Y-60249463D01*
X104233815Y-60328815D01*
X104154463Y-60425506D01*
X104095498Y-60535820D01*
X104059188Y-60655518D01*
X104046928Y-60780000D01*
X103303000Y-60780000D01*
X105539928Y-58543072D01*
X106485000Y-58543072D01*
X106658254Y-58526008D01*
X106824850Y-58475472D01*
X106978386Y-58393405D01*
X107112962Y-58282962D01*
X107223405Y-58148386D01*
X107305472Y-57994850D01*
X107356008Y-57828254D01*
X107373072Y-57655000D01*
X107373072Y-56905000D01*
X107356008Y-56731746D01*
X107305472Y-56565150D01*
X107223405Y-56411614D01*
X107112962Y-56277038D01*
X106978386Y-56166595D01*
X106824850Y-56084528D01*
X106658254Y-56033992D01*
X106485000Y-56016928D01*
X105266072Y-56016928D01*
X105539928Y-55743072D01*
X106485000Y-55743072D01*
X106658254Y-55726008D01*
X106824850Y-55675472D01*
X106978386Y-55593405D01*
X107112962Y-55482962D01*
X107223405Y-55348386D01*
X107305472Y-55194850D01*
X107356008Y-55028254D01*
X107373072Y-54855000D01*
X107373072Y-54790000D01*
X115241928Y-54790000D01*
X115245000Y-54809250D01*
X115403750Y-54968000D01*
X116553000Y-54968000D01*
X116553000Y-54313750D01*
X116394250Y-54155000D01*
X115880000Y-54151928D01*
X115755518Y-54164188D01*
X115635820Y-54200498D01*
X115525506Y-54259463D01*
X115428815Y-54338815D01*
X115349463Y-54435506D01*
X115290498Y-54545820D01*
X115254188Y-54665518D01*
X115241928Y-54790000D01*
X107373072Y-54790000D01*
X107373072Y-54105000D01*
X107356008Y-53931746D01*
X107305472Y-53765150D01*
X107223405Y-53611614D01*
X107112962Y-53477038D01*
X106978386Y-53366595D01*
X106824850Y-53284528D01*
X106658254Y-53233992D01*
X106485000Y-53216928D01*
X104335000Y-53216928D01*
X104161746Y-53233992D01*
X103995150Y-53284528D01*
X103841614Y-53366595D01*
X103707038Y-53477038D01*
X103596595Y-53611614D01*
X103514528Y-53765150D01*
X103463992Y-53931746D01*
X103446928Y-54105000D01*
X103446928Y-54855000D01*
X103463992Y-55028254D01*
X103465098Y-55031902D01*
X102664500Y-55832500D01*
X100251140Y-55832500D01*
X100290537Y-55784494D01*
X100349502Y-55674180D01*
X100385812Y-55554482D01*
X100398072Y-55430000D01*
X100395000Y-55228250D01*
X100236250Y-55069500D01*
X99187000Y-55069500D01*
X99187000Y-55089500D01*
X98933000Y-55089500D01*
X98933000Y-55069500D01*
X98913000Y-55069500D01*
X98913000Y-54815500D01*
X98933000Y-54815500D01*
X98933000Y-53978750D01*
X99187000Y-53978750D01*
X99187000Y-54815500D01*
X100236250Y-54815500D01*
X100395000Y-54656750D01*
X100398072Y-54455000D01*
X100385812Y-54330518D01*
X100349502Y-54210820D01*
X100290537Y-54100506D01*
X100211185Y-54003815D01*
X100114494Y-53924463D01*
X100004180Y-53865498D01*
X99884482Y-53829188D01*
X99760000Y-53816928D01*
X99345750Y-53820000D01*
X99187000Y-53978750D01*
X98933000Y-53978750D01*
X98774250Y-53820000D01*
X98360000Y-53816928D01*
X98235518Y-53829188D01*
X98115820Y-53865498D01*
X98005506Y-53924463D01*
X97908815Y-54003815D01*
X97829463Y-54100506D01*
X97770498Y-54210820D01*
X97734188Y-54330518D01*
X97721928Y-54455000D01*
X97725000Y-54656750D01*
X97883748Y-54815498D01*
X97725000Y-54815498D01*
X97725000Y-54895000D01*
X95530086Y-54895000D01*
X95452292Y-54800208D01*
X95318664Y-54690542D01*
X95166209Y-54609053D01*
X95000785Y-54558872D01*
X94828750Y-54541928D01*
X94341250Y-54541928D01*
X94169215Y-54558872D01*
X94003791Y-54609053D01*
X93851336Y-54690542D01*
X93717708Y-54800208D01*
X93647500Y-54885756D01*
X93577292Y-54800208D01*
X93443664Y-54690542D01*
X93291209Y-54609053D01*
X93125785Y-54558872D01*
X92953750Y-54541928D01*
X92466250Y-54541928D01*
X92294215Y-54558872D01*
X92128791Y-54609053D01*
X91976336Y-54690542D01*
X91842708Y-54800208D01*
X91764914Y-54895000D01*
X90988072Y-54895000D01*
X90988072Y-54530000D01*
X90975812Y-54405518D01*
X90939502Y-54285820D01*
X90880537Y-54175506D01*
X90801185Y-54078815D01*
X90704494Y-53999463D01*
X90594180Y-53940498D01*
X90474482Y-53904188D01*
X90350000Y-53891928D01*
X89450000Y-53891928D01*
X89325518Y-53904188D01*
X89205820Y-53940498D01*
X89197397Y-53945000D01*
X87058376Y-53944999D01*
X87009998Y-53940234D01*
X86961621Y-53944999D01*
X86961620Y-53944999D01*
X86816906Y-53959252D01*
X86631233Y-54015575D01*
X86460116Y-54107039D01*
X86310130Y-54230129D01*
X86279286Y-54267713D01*
X86237717Y-54309282D01*
X86200129Y-54340129D01*
X86077039Y-54490115D01*
X85993230Y-54646912D01*
X85985575Y-54661233D01*
X85929252Y-54846906D01*
X85910234Y-55039999D01*
X85914999Y-55088379D01*
X85915000Y-58975000D01*
X85748377Y-58975000D01*
X85699997Y-58970235D01*
X85506903Y-58989253D01*
X85463689Y-59002362D01*
X85321231Y-59045576D01*
X85150114Y-59137040D01*
X85000128Y-59260130D01*
X84969282Y-59297716D01*
X84185000Y-60081998D01*
X84185000Y-60008967D01*
X84122168Y-59693088D01*
X83998918Y-59395537D01*
X83819987Y-59127748D01*
X83592252Y-58900013D01*
X83324463Y-58721082D01*
X83026912Y-58597832D01*
X82711033Y-58535000D01*
X82388967Y-58535000D01*
X82073088Y-58597832D01*
X82024736Y-58617860D01*
X82035000Y-58566260D01*
X82035000Y-58273740D01*
X81977932Y-57986842D01*
X81865990Y-57716589D01*
X81703475Y-57473368D01*
X81496632Y-57266525D01*
X81253411Y-57104010D01*
X80983158Y-56992068D01*
X80696260Y-56935000D01*
X80458000Y-56935000D01*
X79880715Y-56357715D01*
X79849869Y-56320129D01*
X79699883Y-56197039D01*
X79528766Y-56105575D01*
X79343093Y-56049252D01*
X79198379Y-56034999D01*
X79149999Y-56030234D01*
X79101619Y-56034999D01*
X71454379Y-56034999D01*
X71405999Y-56030234D01*
X71357619Y-56034999D01*
X71212905Y-56049252D01*
X71027232Y-56105575D01*
X70856115Y-56197039D01*
X70706129Y-56320129D01*
X70675288Y-56357709D01*
X68605000Y-58427998D01*
X68605000Y-52730000D01*
X69762190Y-52730000D01*
X69507748Y-52900013D01*
%TA.AperFunction,Conductor*%
D27*
G36*
X69507748Y-52900013D02*
G01*
X69280013Y-53127748D01*
X69101082Y-53395537D01*
X68977832Y-53693088D01*
X68915000Y-54008967D01*
X68915000Y-54331033D01*
X68977832Y-54646912D01*
X69101082Y-54944463D01*
X69280013Y-55212252D01*
X69507748Y-55439987D01*
X69775537Y-55618918D01*
X70073088Y-55742168D01*
X70388967Y-55805000D01*
X70711033Y-55805000D01*
X71026912Y-55742168D01*
X71324463Y-55618918D01*
X71592252Y-55439987D01*
X71819987Y-55212252D01*
X71998918Y-54944463D01*
X72122168Y-54646912D01*
X72185000Y-54331033D01*
X72185000Y-54008967D01*
X72122168Y-53693088D01*
X71998918Y-53395537D01*
X71819987Y-53127748D01*
X71592252Y-52900013D01*
X71337810Y-52730000D01*
X81762190Y-52730000D01*
X81507748Y-52900013D01*
X81280013Y-53127748D01*
X81101082Y-53395537D01*
X80977832Y-53693088D01*
X80915000Y-54008967D01*
X80915000Y-54331033D01*
X80977832Y-54646912D01*
X81101082Y-54944463D01*
X81280013Y-55212252D01*
X81507748Y-55439987D01*
X81775537Y-55618918D01*
X82073088Y-55742168D01*
X82388967Y-55805000D01*
X82711033Y-55805000D01*
X83026912Y-55742168D01*
X83324463Y-55618918D01*
X83592252Y-55439987D01*
X83819987Y-55212252D01*
X83998918Y-54944463D01*
X84122168Y-54646912D01*
X84185000Y-54331033D01*
X84185000Y-54008967D01*
X84122168Y-53693088D01*
X83998918Y-53395537D01*
X83819987Y-53127748D01*
X83592252Y-52900013D01*
X83337810Y-52730000D01*
X128245000Y-52730000D01*
X128245001Y-97765000D01*
X68605000Y-97765000D01*
X68605000Y-96675000D01*
X87561928Y-96675000D01*
X87574188Y-96799482D01*
X87610498Y-96919180D01*
X87669463Y-97029494D01*
X87748815Y-97126185D01*
X87845506Y-97205537D01*
X87955820Y-97264502D01*
X88075518Y-97300812D01*
X88200000Y-97313072D01*
X88614250Y-97310000D01*
X88773000Y-97151250D01*
X88773000Y-96314500D01*
X89027000Y-96314500D01*
X89027000Y-97151250D01*
X89185750Y-97310000D01*
X89600000Y-97313072D01*
X89724482Y-97300812D01*
X89844180Y-97264502D01*
X89954494Y-97205537D01*
X90051185Y-97126185D01*
X90130537Y-97029494D01*
X90189502Y-96919180D01*
X90225812Y-96799482D01*
X90235609Y-96700000D01*
X93886928Y-96700000D01*
X93899188Y-96824482D01*
X93935498Y-96944180D01*
X93994463Y-97054494D01*
X94073815Y-97151185D01*
X94170506Y-97230537D01*
X94280820Y-97289502D01*
X94400518Y-97325812D01*
X94525000Y-97338072D01*
X94964250Y-97335000D01*
X95123000Y-97176250D01*
X95123000Y-96327000D01*
X95377000Y-96327000D01*
X95377000Y-97176250D01*
X95535750Y-97335000D01*
X95975000Y-97338072D01*
X96099482Y-97325812D01*
X96219180Y-97289502D01*
X96329494Y-97230537D01*
X96426185Y-97151185D01*
X96505537Y-97054494D01*
X96564502Y-96944180D01*
X96600812Y-96824482D01*
X96613072Y-96700000D01*
X96610000Y-96485750D01*
X96451250Y-96327000D01*
X95377000Y-96327000D01*
X95123000Y-96327000D01*
X94048750Y-96327000D01*
X93890000Y-96485750D01*
X93886928Y-96700000D01*
X90235609Y-96700000D01*
X90238072Y-96675000D01*
X90235000Y-96473250D01*
X90076250Y-96314500D01*
X89027000Y-96314500D01*
X88773000Y-96314500D01*
X87723750Y-96314500D01*
X87565000Y-96473250D01*
X87561928Y-96675000D01*
X68605000Y-96675000D01*
X68605000Y-95391653D01*
X74887952Y-95391653D01*
X75043962Y-95707214D01*
X75418745Y-95898020D01*
X75823551Y-96012044D01*
X76242824Y-96044902D01*
X76660451Y-95995334D01*
X77060383Y-95865243D01*
X77356038Y-95707214D01*
X77512048Y-95391653D01*
X76200000Y-94079605D01*
X74887952Y-95391653D01*
X68605000Y-95391653D01*
X68605000Y-93942824D01*
X74055098Y-93942824D01*
X74104666Y-94360451D01*
X74234757Y-94760383D01*
X74392786Y-95056038D01*
X74708347Y-95212048D01*
X76020395Y-93900000D01*
X76379605Y-93900000D01*
X77691653Y-95212048D01*
X78007214Y-95056038D01*
X78198020Y-94681255D01*
X78312044Y-94276449D01*
X78344902Y-93857176D01*
X78295334Y-93439549D01*
X78165243Y-93039617D01*
X78007214Y-92743962D01*
X77691653Y-92587952D01*
X76379605Y-93900000D01*
X76020395Y-93900000D01*
X74708347Y-92587952D01*
X74392786Y-92743962D01*
X74201980Y-93118745D01*
X74087956Y-93523551D01*
X74055098Y-93942824D01*
X68605000Y-93942824D01*
X68605000Y-92408347D01*
X74887952Y-92408347D01*
X76200000Y-93720395D01*
X77512048Y-92408347D01*
X77356038Y-92092786D01*
X76981255Y-91901980D01*
X76576449Y-91787956D01*
X76157176Y-91755098D01*
X75739549Y-91804666D01*
X75339617Y-91934757D01*
X75043962Y-92092786D01*
X74887952Y-92408347D01*
X68605000Y-92408347D01*
X68605000Y-85635000D01*
X84271928Y-85635000D01*
X84275000Y-86074250D01*
X84433750Y-86233000D01*
X85283000Y-86233000D01*
X85283000Y-85158750D01*
X85124250Y-85000000D01*
X84910000Y-84996928D01*
X84785518Y-85009188D01*
X84665820Y-85045498D01*
X84555506Y-85104463D01*
X84458815Y-85183815D01*
X84379463Y-85280506D01*
X84320498Y-85390820D01*
X84284188Y-85510518D01*
X84271928Y-85635000D01*
X68605000Y-85635000D01*
X68605000Y-82771653D01*
X74887952Y-82771653D01*
X75043962Y-83087214D01*
X75418745Y-83278020D01*
X75823551Y-83392044D01*
X76242824Y-83424902D01*
X76660451Y-83375334D01*
X77060383Y-83245243D01*
X77356038Y-83087214D01*
X77512048Y-82771653D01*
X76200000Y-81459605D01*
X74887952Y-82771653D01*
X68605000Y-82771653D01*
X68605000Y-81322824D01*
X74055098Y-81322824D01*
X74104666Y-81740451D01*
X74234757Y-82140383D01*
X74392786Y-82436038D01*
X74708347Y-82592048D01*
X76020395Y-81280000D01*
X76379605Y-81280000D01*
X77691653Y-82592048D01*
X78007214Y-82436038D01*
X78198020Y-82061255D01*
X78312044Y-81656449D01*
X78344902Y-81237176D01*
X78295334Y-80819549D01*
X78165243Y-80419617D01*
X78007214Y-80123962D01*
X77691653Y-79967952D01*
X76379605Y-81280000D01*
X76020395Y-81280000D01*
X74708347Y-79967952D01*
X74392786Y-80123962D01*
X74201980Y-80498745D01*
X74087956Y-80903551D01*
X74055098Y-81322824D01*
X68605000Y-81322824D01*
X68605000Y-79788347D01*
X74887952Y-79788347D01*
X76200000Y-81100395D01*
X77512048Y-79788347D01*
X77356038Y-79472786D01*
X76981255Y-79281980D01*
X76576449Y-79167956D01*
X76157176Y-79135098D01*
X75739549Y-79184666D01*
X75339617Y-79314757D01*
X75043962Y-79472786D01*
X74887952Y-79788347D01*
X68605000Y-79788347D01*
X68605000Y-70078000D01*
X72127290Y-73600290D01*
X74061928Y-75534929D01*
X74061928Y-77780000D01*
X74074188Y-77904482D01*
X74110498Y-78024180D01*
X74169463Y-78134494D01*
X74248815Y-78231185D01*
X74345506Y-78310537D01*
X74455820Y-78369502D01*
X74575518Y-78405812D01*
X74700000Y-78418072D01*
X77700000Y-78418072D01*
X77824482Y-78405812D01*
X77944180Y-78369502D01*
X78054494Y-78310537D01*
X78151185Y-78231185D01*
X78230537Y-78134494D01*
X78289502Y-78024180D01*
X78325812Y-77904482D01*
X78338072Y-77780000D01*
X78338072Y-74780000D01*
X78325812Y-74655518D01*
X78289502Y-74535820D01*
X78230537Y-74425506D01*
X78151185Y-74328815D01*
X78054494Y-74249463D01*
X77944180Y-74190498D01*
X77824482Y-74154188D01*
X77700000Y-74141928D01*
X75454929Y-74141928D01*
X75153001Y-73840000D01*
X92616928Y-73840000D01*
X92629188Y-73964482D01*
X92665498Y-74084180D01*
X92724463Y-74194494D01*
X92803815Y-74291185D01*
X92900506Y-74370537D01*
X93010820Y-74429502D01*
X93130518Y-74465812D01*
X93255000Y-74478072D01*
X93694250Y-74475000D01*
X93853000Y-74316250D01*
X93853000Y-73467000D01*
X94107000Y-73467000D01*
X94107000Y-74316250D01*
X94265750Y-74475000D01*
X94705000Y-74478072D01*
X94829482Y-74465812D01*
X94949180Y-74429502D01*
X95059494Y-74370537D01*
X95156185Y-74291185D01*
X95235537Y-74194494D01*
X95294502Y-74084180D01*
X95330812Y-73964482D01*
X95343072Y-73840000D01*
X95340000Y-73625750D01*
X95181250Y-73467000D01*
X94107000Y-73467000D01*
X93853000Y-73467000D01*
X92778750Y-73467000D01*
X92620000Y-73625750D01*
X92616928Y-73840000D01*
X75153001Y-73840000D01*
X73520290Y-72207290D01*
X70816537Y-69503537D01*
X70965149Y-69582972D01*
X71131745Y-69633508D01*
X71304999Y-69650572D01*
X72205001Y-69650572D01*
X72378255Y-69633508D01*
X72544851Y-69582972D01*
X72698387Y-69500905D01*
X72717767Y-69485000D01*
X73688573Y-69485000D01*
X73737688Y-69558505D01*
X73945001Y-69765818D01*
X73945001Y-69804403D01*
X73940235Y-69852792D01*
X73959253Y-70045885D01*
X74015576Y-70231558D01*
X74015577Y-70231559D01*
X74107041Y-70402676D01*
X74230131Y-70552662D01*
X74267711Y-70583503D01*
X75466497Y-71782290D01*
X75497338Y-71819870D01*
X75612600Y-71914463D01*
X75647324Y-71942960D01*
X75818441Y-72034424D01*
X76004114Y-72090747D01*
X76197208Y-72109765D01*
X76245588Y-72105000D01*
X78691620Y-72105000D01*
X78740000Y-72109765D01*
X78788380Y-72105000D01*
X78933094Y-72090747D01*
X79118767Y-72034424D01*
X79289884Y-71942960D01*
X79439870Y-71819870D01*
X79470716Y-71782284D01*
X81138000Y-70115000D01*
X81431184Y-70115000D01*
X81727743Y-70056011D01*
X82007095Y-69940299D01*
X82258505Y-69772312D01*
X82324944Y-69705873D01*
X82330498Y-69724180D01*
X82389463Y-69834494D01*
X82468815Y-69931185D01*
X82565506Y-70010537D01*
X82675820Y-70069502D01*
X82795518Y-70105812D01*
X82920000Y-70118072D01*
X84720000Y-70118072D01*
X84844482Y-70105812D01*
X84964180Y-70069502D01*
X85074494Y-70010537D01*
X85171185Y-69931185D01*
X85250537Y-69834494D01*
X85309502Y-69724180D01*
X85345812Y-69604482D01*
X85358072Y-69480000D01*
X85358072Y-67680000D01*
X85345812Y-67555518D01*
X85309502Y-67435820D01*
X85250537Y-67325506D01*
X85171185Y-67228815D01*
X85074494Y-67149463D01*
X84964180Y-67090498D01*
X84844482Y-67054188D01*
X84805000Y-67050299D01*
X84805000Y-65543500D01*
X86057972Y-64290528D01*
X86069688Y-64409482D01*
X86105998Y-64529180D01*
X86164963Y-64639494D01*
X86244315Y-64736185D01*
X86341006Y-64815537D01*
X86451320Y-64874502D01*
X86473000Y-64881079D01*
X86473001Y-68717110D01*
X86468235Y-68765500D01*
X86487253Y-68958593D01*
X86543576Y-69144266D01*
X86563933Y-69182351D01*
X86635041Y-69315384D01*
X86758131Y-69465370D01*
X86795711Y-69496211D01*
X87561928Y-70262429D01*
X87561928Y-70470001D01*
X87578992Y-70643255D01*
X87629528Y-70809851D01*
X87711595Y-70963387D01*
X87822038Y-71097962D01*
X87848891Y-71120000D01*
X87822038Y-71142038D01*
X87711595Y-71276613D01*
X87629528Y-71430149D01*
X87578992Y-71596745D01*
X87561928Y-71769999D01*
X87561928Y-72295001D01*
X87578992Y-72468255D01*
X87629528Y-72634851D01*
X87711595Y-72788387D01*
X87822038Y-72922962D01*
X87956613Y-73033405D01*
X88110149Y-73115472D01*
X88276745Y-73166008D01*
X88449999Y-73183072D01*
X89350001Y-73183072D01*
X89523255Y-73166008D01*
X89689851Y-73115472D01*
X89843387Y-73033405D01*
X89862767Y-73017500D01*
X92619473Y-73017500D01*
X92620000Y-73054250D01*
X92778750Y-73213000D01*
X93853000Y-73213000D01*
X93853000Y-73193000D01*
X94107000Y-73193000D01*
X94107000Y-73213000D01*
X95181250Y-73213000D01*
X95340000Y-73054250D01*
X95343072Y-72840000D01*
X95330812Y-72715518D01*
X95294502Y-72595820D01*
X95235537Y-72485506D01*
X95156185Y-72388815D01*
X95076406Y-72323342D01*
X95082962Y-72317962D01*
X95193405Y-72183386D01*
X95275472Y-72029850D01*
X95326008Y-71863254D01*
X95343072Y-71690000D01*
X95343072Y-71190000D01*
X95326008Y-71016746D01*
X95295903Y-70917500D01*
X97721928Y-70917500D01*
X97734188Y-71041982D01*
X97770498Y-71161680D01*
X97829463Y-71271994D01*
X97908815Y-71368685D01*
X98005506Y-71448037D01*
X98115820Y-71507002D01*
X98235518Y-71543312D01*
X98360000Y-71555572D01*
X98774250Y-71552500D01*
X98933000Y-71393750D01*
X98933000Y-70532000D01*
X99187000Y-70532000D01*
X99187000Y-71393750D01*
X99345750Y-71552500D01*
X99760000Y-71555572D01*
X99884482Y-71543312D01*
X100004180Y-71507002D01*
X100114494Y-71448037D01*
X100211185Y-71368685D01*
X100290537Y-71271994D01*
X100349502Y-71161680D01*
X100385812Y-71041982D01*
X100398072Y-70917500D01*
X100395000Y-70690750D01*
X100236250Y-70532000D01*
X99187000Y-70532000D01*
X98933000Y-70532000D01*
X97883750Y-70532000D01*
X97725000Y-70690750D01*
X97721928Y-70917500D01*
X95295903Y-70917500D01*
X95275472Y-70850150D01*
X95193405Y-70696614D01*
X95082962Y-70562038D01*
X94948386Y-70451595D01*
X94794850Y-70369528D01*
X94628254Y-70318992D01*
X94455000Y-70301928D01*
X93505000Y-70301928D01*
X93331746Y-70318992D01*
X93165150Y-70369528D01*
X93011614Y-70451595D01*
X92877038Y-70562038D01*
X92766595Y-70696614D01*
X92684528Y-70850150D01*
X92633992Y-71016746D01*
X92630963Y-71047500D01*
X90019375Y-71047500D01*
X90088405Y-70963387D01*
X90170472Y-70809851D01*
X90221008Y-70643255D01*
X90238072Y-70470001D01*
X90238072Y-69944999D01*
X90221008Y-69771745D01*
X90170472Y-69605149D01*
X90088405Y-69451613D01*
X89977962Y-69317038D01*
X89843387Y-69206595D01*
X89689851Y-69124528D01*
X89523255Y-69073992D01*
X89350001Y-69056928D01*
X89142429Y-69056928D01*
X88443000Y-68357500D01*
X88443000Y-64881079D01*
X88464680Y-64874502D01*
X88574994Y-64815537D01*
X88671685Y-64736185D01*
X88751037Y-64639494D01*
X88810002Y-64529180D01*
X88846312Y-64409482D01*
X88858572Y-64285000D01*
X88858572Y-63635000D01*
X88846312Y-63510518D01*
X88830988Y-63460000D01*
X88846312Y-63409482D01*
X88858572Y-63285000D01*
X88858572Y-62635000D01*
X88846312Y-62510518D01*
X88830988Y-62460000D01*
X88846312Y-62409482D01*
X88858572Y-62285000D01*
X88858572Y-61678696D01*
X88873211Y-61690710D01*
X88985618Y-61782960D01*
X89156735Y-61874424D01*
X89342408Y-61930747D01*
X89433153Y-61939685D01*
X89347040Y-62044614D01*
X89259729Y-62207962D01*
X89255576Y-62215732D01*
X89199253Y-62401405D01*
X89180235Y-62594498D01*
X89185000Y-62642878D01*
X89185001Y-65276610D01*
X89180235Y-65325000D01*
X89199253Y-65518093D01*
X89255576Y-65703766D01*
X89284495Y-65757869D01*
X89347041Y-65874884D01*
X89470131Y-66024870D01*
X89507711Y-66055711D01*
X91004428Y-67552429D01*
X91004428Y-67760001D01*
X91021492Y-67933255D01*
X91072028Y-68099851D01*
X91154095Y-68253387D01*
X91264538Y-68387962D01*
X91399113Y-68498405D01*
X91552649Y-68580472D01*
X91719245Y-68631008D01*
X91892499Y-68648072D01*
X92417501Y-68648072D01*
X92590755Y-68631008D01*
X92757351Y-68580472D01*
X92910887Y-68498405D01*
X93045462Y-68387962D01*
X93067500Y-68361109D01*
X93089538Y-68387962D01*
X93224113Y-68498405D01*
X93377649Y-68580472D01*
X93544245Y-68631008D01*
X93717499Y-68648072D01*
X94242501Y-68648072D01*
X94415755Y-68631008D01*
X94582351Y-68580472D01*
X94735887Y-68498405D01*
X94870462Y-68387962D01*
X94946754Y-68295000D01*
X97382000Y-68295000D01*
X97721928Y-68634928D01*
X97721928Y-68842501D01*
X97738992Y-69015755D01*
X97789528Y-69182351D01*
X97871595Y-69335887D01*
X97938276Y-69417137D01*
X97908815Y-69441315D01*
X97829463Y-69538006D01*
X97770498Y-69648320D01*
X97734188Y-69768018D01*
X97721928Y-69892500D01*
X97725000Y-70119250D01*
X97883750Y-70278000D01*
X98933000Y-70278000D01*
X98933000Y-70258000D01*
X99187000Y-70258000D01*
X99187000Y-70278000D01*
X100236250Y-70278000D01*
X100395000Y-70119250D01*
X100398072Y-69892500D01*
X100385812Y-69768018D01*
X100349502Y-69648320D01*
X100290537Y-69538006D01*
X100211185Y-69441315D01*
X100181724Y-69417137D01*
X100248405Y-69335887D01*
X100330472Y-69182351D01*
X100381008Y-69015755D01*
X100398072Y-68842501D01*
X100398072Y-68760000D01*
X104046928Y-68760000D01*
X104059188Y-68884482D01*
X104095498Y-69004180D01*
X104154463Y-69114494D01*
X104233815Y-69211185D01*
X104330506Y-69290537D01*
X104440820Y-69349502D01*
X104560518Y-69385812D01*
X104685000Y-69398072D01*
X105124250Y-69395000D01*
X105283000Y-69236250D01*
X105283000Y-68387000D01*
X105537000Y-68387000D01*
X105537000Y-69236250D01*
X105695750Y-69395000D01*
X106135000Y-69398072D01*
X106259482Y-69385812D01*
X106379180Y-69349502D01*
X106489494Y-69290537D01*
X106586185Y-69211185D01*
X106665537Y-69114494D01*
X106724502Y-69004180D01*
X106760812Y-68884482D01*
X106773072Y-68760000D01*
X106770000Y-68545750D01*
X106611250Y-68387000D01*
X105537000Y-68387000D01*
X105283000Y-68387000D01*
X104208750Y-68387000D01*
X104050000Y-68545750D01*
X104046928Y-68760000D01*
X100398072Y-68760000D01*
X100398072Y-68317499D01*
X100381008Y-68144245D01*
X100330472Y-67977649D01*
X100248405Y-67824113D01*
X100137962Y-67689538D01*
X100003387Y-67579095D01*
X99849851Y-67497028D01*
X99683255Y-67446492D01*
X99510001Y-67429428D01*
X99302428Y-67429428D01*
X98520716Y-66647716D01*
X98489870Y-66610130D01*
X98339884Y-66487040D01*
X98168767Y-66395576D01*
X97983094Y-66339253D01*
X97838380Y-66325000D01*
X97790000Y-66320235D01*
X97741620Y-66325000D01*
X94965000Y-66325000D01*
X94965000Y-65106377D01*
X94969765Y-65057999D01*
X94965000Y-65009620D01*
X94950747Y-64864906D01*
X94894424Y-64679233D01*
X94802960Y-64508116D01*
X94679870Y-64358130D01*
X94642284Y-64327284D01*
X94282572Y-63967572D01*
X94282572Y-63945000D01*
X97909849Y-63945000D01*
X97982038Y-64032962D01*
X98116613Y-64143405D01*
X98270149Y-64225472D01*
X98436745Y-64276008D01*
X98609999Y-64293072D01*
X99510001Y-64293072D01*
X99683255Y-64276008D01*
X99849851Y-64225472D01*
X100003387Y-64143405D01*
X100022767Y-64127500D01*
X104391771Y-64127500D01*
X104425000Y-64154771D01*
X104425001Y-65385229D01*
X104307038Y-65482038D01*
X104196595Y-65616614D01*
X104114528Y-65770150D01*
X104063992Y-65936746D01*
X104046928Y-66110000D01*
X104046928Y-66610000D01*
X104063992Y-66783254D01*
X104114528Y-66949850D01*
X104196595Y-67103386D01*
X104307038Y-67237962D01*
X104313594Y-67243342D01*
X104233815Y-67308815D01*
X104154463Y-67405506D01*
X104095498Y-67515820D01*
X104059188Y-67635518D01*
X104046928Y-67760000D01*
X104050000Y-67974250D01*
X104208750Y-68133000D01*
X105283000Y-68133000D01*
X105283000Y-68113000D01*
X105537000Y-68113000D01*
X105537000Y-68133000D01*
X106611250Y-68133000D01*
X106770000Y-67974250D01*
X106773072Y-67760000D01*
X106760812Y-67635518D01*
X106724502Y-67515820D01*
X106665537Y-67405506D01*
X106615881Y-67345000D01*
X110069773Y-67345000D01*
X110147631Y-67439870D01*
X110185211Y-67470711D01*
X111956789Y-69242290D01*
X111987630Y-69279870D01*
X112137616Y-69402960D01*
X112265346Y-69471233D01*
X112308733Y-69494424D01*
X112494406Y-69550747D01*
X112687500Y-69569765D01*
X112735880Y-69565000D01*
X118972000Y-69565000D01*
X119527928Y-70120928D01*
X119527928Y-71350000D01*
X119540188Y-71474482D01*
X119576498Y-71594180D01*
X119635463Y-71704494D01*
X119714815Y-71801185D01*
X119811506Y-71880537D01*
X119921820Y-71939502D01*
X120041518Y-71975812D01*
X120166000Y-71988072D01*
X121395072Y-71988072D01*
X124865001Y-75458002D01*
X124865001Y-79983021D01*
X124586912Y-79867832D01*
X124271033Y-79805000D01*
X123948967Y-79805000D01*
X123633088Y-79867832D01*
X123335537Y-79991082D01*
X123067748Y-80170013D01*
X122840013Y-80397748D01*
X122676085Y-80643084D01*
X115030716Y-72997716D01*
X114999870Y-72960130D01*
X114849884Y-72837040D01*
X114678767Y-72745576D01*
X114493094Y-72689253D01*
X114348380Y-72675000D01*
X114300000Y-72670235D01*
X114251620Y-72675000D01*
X113239888Y-72675000D01*
X113188938Y-72633186D01*
X113130000Y-72601683D01*
X113130000Y-72557998D01*
X113048269Y-72557998D01*
X113043010Y-72555187D01*
X113000852Y-72542398D01*
X113130000Y-72413250D01*
X113118863Y-72311094D01*
X113080752Y-72191958D01*
X113020131Y-72082545D01*
X112939329Y-71987062D01*
X112841452Y-71909177D01*
X112730261Y-71851883D01*
X112610029Y-71817382D01*
X112485377Y-71807001D01*
X112045750Y-71810000D01*
X111887000Y-71968750D01*
X111887000Y-72456928D01*
X111633000Y-72456928D01*
X111633000Y-71968750D01*
X111474250Y-71810000D01*
X111034623Y-71807001D01*
X110909971Y-71817382D01*
X110789739Y-71851883D01*
X110678548Y-71909177D01*
X110580671Y-71987062D01*
X110499869Y-72082545D01*
X110439248Y-72191958D01*
X110401137Y-72311094D01*
X110390000Y-72413250D01*
X110471750Y-72495000D01*
X108833072Y-72495000D01*
X108833072Y-72445000D01*
X108820812Y-72320518D01*
X108784502Y-72200820D01*
X108725537Y-72090506D01*
X108646185Y-71993815D01*
X108549494Y-71914463D01*
X108439180Y-71855498D01*
X108319482Y-71819188D01*
X108195000Y-71806928D01*
X108113322Y-71806928D01*
X108009884Y-71722039D01*
X107838767Y-71630575D01*
X107653094Y-71574252D01*
X107508380Y-71559999D01*
X102503381Y-71559999D01*
X102455001Y-71555234D01*
X102406621Y-71559999D01*
X102261907Y-71574252D01*
X102076234Y-71630575D01*
X101905117Y-71722039D01*
X101755131Y-71845129D01*
X101724290Y-71882709D01*
X96390072Y-77216928D01*
X95445000Y-77216928D01*
X95271746Y-77233992D01*
X95105150Y-77284528D01*
X94951614Y-77366595D01*
X94817038Y-77477038D01*
X94706595Y-77611614D01*
X94629953Y-77755000D01*
X90782586Y-77755000D01*
X90704792Y-77660208D01*
X90571164Y-77550542D01*
X90418709Y-77469053D01*
X90253285Y-77418872D01*
X90081250Y-77401928D01*
X89593750Y-77401928D01*
X89421715Y-77418872D01*
X89256291Y-77469053D01*
X89103836Y-77550542D01*
X88970208Y-77660208D01*
X88900000Y-77745756D01*
X88829792Y-77660208D01*
X88696164Y-77550542D01*
X88543709Y-77469053D01*
X88378285Y-77418872D01*
X88206250Y-77401928D01*
X87718750Y-77401928D01*
X87546715Y-77418872D01*
X87381291Y-77469053D01*
X87228836Y-77550542D01*
X87095208Y-77660208D01*
X86985542Y-77793836D01*
X86904053Y-77946291D01*
X86853872Y-78111715D01*
X86836928Y-78283750D01*
X86836928Y-79196250D01*
X86853872Y-79368285D01*
X86904053Y-79533709D01*
X86977500Y-79671119D01*
X86977501Y-85005053D01*
X86886746Y-85013992D01*
X86720150Y-85064528D01*
X86566614Y-85146595D01*
X86432038Y-85257038D01*
X86426658Y-85263594D01*
X86361185Y-85183815D01*
X86264494Y-85104463D01*
X86154180Y-85045498D01*
X86034482Y-85009188D01*
X85910000Y-84996928D01*
X85695750Y-85000000D01*
X85537000Y-85158750D01*
X85537000Y-86233000D01*
X85557000Y-86233000D01*
X85557000Y-86487000D01*
X85537000Y-86487000D01*
X85537000Y-87561250D01*
X85695750Y-87720000D01*
X85910000Y-87723072D01*
X86034482Y-87710812D01*
X86154180Y-87674502D01*
X86264494Y-87615537D01*
X86361185Y-87536185D01*
X86426658Y-87456406D01*
X86432038Y-87462962D01*
X86566614Y-87573405D01*
X86720150Y-87655472D01*
X86886746Y-87706008D01*
X87060000Y-87723072D01*
X87560000Y-87723072D01*
X87733254Y-87706008D01*
X87899850Y-87655472D01*
X88053386Y-87573405D01*
X88187962Y-87462962D01*
X88284770Y-87345000D01*
X91350750Y-87345000D01*
X91508750Y-87503000D01*
X92583000Y-87503000D01*
X92583000Y-87483000D01*
X92837000Y-87483000D01*
X92837000Y-87503000D01*
X93911250Y-87503000D01*
X94070000Y-87344250D01*
X94073072Y-87130000D01*
X94060812Y-87005518D01*
X94024502Y-86885820D01*
X93965537Y-86775506D01*
X93915881Y-86715000D01*
X97396999Y-86715000D01*
X98230000Y-87548001D01*
X98229999Y-88266620D01*
X98225234Y-88315001D01*
X98229999Y-88363380D01*
X98244252Y-88508094D01*
X98300575Y-88693767D01*
X98392039Y-88864885D01*
X98515129Y-89014871D01*
X98552717Y-89045718D01*
X98594280Y-89087282D01*
X98625129Y-89124871D01*
X98775115Y-89247961D01*
X98946232Y-89339425D01*
X99131905Y-89395748D01*
X99276619Y-89410001D01*
X99276621Y-89410001D01*
X99324998Y-89414766D01*
X99373376Y-89410001D01*
X100040120Y-89410001D01*
X99985131Y-89455129D01*
X99862041Y-89605115D01*
X99770577Y-89776232D01*
X99714254Y-89961905D01*
X99703312Y-90073004D01*
X99680000Y-90075299D01*
X99595000Y-90066928D01*
X99115000Y-90066928D01*
X98990518Y-90079188D01*
X98870820Y-90115498D01*
X98760506Y-90174463D01*
X98663815Y-90253815D01*
X98584463Y-90350506D01*
X98525498Y-90460820D01*
X98489188Y-90580518D01*
X98476928Y-90705000D01*
X98476928Y-90785070D01*
X96040007Y-93221992D01*
X95898254Y-93178992D01*
X95725000Y-93161928D01*
X94775000Y-93161928D01*
X94601746Y-93178992D01*
X94435150Y-93229528D01*
X94281614Y-93311595D01*
X94262234Y-93327500D01*
X89831118Y-93327500D01*
X89693709Y-93254053D01*
X89528285Y-93203872D01*
X89356250Y-93186928D01*
X89167429Y-93186928D01*
X84218216Y-88237716D01*
X84187370Y-88200130D01*
X84101917Y-88130000D01*
X91346928Y-88130000D01*
X91359188Y-88254482D01*
X91395498Y-88374180D01*
X91454463Y-88484494D01*
X91533815Y-88581185D01*
X91630506Y-88660537D01*
X91740820Y-88719502D01*
X91860518Y-88755812D01*
X91985000Y-88768072D01*
X92424250Y-88765000D01*
X92583000Y-88606250D01*
X92583000Y-87757000D01*
X92837000Y-87757000D01*
X92837000Y-88606250D01*
X92995750Y-88765000D01*
X93435000Y-88768072D01*
X93559482Y-88755812D01*
X93679180Y-88719502D01*
X93789494Y-88660537D01*
X93886185Y-88581185D01*
X93965537Y-88484494D01*
X94024502Y-88374180D01*
X94060812Y-88254482D01*
X94073072Y-88130000D01*
X94070000Y-87915750D01*
X93911250Y-87757000D01*
X92837000Y-87757000D01*
X92583000Y-87757000D01*
X91508750Y-87757000D01*
X91350000Y-87915750D01*
X91346928Y-88130000D01*
X84101917Y-88130000D01*
X84037384Y-88077040D01*
X83866267Y-87985576D01*
X83680594Y-87929253D01*
X83535880Y-87915000D01*
X83487500Y-87910235D01*
X83439120Y-87915000D01*
X78338072Y-87915000D01*
X78338072Y-87400000D01*
X78325812Y-87275518D01*
X78289502Y-87155820D01*
X78251648Y-87085000D01*
X84271928Y-87085000D01*
X84284188Y-87209482D01*
X84320498Y-87329180D01*
X84379463Y-87439494D01*
X84458815Y-87536185D01*
X84555506Y-87615537D01*
X84665820Y-87674502D01*
X84785518Y-87710812D01*
X84910000Y-87723072D01*
X85124250Y-87720000D01*
X85283000Y-87561250D01*
X85283000Y-86487000D01*
X84433750Y-86487000D01*
X84275000Y-86645750D01*
X84271928Y-87085000D01*
X78251648Y-87085000D01*
X78230537Y-87045506D01*
X78151185Y-86948815D01*
X78054494Y-86869463D01*
X77944180Y-86810498D01*
X77824482Y-86774188D01*
X77700000Y-86761928D01*
X74700000Y-86761928D01*
X74575518Y-86774188D01*
X74455820Y-86810498D01*
X74345506Y-86869463D01*
X74248815Y-86948815D01*
X74169463Y-87045506D01*
X74110498Y-87155820D01*
X74074188Y-87275518D01*
X74061928Y-87400000D01*
X74061928Y-90400000D01*
X74074188Y-90524482D01*
X74110498Y-90644180D01*
X74169463Y-90754494D01*
X74248815Y-90851185D01*
X74345506Y-90930537D01*
X74455820Y-90989502D01*
X74575518Y-91025812D01*
X74700000Y-91038072D01*
X77700000Y-91038072D01*
X77824482Y-91025812D01*
X77944180Y-90989502D01*
X78054494Y-90930537D01*
X78151185Y-90851185D01*
X78230537Y-90754494D01*
X78289502Y-90644180D01*
X78325812Y-90524482D01*
X78338072Y-90400000D01*
X78338072Y-89885000D01*
X83079500Y-89885000D01*
X87561928Y-94367429D01*
X87561928Y-94556250D01*
X87578872Y-94728285D01*
X87629053Y-94893709D01*
X87710542Y-95046164D01*
X87820208Y-95179792D01*
X87826564Y-95185008D01*
X87748815Y-95248815D01*
X87669463Y-95345506D01*
X87610498Y-95455820D01*
X87574188Y-95575518D01*
X87561928Y-95700000D01*
X87565000Y-95901750D01*
X87723750Y-96060500D01*
X88773000Y-96060500D01*
X88773000Y-96040500D01*
X89027000Y-96040500D01*
X89027000Y-96060500D01*
X90076250Y-96060500D01*
X90235000Y-95901750D01*
X90238072Y-95700000D01*
X90225812Y-95575518D01*
X90189502Y-95455820D01*
X90130537Y-95345506D01*
X90091140Y-95297500D01*
X94033860Y-95297500D01*
X93994463Y-95345506D01*
X93935498Y-95455820D01*
X93899188Y-95575518D01*
X93886928Y-95700000D01*
X93890000Y-95914250D01*
X94048750Y-96073000D01*
X95123000Y-96073000D01*
X95123000Y-96053000D01*
X95377000Y-96053000D01*
X95377000Y-96073000D01*
X96451250Y-96073000D01*
X96610000Y-95914250D01*
X96613072Y-95700000D01*
X96600812Y-95575518D01*
X96564502Y-95455820D01*
X96505537Y-95345506D01*
X96451955Y-95280216D01*
X96548093Y-95270747D01*
X96733766Y-95214424D01*
X96904883Y-95122960D01*
X97054869Y-94999870D01*
X97085715Y-94962284D01*
X99165001Y-92882999D01*
X99165001Y-93613737D01*
X99160937Y-93655000D01*
X99165001Y-93696263D01*
X99165001Y-93696264D01*
X99177155Y-93819669D01*
X99200527Y-93896715D01*
X99225188Y-93978009D01*
X99303186Y-94123936D01*
X99377481Y-94214463D01*
X99408158Y-94251843D01*
X99440208Y-94278146D01*
X99961928Y-94799867D01*
X99961928Y-96250000D01*
X99974188Y-96374482D01*
X100010498Y-96494180D01*
X100069463Y-96604494D01*
X100148815Y-96701185D01*
X100245506Y-96780537D01*
X100355820Y-96839502D01*
X100475518Y-96875812D01*
X100600000Y-96888072D01*
X102600000Y-96888072D01*
X102724482Y-96875812D01*
X102844180Y-96839502D01*
X102954494Y-96780537D01*
X103051185Y-96701185D01*
X103130537Y-96604494D01*
X103189502Y-96494180D01*
X103225812Y-96374482D01*
X103238072Y-96250000D01*
X103238072Y-94250000D01*
X103225812Y-94125518D01*
X103189502Y-94005820D01*
X103130537Y-93895506D01*
X103051185Y-93798815D01*
X102954494Y-93719463D01*
X102844180Y-93660498D01*
X102724482Y-93624188D01*
X102600000Y-93611928D01*
X101149867Y-93611928D01*
X100845000Y-93307062D01*
X100845000Y-92813072D01*
X100895000Y-92813072D01*
X100980000Y-92804701D01*
X101065000Y-92813072D01*
X101545000Y-92813072D01*
X101669482Y-92800812D01*
X101789180Y-92764502D01*
X101899494Y-92705537D01*
X101996185Y-92626185D01*
X102075537Y-92529494D01*
X102134502Y-92419180D01*
X102170812Y-92299482D01*
X102183072Y-92175000D01*
X102183072Y-91139999D01*
X104986999Y-91139999D01*
X105529428Y-91682429D01*
X105529428Y-91890001D01*
X105546492Y-92063255D01*
X105597028Y-92229851D01*
X105679095Y-92383387D01*
X105789538Y-92517962D01*
X105924113Y-92628405D01*
X106077649Y-92710472D01*
X106244245Y-92761008D01*
X106417499Y-92778072D01*
X106942501Y-92778072D01*
X107115755Y-92761008D01*
X107282351Y-92710472D01*
X107435887Y-92628405D01*
X107517137Y-92561724D01*
X107541315Y-92591185D01*
X107638006Y-92670537D01*
X107748320Y-92729502D01*
X107868018Y-92765812D01*
X107992500Y-92778072D01*
X108219250Y-92775000D01*
X108378000Y-92616250D01*
X108378000Y-91567000D01*
X108632000Y-91567000D01*
X108632000Y-92616250D01*
X108790750Y-92775000D01*
X109017500Y-92778072D01*
X109141982Y-92765812D01*
X109261680Y-92729502D01*
X109371994Y-92670537D01*
X109468685Y-92591185D01*
X109548037Y-92494494D01*
X109607002Y-92384180D01*
X109643312Y-92264482D01*
X109655572Y-92140000D01*
X109652500Y-91725750D01*
X109493750Y-91567000D01*
X108632000Y-91567000D01*
X108378000Y-91567000D01*
X108358000Y-91567000D01*
X108358000Y-91313000D01*
X108378000Y-91313000D01*
X108378000Y-90263750D01*
X108632000Y-90263750D01*
X108632000Y-91313000D01*
X109493750Y-91313000D01*
X109652500Y-91154250D01*
X109655572Y-90740000D01*
X109643312Y-90615518D01*
X109607002Y-90495820D01*
X109548037Y-90385506D01*
X109468685Y-90288815D01*
X109371994Y-90209463D01*
X109261680Y-90150498D01*
X109141982Y-90114188D01*
X109017500Y-90101928D01*
X108790750Y-90105000D01*
X108632000Y-90263750D01*
X108378000Y-90263750D01*
X108219250Y-90105000D01*
X107992500Y-90101928D01*
X107868018Y-90114188D01*
X107748320Y-90150498D01*
X107638006Y-90209463D01*
X107541315Y-90288815D01*
X107517137Y-90318276D01*
X107435887Y-90251595D01*
X107282351Y-90169528D01*
X107115755Y-90118992D01*
X106942501Y-90101928D01*
X106734929Y-90101928D01*
X106125714Y-89492714D01*
X106094869Y-89455129D01*
X105944883Y-89332039D01*
X105773766Y-89240575D01*
X105588093Y-89184252D01*
X105443379Y-89169999D01*
X105394999Y-89165234D01*
X105346619Y-89169999D01*
X103989880Y-89169999D01*
X104044869Y-89124871D01*
X104075715Y-89087285D01*
X107348000Y-85815000D01*
X110941928Y-85815000D01*
X110954188Y-85939482D01*
X110990498Y-86059180D01*
X111049463Y-86169494D01*
X111128815Y-86266185D01*
X111225506Y-86345537D01*
X111335820Y-86404502D01*
X111455518Y-86440812D01*
X111580000Y-86453072D01*
X111794250Y-86450000D01*
X111953000Y-86291250D01*
X111953000Y-85217000D01*
X111103750Y-85217000D01*
X110945000Y-85375750D01*
X110941928Y-85815000D01*
X107348000Y-85815000D01*
X108192429Y-84970572D01*
X108400001Y-84970572D01*
X108573255Y-84953508D01*
X108739851Y-84902972D01*
X108893387Y-84820905D01*
X109027962Y-84710462D01*
X109138405Y-84575887D01*
X109220472Y-84422351D01*
X109237869Y-84365000D01*
X110941928Y-84365000D01*
X110945000Y-84804250D01*
X111103750Y-84963000D01*
X111953000Y-84963000D01*
X111953000Y-83888750D01*
X111794250Y-83730000D01*
X111580000Y-83726928D01*
X111455518Y-83739188D01*
X111335820Y-83775498D01*
X111225506Y-83834463D01*
X111128815Y-83913815D01*
X111049463Y-84010506D01*
X110990498Y-84120820D01*
X110954188Y-84240518D01*
X110941928Y-84365000D01*
X109237869Y-84365000D01*
X109271008Y-84255755D01*
X109288072Y-84082501D01*
X109288072Y-83557499D01*
X109271008Y-83384245D01*
X109220472Y-83217649D01*
X109138405Y-83064113D01*
X109027962Y-82929538D01*
X109001109Y-82907500D01*
X109027962Y-82885462D01*
X109138405Y-82750887D01*
X109220472Y-82597351D01*
X109271008Y-82430755D01*
X109288072Y-82257501D01*
X109288072Y-81824354D01*
X109338815Y-81886185D01*
X109435506Y-81965537D01*
X109545820Y-82024502D01*
X109665518Y-82060812D01*
X109790000Y-82073072D01*
X110204250Y-82070000D01*
X110363000Y-81911250D01*
X110363000Y-81049500D01*
X110617000Y-81049500D01*
X110617000Y-81911250D01*
X110775750Y-82070000D01*
X111190000Y-82073072D01*
X111314482Y-82060812D01*
X111434180Y-82024502D01*
X111544494Y-81965537D01*
X111641185Y-81886185D01*
X111720537Y-81789494D01*
X111779502Y-81679180D01*
X111815812Y-81559482D01*
X111828072Y-81435000D01*
X111825000Y-81208250D01*
X111666250Y-81049500D01*
X110617000Y-81049500D01*
X110363000Y-81049500D01*
X110343000Y-81049500D01*
X110343000Y-80795500D01*
X110363000Y-80795500D01*
X110363000Y-80775500D01*
X110617000Y-80775500D01*
X110617000Y-80795500D01*
X111666250Y-80795500D01*
X111825000Y-80636750D01*
X111828072Y-80410000D01*
X111815812Y-80285518D01*
X111779502Y-80165820D01*
X111720537Y-80055506D01*
X111641185Y-79958815D01*
X111611724Y-79934637D01*
X111678405Y-79853387D01*
X111760472Y-79699851D01*
X111811008Y-79533255D01*
X111828072Y-79360001D01*
X111828072Y-78834999D01*
X111811008Y-78661745D01*
X111760472Y-78495149D01*
X111678405Y-78341613D01*
X111567962Y-78207038D01*
X111475000Y-78130746D01*
X111475000Y-75883001D01*
X113315001Y-77723002D01*
X113315001Y-78130746D01*
X113222038Y-78207038D01*
X113111595Y-78341613D01*
X113029528Y-78495149D01*
X112978992Y-78661745D01*
X112961928Y-78834999D01*
X112961928Y-79360001D01*
X112978992Y-79533255D01*
X113029528Y-79699851D01*
X113111595Y-79853387D01*
X113222038Y-79987962D01*
X113248891Y-80010000D01*
X113222038Y-80032038D01*
X113111595Y-80166613D01*
X113029528Y-80320149D01*
X112978992Y-80486745D01*
X112961928Y-80659999D01*
X112961928Y-81185001D01*
X112978992Y-81358255D01*
X113029528Y-81524851D01*
X113111595Y-81678387D01*
X113222038Y-81812962D01*
X113315000Y-81889254D01*
X113315001Y-83834696D01*
X113236614Y-83876595D01*
X113102038Y-83987038D01*
X113096658Y-83993594D01*
X113031185Y-83913815D01*
X112934494Y-83834463D01*
X112824180Y-83775498D01*
X112704482Y-83739188D01*
X112580000Y-83726928D01*
X112365750Y-83730000D01*
X112207000Y-83888750D01*
X112207000Y-84963000D01*
X112227000Y-84963000D01*
X112227000Y-85217000D01*
X112207000Y-85217000D01*
X112207000Y-86291250D01*
X112365750Y-86450000D01*
X112580000Y-86453072D01*
X112704482Y-86440812D01*
X112824180Y-86404502D01*
X112934494Y-86345537D01*
X113031185Y-86266185D01*
X113096658Y-86186406D01*
X113102038Y-86192962D01*
X113236614Y-86303405D01*
X113390150Y-86385472D01*
X113556746Y-86436008D01*
X113730000Y-86453072D01*
X114230000Y-86453072D01*
X114403254Y-86436008D01*
X114569850Y-86385472D01*
X114723386Y-86303405D01*
X114857962Y-86192962D01*
X114968405Y-86058386D01*
X115050472Y-85904850D01*
X115101008Y-85738254D01*
X115118072Y-85565000D01*
X115118072Y-85325840D01*
X115122960Y-85319884D01*
X115214424Y-85148767D01*
X115270747Y-84963094D01*
X115276268Y-84907040D01*
X115289765Y-84770001D01*
X115285000Y-84721621D01*
X115285000Y-81889254D01*
X115377962Y-81812962D01*
X115488405Y-81678387D01*
X115570472Y-81524851D01*
X115621008Y-81358255D01*
X115628817Y-81278967D01*
X116475000Y-81278967D01*
X116475000Y-81601033D01*
X116537832Y-81916912D01*
X116661082Y-82214463D01*
X116840013Y-82482252D01*
X117067748Y-82709987D01*
X117335537Y-82888918D01*
X117633088Y-83012168D01*
X117948967Y-83075000D01*
X118271033Y-83075000D01*
X118424586Y-83044457D01*
X118375000Y-83293740D01*
X118375000Y-83586260D01*
X118432068Y-83873158D01*
X118544010Y-84143411D01*
X118706525Y-84386632D01*
X118913368Y-84593475D01*
X119156589Y-84755990D01*
X119426842Y-84867932D01*
X119713740Y-84925000D01*
X120006260Y-84925000D01*
X120293158Y-84867932D01*
X120563411Y-84755990D01*
X120806632Y-84593475D01*
X121013475Y-84386632D01*
X121175990Y-84143411D01*
X121287932Y-83873158D01*
X121345000Y-83586260D01*
X121345000Y-83293740D01*
X121287932Y-83006842D01*
X121175990Y-82736589D01*
X121013475Y-82493368D01*
X120806632Y-82286525D01*
X120563411Y-82124010D01*
X120293158Y-82012068D01*
X120006260Y-81955000D01*
X119713740Y-81955000D01*
X119662140Y-81965264D01*
X119682168Y-81916912D01*
X119745000Y-81601033D01*
X119745000Y-81278967D01*
X119682168Y-80963088D01*
X119558918Y-80665537D01*
X119379987Y-80397748D01*
X119152252Y-80170013D01*
X118884463Y-79991082D01*
X118586912Y-79867832D01*
X118271033Y-79805000D01*
X117948967Y-79805000D01*
X117633088Y-79867832D01*
X117335537Y-79991082D01*
X117067748Y-80170013D01*
X116840013Y-80397748D01*
X116661082Y-80665537D01*
X116537832Y-80963088D01*
X116475000Y-81278967D01*
X115628817Y-81278967D01*
X115638072Y-81185001D01*
X115638072Y-80659999D01*
X115621008Y-80486745D01*
X115570472Y-80320149D01*
X115488405Y-80166613D01*
X115377962Y-80032038D01*
X115351109Y-80010000D01*
X115377962Y-79987962D01*
X115488405Y-79853387D01*
X115570472Y-79699851D01*
X115621008Y-79533255D01*
X115638072Y-79360001D01*
X115638072Y-78834999D01*
X115621008Y-78661745D01*
X115570472Y-78495149D01*
X115488405Y-78341613D01*
X115377962Y-78207038D01*
X115285000Y-78130746D01*
X115285000Y-77363378D01*
X115289765Y-77315000D01*
X115285000Y-77266621D01*
X115270747Y-77121907D01*
X115214424Y-76936234D01*
X115122960Y-76765117D01*
X114999870Y-76615131D01*
X114962284Y-76584285D01*
X113133072Y-74755073D01*
X113133072Y-74645000D01*
X113892000Y-74645000D01*
X121574999Y-82328000D01*
X121575000Y-84332000D01*
X119952000Y-85955000D01*
X119713740Y-85955000D01*
X119426842Y-86012068D01*
X119156589Y-86124010D01*
X118913368Y-86286525D01*
X118706525Y-86493368D01*
X118544010Y-86736589D01*
X118432068Y-87006842D01*
X118375000Y-87293740D01*
X118375000Y-87586260D01*
X118432068Y-87873158D01*
X118544010Y-88143411D01*
X118706525Y-88386632D01*
X118913368Y-88593475D01*
X119156589Y-88755990D01*
X119426842Y-88867932D01*
X119713740Y-88925000D01*
X120006260Y-88925000D01*
X120293158Y-88867932D01*
X120563411Y-88755990D01*
X120806632Y-88593475D01*
X121013475Y-88386632D01*
X121175990Y-88143411D01*
X121287932Y-87873158D01*
X121345000Y-87586260D01*
X121345000Y-87348000D01*
X123222283Y-85470717D01*
X123259869Y-85439871D01*
X123382959Y-85289885D01*
X123474423Y-85118768D01*
X123521646Y-84963094D01*
X123530746Y-84933096D01*
X123549764Y-84740002D01*
X123544999Y-84691622D01*
X123544999Y-82975680D01*
X123633088Y-83012168D01*
X123948967Y-83075000D01*
X124271033Y-83075000D01*
X124586912Y-83012168D01*
X124865002Y-82896979D01*
X124865002Y-85041997D01*
X119952000Y-89955000D01*
X119713740Y-89955000D01*
X119426842Y-90012068D01*
X119156589Y-90124010D01*
X118913368Y-90286525D01*
X118706525Y-90493368D01*
X118544010Y-90736589D01*
X118432068Y-91006842D01*
X118375000Y-91293740D01*
X118375000Y-91586260D01*
X118424586Y-91835543D01*
X118271033Y-91805000D01*
X117948967Y-91805000D01*
X117633088Y-91867832D01*
X117335537Y-91991082D01*
X117067748Y-92170013D01*
X116840013Y-92397748D01*
X116661082Y-92665537D01*
X116537832Y-92963088D01*
X116475000Y-93278967D01*
X116475000Y-93601033D01*
X116537832Y-93916912D01*
X116661082Y-94214463D01*
X116840013Y-94482252D01*
X117067748Y-94709987D01*
X117335537Y-94888918D01*
X117633088Y-95012168D01*
X117948967Y-95075000D01*
X118271033Y-95075000D01*
X118586912Y-95012168D01*
X118884463Y-94888918D01*
X119152252Y-94709987D01*
X119379987Y-94482252D01*
X119558918Y-94214463D01*
X119682168Y-93916912D01*
X119745000Y-93601033D01*
X119745000Y-93278967D01*
X122475000Y-93278967D01*
X122475000Y-93601033D01*
X122537832Y-93916912D01*
X122661082Y-94214463D01*
X122840013Y-94482252D01*
X123067748Y-94709987D01*
X123335537Y-94888918D01*
X123633088Y-95012168D01*
X123948967Y-95075000D01*
X124271033Y-95075000D01*
X124586912Y-95012168D01*
X124884463Y-94888918D01*
X125152252Y-94709987D01*
X125379987Y-94482252D01*
X125558918Y-94214463D01*
X125682168Y-93916912D01*
X125745000Y-93601033D01*
X125745000Y-93278967D01*
X125682168Y-92963088D01*
X125558918Y-92665537D01*
X125379987Y-92397748D01*
X125152252Y-92170013D01*
X124884463Y-91991082D01*
X124586912Y-91867832D01*
X124271033Y-91805000D01*
X123948967Y-91805000D01*
X123633088Y-91867832D01*
X123335537Y-91991082D01*
X123067748Y-92170013D01*
X122840013Y-92397748D01*
X122661082Y-92665537D01*
X122537832Y-92963088D01*
X122475000Y-93278967D01*
X119745000Y-93278967D01*
X119682168Y-92963088D01*
X119662140Y-92914736D01*
X119713740Y-92925000D01*
X120006260Y-92925000D01*
X120293158Y-92867932D01*
X120563411Y-92755990D01*
X120806632Y-92593475D01*
X121013475Y-92386632D01*
X121175990Y-92143411D01*
X121287932Y-91873158D01*
X121345000Y-91586260D01*
X121345000Y-91348000D01*
X126512291Y-86180710D01*
X126549871Y-86149869D01*
X126672961Y-85999883D01*
X126764425Y-85828766D01*
X126820748Y-85643093D01*
X126835001Y-85498379D01*
X126839766Y-85449999D01*
X126835001Y-85401619D01*
X126835001Y-75098381D01*
X126839766Y-75050001D01*
X126820748Y-74856907D01*
X126764425Y-74671234D01*
X126756025Y-74655518D01*
X126672961Y-74500117D01*
X126549871Y-74350131D01*
X126512291Y-74319290D01*
X123762875Y-71569875D01*
X123791812Y-71474482D01*
X123804072Y-71350000D01*
X123804072Y-68350000D01*
X123791812Y-68225518D01*
X123755502Y-68105820D01*
X123696537Y-67995506D01*
X123617185Y-67898815D01*
X123520494Y-67819463D01*
X123410180Y-67760498D01*
X123290482Y-67724188D01*
X123166000Y-67711928D01*
X120166000Y-67711928D01*
X120041518Y-67724188D01*
X119930784Y-67757779D01*
X119929884Y-67757040D01*
X119758767Y-67665576D01*
X119573094Y-67609253D01*
X119428380Y-67595000D01*
X119380000Y-67590235D01*
X119331620Y-67595000D01*
X113095501Y-67595000D01*
X112878573Y-67378072D01*
X112935001Y-67378072D01*
X113108255Y-67361008D01*
X113274851Y-67310472D01*
X113428387Y-67228405D01*
X113562962Y-67117962D01*
X113673405Y-66983387D01*
X113755472Y-66829851D01*
X113806008Y-66663255D01*
X113823072Y-66490001D01*
X113823072Y-65589999D01*
X113806008Y-65416745D01*
X113755472Y-65250149D01*
X113673405Y-65096613D01*
X113657500Y-65077233D01*
X113657500Y-63248229D01*
X113698405Y-63198386D01*
X113780472Y-63044850D01*
X113831008Y-62878254D01*
X113848072Y-62705000D01*
X113848072Y-61755000D01*
X113831008Y-61581746D01*
X113780472Y-61415150D01*
X113698405Y-61261614D01*
X113695000Y-61257465D01*
X113695000Y-59917998D01*
X114402998Y-59210000D01*
X115241928Y-59210000D01*
X115254188Y-59334482D01*
X115290498Y-59454180D01*
X115349463Y-59564494D01*
X115428815Y-59661185D01*
X115525506Y-59740537D01*
X115635820Y-59799502D01*
X115755518Y-59835812D01*
X115880000Y-59848072D01*
X116394250Y-59845000D01*
X116553000Y-59686250D01*
X116553000Y-59032000D01*
X115403750Y-59032000D01*
X115245000Y-59190750D01*
X115241928Y-59210000D01*
X114402998Y-59210000D01*
X115328759Y-58284239D01*
X115290498Y-58355820D01*
X115254188Y-58475518D01*
X115241928Y-58600000D01*
X115245000Y-58619250D01*
X115403750Y-58778000D01*
X116553000Y-58778000D01*
X116553000Y-57762000D01*
X116533000Y-57762000D01*
X116533000Y-57508000D01*
X116553000Y-57508000D01*
X116553000Y-57488000D01*
X116807000Y-57488000D01*
X116807000Y-57508000D01*
X116827000Y-57508000D01*
X116827000Y-57762000D01*
X116807000Y-57762000D01*
X116807000Y-58778000D01*
X116827000Y-58778000D01*
X116827000Y-59032000D01*
X116807000Y-59032000D01*
X116807000Y-59686250D01*
X116965750Y-59845000D01*
X117480000Y-59848072D01*
X117604482Y-59835812D01*
X117724180Y-59799502D01*
X117834494Y-59740537D01*
X117917592Y-59672341D01*
X117945518Y-59680812D01*
X118070000Y-59693072D01*
X120690000Y-59693072D01*
X120814482Y-59680812D01*
X120842408Y-59672341D01*
X120925506Y-59740537D01*
X121035820Y-59799502D01*
X121095001Y-59817454D01*
X121095001Y-62786752D01*
X121043244Y-62797047D01*
X120654698Y-62957988D01*
X120305017Y-63191637D01*
X120007637Y-63489017D01*
X119773988Y-63838698D01*
X119613047Y-64227244D01*
X119531000Y-64639721D01*
X119531000Y-65060279D01*
X119613047Y-65472756D01*
X119773988Y-65861302D01*
X120007637Y-66210983D01*
X120305017Y-66508363D01*
X120654698Y-66742012D01*
X121043244Y-66902953D01*
X121455721Y-66985000D01*
X121876279Y-66985000D01*
X122288756Y-66902953D01*
X122677302Y-66742012D01*
X123026983Y-66508363D01*
X123324363Y-66210983D01*
X123558012Y-65861302D01*
X123718953Y-65472756D01*
X123801000Y-65060279D01*
X123801000Y-64639721D01*
X123718953Y-64227244D01*
X123558012Y-63838698D01*
X123324363Y-63489017D01*
X123065000Y-63229654D01*
X123065000Y-59817454D01*
X123124180Y-59799502D01*
X123234494Y-59740537D01*
X123331185Y-59661185D01*
X123410537Y-59564494D01*
X123469502Y-59454180D01*
X123505812Y-59334482D01*
X123518072Y-59210000D01*
X123518072Y-58600000D01*
X123505812Y-58475518D01*
X123469502Y-58355820D01*
X123423630Y-58270000D01*
X123469502Y-58184180D01*
X123505812Y-58064482D01*
X123518072Y-57940000D01*
X123518072Y-57330000D01*
X123505812Y-57205518D01*
X123469502Y-57085820D01*
X123423630Y-57000000D01*
X123469502Y-56914180D01*
X123505812Y-56794482D01*
X123518072Y-56670000D01*
X123518072Y-56060000D01*
X123505812Y-55935518D01*
X123469502Y-55815820D01*
X123423630Y-55730000D01*
X123469502Y-55644180D01*
X123505812Y-55524482D01*
X123518072Y-55400000D01*
X123518072Y-54790000D01*
X123505812Y-54665518D01*
X123469502Y-54545820D01*
X123410537Y-54435506D01*
X123331185Y-54338815D01*
X123234494Y-54259463D01*
X123124180Y-54200498D01*
X123004482Y-54164188D01*
X122880000Y-54151928D01*
X122364326Y-54151928D01*
X122273093Y-54124253D01*
X122080000Y-54105235D01*
X121886906Y-54124253D01*
X121795673Y-54151928D01*
X121280000Y-54151928D01*
X121155518Y-54164188D01*
X121035820Y-54200498D01*
X120925506Y-54259463D01*
X120828815Y-54338815D01*
X120749463Y-54435506D01*
X120690498Y-54545820D01*
X120671961Y-54606928D01*
X118088039Y-54606928D01*
X118069502Y-54545820D01*
X118010537Y-54435506D01*
X117931185Y-54338815D01*
X117834494Y-54259463D01*
X117724180Y-54200498D01*
X117604482Y-54164188D01*
X117480000Y-54151928D01*
X116965750Y-54155000D01*
X116807000Y-54313750D01*
X116807000Y-54968000D01*
X116827000Y-54968000D01*
X116827000Y-55222000D01*
X116807000Y-55222000D01*
X116807000Y-55242000D01*
X116553000Y-55242000D01*
X116553000Y-55222000D01*
X115403750Y-55222000D01*
X115245000Y-55380750D01*
X115241928Y-55400000D01*
X115254188Y-55524482D01*
X115268603Y-55572003D01*
X115155128Y-55665130D01*
X115124287Y-55702710D01*
X112047716Y-58779282D01*
X112010130Y-58810128D01*
X111887040Y-58960114D01*
X111809884Y-59104463D01*
X111795576Y-59131232D01*
X111739253Y-59316905D01*
X111720235Y-59509998D01*
X111725000Y-59558378D01*
X111725001Y-61024119D01*
X111664494Y-60974463D01*
X111554180Y-60915498D01*
X111434482Y-60879188D01*
X111310000Y-60866928D01*
X111095750Y-60870000D01*
X110937000Y-61028750D01*
X110937000Y-62103000D01*
X110957000Y-62103000D01*
X110957000Y-62357000D01*
X110937000Y-62357000D01*
X110937000Y-63431250D01*
X111095750Y-63590000D01*
X111310000Y-63593072D01*
X111434482Y-63580812D01*
X111554180Y-63544502D01*
X111664494Y-63485537D01*
X111687501Y-63466656D01*
X111687500Y-64920625D01*
X111603387Y-64851595D01*
X111449851Y-64769528D01*
X111283255Y-64718992D01*
X111110001Y-64701928D01*
X110584999Y-64701928D01*
X110411745Y-64718992D01*
X110245149Y-64769528D01*
X110091613Y-64851595D01*
X109957038Y-64962038D01*
X109846595Y-65096613D01*
X109764528Y-65250149D01*
X109726655Y-65375000D01*
X106395000Y-65375000D01*
X106395000Y-64154770D01*
X106512962Y-64057962D01*
X106623405Y-63923386D01*
X106705472Y-63769850D01*
X106756008Y-63603254D01*
X106773072Y-63430000D01*
X106773072Y-62955000D01*
X109671928Y-62955000D01*
X109684188Y-63079482D01*
X109720498Y-63199180D01*
X109779463Y-63309494D01*
X109858815Y-63406185D01*
X109955506Y-63485537D01*
X110065820Y-63544502D01*
X110185518Y-63580812D01*
X110310000Y-63593072D01*
X110524250Y-63590000D01*
X110683000Y-63431250D01*
X110683000Y-62357000D01*
X109833750Y-62357000D01*
X109675000Y-62515750D01*
X109671928Y-62955000D01*
X106773072Y-62955000D01*
X106773072Y-62930000D01*
X106756008Y-62756746D01*
X106705472Y-62590150D01*
X106623405Y-62436614D01*
X106512962Y-62302038D01*
X106506406Y-62296658D01*
X106586185Y-62231185D01*
X106665537Y-62134494D01*
X106724502Y-62024180D01*
X106760812Y-61904482D01*
X106773072Y-61780000D01*
X106770000Y-61565750D01*
X106709250Y-61505000D01*
X109671928Y-61505000D01*
X109675000Y-61944250D01*
X109833750Y-62103000D01*
X110683000Y-62103000D01*
X110683000Y-61028750D01*
X110524250Y-60870000D01*
X110310000Y-60866928D01*
X110185518Y-60879188D01*
X110065820Y-60915498D01*
X109955506Y-60974463D01*
X109858815Y-61053815D01*
X109779463Y-61150506D01*
X109720498Y-61260820D01*
X109684188Y-61380518D01*
X109671928Y-61505000D01*
X106709250Y-61505000D01*
X106611250Y-61407000D01*
X105537000Y-61407000D01*
X105537000Y-61427000D01*
X105283000Y-61427000D01*
X105283000Y-61407000D01*
X104208750Y-61407000D01*
X104050000Y-61565750D01*
X104046928Y-61780000D01*
X104059188Y-61904482D01*
X104095498Y-62024180D01*
X104154463Y-62134494D01*
X104173343Y-62157500D01*
X101890504Y-62157500D01*
X101922384Y-62140460D01*
X102072370Y-62017370D01*
X102103216Y-61979784D01*
X103303000Y-60780000D01*
X104046928Y-60780000D01*
X104050000Y-60994250D01*
X104208750Y-61153000D01*
X105283000Y-61153000D01*
X105283000Y-60303750D01*
X105537000Y-60303750D01*
X105537000Y-61153000D01*
X106611250Y-61153000D01*
X106770000Y-60994250D01*
X106773072Y-60780000D01*
X106760812Y-60655518D01*
X106724502Y-60535820D01*
X106665537Y-60425506D01*
X106586185Y-60328815D01*
X106489494Y-60249463D01*
X106379180Y-60190498D01*
X106259482Y-60154188D01*
X106135000Y-60141928D01*
X105695750Y-60145000D01*
X105537000Y-60303750D01*
X105283000Y-60303750D01*
X105124250Y-60145000D01*
X104685000Y-60141928D01*
X104560518Y-60154188D01*
X104440820Y-60190498D01*
X104330506Y-60249463D01*
X104233815Y-60328815D01*
X104154463Y-60425506D01*
X104095498Y-60535820D01*
X104059188Y-60655518D01*
X104046928Y-60780000D01*
X103303000Y-60780000D01*
X105539928Y-58543072D01*
X106485000Y-58543072D01*
X106658254Y-58526008D01*
X106824850Y-58475472D01*
X106978386Y-58393405D01*
X107112962Y-58282962D01*
X107223405Y-58148386D01*
X107305472Y-57994850D01*
X107356008Y-57828254D01*
X107373072Y-57655000D01*
X107373072Y-56905000D01*
X107356008Y-56731746D01*
X107305472Y-56565150D01*
X107223405Y-56411614D01*
X107112962Y-56277038D01*
X106978386Y-56166595D01*
X106824850Y-56084528D01*
X106658254Y-56033992D01*
X106485000Y-56016928D01*
X105266072Y-56016928D01*
X105539928Y-55743072D01*
X106485000Y-55743072D01*
X106658254Y-55726008D01*
X106824850Y-55675472D01*
X106978386Y-55593405D01*
X107112962Y-55482962D01*
X107223405Y-55348386D01*
X107305472Y-55194850D01*
X107356008Y-55028254D01*
X107373072Y-54855000D01*
X107373072Y-54790000D01*
X115241928Y-54790000D01*
X115245000Y-54809250D01*
X115403750Y-54968000D01*
X116553000Y-54968000D01*
X116553000Y-54313750D01*
X116394250Y-54155000D01*
X115880000Y-54151928D01*
X115755518Y-54164188D01*
X115635820Y-54200498D01*
X115525506Y-54259463D01*
X115428815Y-54338815D01*
X115349463Y-54435506D01*
X115290498Y-54545820D01*
X115254188Y-54665518D01*
X115241928Y-54790000D01*
X107373072Y-54790000D01*
X107373072Y-54105000D01*
X107356008Y-53931746D01*
X107305472Y-53765150D01*
X107223405Y-53611614D01*
X107112962Y-53477038D01*
X106978386Y-53366595D01*
X106824850Y-53284528D01*
X106658254Y-53233992D01*
X106485000Y-53216928D01*
X104335000Y-53216928D01*
X104161746Y-53233992D01*
X103995150Y-53284528D01*
X103841614Y-53366595D01*
X103707038Y-53477038D01*
X103596595Y-53611614D01*
X103514528Y-53765150D01*
X103463992Y-53931746D01*
X103446928Y-54105000D01*
X103446928Y-54855000D01*
X103463992Y-55028254D01*
X103465098Y-55031902D01*
X102664500Y-55832500D01*
X100251140Y-55832500D01*
X100290537Y-55784494D01*
X100349502Y-55674180D01*
X100385812Y-55554482D01*
X100398072Y-55430000D01*
X100395000Y-55228250D01*
X100236250Y-55069500D01*
X99187000Y-55069500D01*
X99187000Y-55089500D01*
X98933000Y-55089500D01*
X98933000Y-55069500D01*
X98913000Y-55069500D01*
X98913000Y-54815500D01*
X98933000Y-54815500D01*
X98933000Y-53978750D01*
X99187000Y-53978750D01*
X99187000Y-54815500D01*
X100236250Y-54815500D01*
X100395000Y-54656750D01*
X100398072Y-54455000D01*
X100385812Y-54330518D01*
X100349502Y-54210820D01*
X100290537Y-54100506D01*
X100211185Y-54003815D01*
X100114494Y-53924463D01*
X100004180Y-53865498D01*
X99884482Y-53829188D01*
X99760000Y-53816928D01*
X99345750Y-53820000D01*
X99187000Y-53978750D01*
X98933000Y-53978750D01*
X98774250Y-53820000D01*
X98360000Y-53816928D01*
X98235518Y-53829188D01*
X98115820Y-53865498D01*
X98005506Y-53924463D01*
X97908815Y-54003815D01*
X97829463Y-54100506D01*
X97770498Y-54210820D01*
X97734188Y-54330518D01*
X97721928Y-54455000D01*
X97725000Y-54656750D01*
X97883748Y-54815498D01*
X97725000Y-54815498D01*
X97725000Y-54895000D01*
X95530086Y-54895000D01*
X95452292Y-54800208D01*
X95318664Y-54690542D01*
X95166209Y-54609053D01*
X95000785Y-54558872D01*
X94828750Y-54541928D01*
X94341250Y-54541928D01*
X94169215Y-54558872D01*
X94003791Y-54609053D01*
X93851336Y-54690542D01*
X93717708Y-54800208D01*
X93647500Y-54885756D01*
X93577292Y-54800208D01*
X93443664Y-54690542D01*
X93291209Y-54609053D01*
X93125785Y-54558872D01*
X92953750Y-54541928D01*
X92466250Y-54541928D01*
X92294215Y-54558872D01*
X92128791Y-54609053D01*
X91976336Y-54690542D01*
X91842708Y-54800208D01*
X91764914Y-54895000D01*
X90988072Y-54895000D01*
X90988072Y-54530000D01*
X90975812Y-54405518D01*
X90939502Y-54285820D01*
X90880537Y-54175506D01*
X90801185Y-54078815D01*
X90704494Y-53999463D01*
X90594180Y-53940498D01*
X90474482Y-53904188D01*
X90350000Y-53891928D01*
X89450000Y-53891928D01*
X89325518Y-53904188D01*
X89205820Y-53940498D01*
X89197397Y-53945000D01*
X87058376Y-53944999D01*
X87009998Y-53940234D01*
X86961621Y-53944999D01*
X86961620Y-53944999D01*
X86816906Y-53959252D01*
X86631233Y-54015575D01*
X86460116Y-54107039D01*
X86310130Y-54230129D01*
X86279286Y-54267713D01*
X86237717Y-54309282D01*
X86200129Y-54340129D01*
X86077039Y-54490115D01*
X85993230Y-54646912D01*
X85985575Y-54661233D01*
X85929252Y-54846906D01*
X85910234Y-55039999D01*
X85914999Y-55088379D01*
X85915000Y-58975000D01*
X85748377Y-58975000D01*
X85699997Y-58970235D01*
X85506903Y-58989253D01*
X85463689Y-59002362D01*
X85321231Y-59045576D01*
X85150114Y-59137040D01*
X85000128Y-59260130D01*
X84969282Y-59297716D01*
X84185000Y-60081998D01*
X84185000Y-60008967D01*
X84122168Y-59693088D01*
X83998918Y-59395537D01*
X83819987Y-59127748D01*
X83592252Y-58900013D01*
X83324463Y-58721082D01*
X83026912Y-58597832D01*
X82711033Y-58535000D01*
X82388967Y-58535000D01*
X82073088Y-58597832D01*
X82024736Y-58617860D01*
X82035000Y-58566260D01*
X82035000Y-58273740D01*
X81977932Y-57986842D01*
X81865990Y-57716589D01*
X81703475Y-57473368D01*
X81496632Y-57266525D01*
X81253411Y-57104010D01*
X80983158Y-56992068D01*
X80696260Y-56935000D01*
X80458000Y-56935000D01*
X79880715Y-56357715D01*
X79849869Y-56320129D01*
X79699883Y-56197039D01*
X79528766Y-56105575D01*
X79343093Y-56049252D01*
X79198379Y-56034999D01*
X79149999Y-56030234D01*
X79101619Y-56034999D01*
X71454379Y-56034999D01*
X71405999Y-56030234D01*
X71357619Y-56034999D01*
X71212905Y-56049252D01*
X71027232Y-56105575D01*
X70856115Y-56197039D01*
X70706129Y-56320129D01*
X70675288Y-56357709D01*
X68605000Y-58427998D01*
X68605000Y-52730000D01*
X69762190Y-52730000D01*
X69507748Y-52900013D01*
G37*
%TD.AperFunction*%
D26*
X106086928Y-74875000D02*
X106099188Y-74999482D01*
X106135498Y-75119180D01*
X106194463Y-75229494D01*
X106273815Y-75326185D01*
X106370506Y-75405537D01*
X106480820Y-75464502D01*
X106600518Y-75500812D01*
X106645001Y-75505193D01*
X106645000Y-77534119D01*
X106584494Y-77484463D01*
X106474180Y-77425498D01*
X106354482Y-77389188D01*
X106230000Y-77376928D01*
X106015750Y-77380000D01*
X105857000Y-77538750D01*
X105857000Y-78613000D01*
X105877000Y-78613000D01*
X105877000Y-78867000D01*
X105857000Y-78867000D01*
X105857000Y-79941250D01*
X106015750Y-80100000D01*
X106230000Y-80103072D01*
X106354482Y-80090812D01*
X106474180Y-80054502D01*
X106584494Y-79995537D01*
X106681185Y-79916185D01*
X106746658Y-79836406D01*
X106752038Y-79842962D01*
X106886614Y-79953405D01*
X107040150Y-80035472D01*
X107206746Y-80086008D01*
X107380000Y-80103072D01*
X107880000Y-80103072D01*
X107942593Y-80096907D01*
X107287711Y-80751789D01*
X107250131Y-80782630D01*
X107131268Y-80927465D01*
X107006613Y-80994095D01*
X106872038Y-81104538D01*
X106761595Y-81239113D01*
X106679528Y-81392649D01*
X106628992Y-81559245D01*
X106611928Y-81732499D01*
X106611928Y-82257501D01*
X106628992Y-82430755D01*
X106679528Y-82597351D01*
X106761595Y-82750887D01*
X106872038Y-82885462D01*
X106898891Y-82907500D01*
X106872038Y-82929538D01*
X106761595Y-83064113D01*
X106679528Y-83217649D01*
X106628992Y-83384245D01*
X106611928Y-83557499D01*
X106611928Y-83765071D01*
X102936999Y-87440001D01*
X102180097Y-87440001D01*
X102180000Y-87425750D01*
X102021250Y-87267000D01*
X101533072Y-87267000D01*
X101533072Y-87013000D01*
X102021250Y-87013000D01*
X102180000Y-86854250D01*
X102182999Y-86414623D01*
X102172618Y-86289971D01*
X102138117Y-86169739D01*
X102080823Y-86058548D01*
X102002938Y-85960671D01*
X101984158Y-85944779D01*
X102164792Y-85764145D01*
X102196843Y-85737841D01*
X102269408Y-85649422D01*
X102301814Y-85609935D01*
X102379813Y-85464008D01*
X102427846Y-85305667D01*
X102430324Y-85280506D01*
X102440000Y-85182262D01*
X102440000Y-85182254D01*
X102444063Y-85140998D01*
X102440000Y-85099742D01*
X102440000Y-84557029D01*
X102568386Y-84488405D01*
X102702962Y-84377962D01*
X102813405Y-84243386D01*
X102895472Y-84089850D01*
X102946008Y-83923254D01*
X102963072Y-83750000D01*
X102963072Y-83250000D01*
X102946008Y-83076746D01*
X102895472Y-82910150D01*
X102813405Y-82756614D01*
X102702962Y-82622038D01*
X102696406Y-82616658D01*
X102776185Y-82551185D01*
X102855537Y-82454494D01*
X102914502Y-82344180D01*
X102950812Y-82224482D01*
X102963072Y-82100000D01*
X102960000Y-81885750D01*
X102801250Y-81727000D01*
X101727000Y-81727000D01*
X101727000Y-81747000D01*
X101473000Y-81747000D01*
X101473000Y-81727000D01*
X100398750Y-81727000D01*
X100240000Y-81885750D01*
X100236928Y-82100000D01*
X100249188Y-82224482D01*
X100285498Y-82344180D01*
X100344463Y-82454494D01*
X100423815Y-82551185D01*
X100503594Y-82616658D01*
X100497038Y-82622038D01*
X100386595Y-82756614D01*
X100304528Y-82910150D01*
X100253992Y-83076746D01*
X100236928Y-83250000D01*
X100236928Y-83603928D01*
X98548000Y-81915000D01*
X99363000Y-81100000D01*
X100236928Y-81100000D01*
X100240000Y-81314250D01*
X100398750Y-81473000D01*
X101473000Y-81473000D01*
X101473000Y-80623750D01*
X101727000Y-80623750D01*
X101727000Y-81473000D01*
X102801250Y-81473000D01*
X102960000Y-81314250D01*
X102963072Y-81100000D01*
X102950812Y-80975518D01*
X102914502Y-80855820D01*
X102855537Y-80745506D01*
X102776185Y-80648815D01*
X102679494Y-80569463D01*
X102569180Y-80510498D01*
X102449482Y-80474188D01*
X102325000Y-80461928D01*
X101885750Y-80465000D01*
X101727000Y-80623750D01*
X101473000Y-80623750D01*
X101314250Y-80465000D01*
X100875000Y-80461928D01*
X100750518Y-80474188D01*
X100630820Y-80510498D01*
X100520506Y-80569463D01*
X100423815Y-80648815D01*
X100344463Y-80745506D01*
X100285498Y-80855820D01*
X100249188Y-80975518D01*
X100236928Y-81100000D01*
X99363000Y-81100000D01*
X100359928Y-80103072D01*
X100580000Y-80103072D01*
X100753254Y-80086008D01*
X100919850Y-80035472D01*
X101073386Y-79953405D01*
X101207962Y-79842962D01*
X101213342Y-79836406D01*
X101278815Y-79916185D01*
X101375506Y-79995537D01*
X101485820Y-80054502D01*
X101605518Y-80090812D01*
X101730000Y-80103072D01*
X101944250Y-80100000D01*
X102103000Y-79941250D01*
X102103000Y-78867000D01*
X102357000Y-78867000D01*
X102357000Y-79941250D01*
X102515750Y-80100000D01*
X102730000Y-80103072D01*
X102854482Y-80090812D01*
X102974180Y-80054502D01*
X103084494Y-79995537D01*
X103181185Y-79916185D01*
X103260537Y-79819494D01*
X103319502Y-79709180D01*
X103355812Y-79589482D01*
X103368072Y-79465000D01*
X104591928Y-79465000D01*
X104604188Y-79589482D01*
X104640498Y-79709180D01*
X104699463Y-79819494D01*
X104778815Y-79916185D01*
X104875506Y-79995537D01*
X104985820Y-80054502D01*
X105105518Y-80090812D01*
X105230000Y-80103072D01*
X105444250Y-80100000D01*
X105603000Y-79941250D01*
X105603000Y-78867000D01*
X104753750Y-78867000D01*
X104595000Y-79025750D01*
X104591928Y-79465000D01*
X103368072Y-79465000D01*
X103365000Y-79025750D01*
X103206250Y-78867000D01*
X102357000Y-78867000D01*
X102103000Y-78867000D01*
X102083000Y-78867000D01*
X102083000Y-78613000D01*
X102103000Y-78613000D01*
X102103000Y-78593000D01*
X102357000Y-78593000D01*
X102357000Y-78613000D01*
X103206250Y-78613000D01*
X103365000Y-78454250D01*
X103368072Y-78015000D01*
X104591928Y-78015000D01*
X104595000Y-78454250D01*
X104753750Y-78613000D01*
X105603000Y-78613000D01*
X105603000Y-77538750D01*
X105444250Y-77380000D01*
X105230000Y-77376928D01*
X105105518Y-77389188D01*
X104985820Y-77425498D01*
X104875506Y-77484463D01*
X104778815Y-77563815D01*
X104699463Y-77660506D01*
X104640498Y-77770820D01*
X104604188Y-77890518D01*
X104591928Y-78015000D01*
X103368072Y-78015000D01*
X103355812Y-77890518D01*
X103319502Y-77770820D01*
X103260537Y-77660506D01*
X103181185Y-77563815D01*
X103084494Y-77484463D01*
X103015445Y-77447555D01*
X105818001Y-74645000D01*
X106086928Y-74645000D01*
X106086928Y-74875000D01*
%TA.AperFunction,Conductor*%
D27*
G36*
X106086928Y-74875000D02*
G01*
X106099188Y-74999482D01*
X106135498Y-75119180D01*
X106194463Y-75229494D01*
X106273815Y-75326185D01*
X106370506Y-75405537D01*
X106480820Y-75464502D01*
X106600518Y-75500812D01*
X106645001Y-75505193D01*
X106645000Y-77534119D01*
X106584494Y-77484463D01*
X106474180Y-77425498D01*
X106354482Y-77389188D01*
X106230000Y-77376928D01*
X106015750Y-77380000D01*
X105857000Y-77538750D01*
X105857000Y-78613000D01*
X105877000Y-78613000D01*
X105877000Y-78867000D01*
X105857000Y-78867000D01*
X105857000Y-79941250D01*
X106015750Y-80100000D01*
X106230000Y-80103072D01*
X106354482Y-80090812D01*
X106474180Y-80054502D01*
X106584494Y-79995537D01*
X106681185Y-79916185D01*
X106746658Y-79836406D01*
X106752038Y-79842962D01*
X106886614Y-79953405D01*
X107040150Y-80035472D01*
X107206746Y-80086008D01*
X107380000Y-80103072D01*
X107880000Y-80103072D01*
X107942593Y-80096907D01*
X107287711Y-80751789D01*
X107250131Y-80782630D01*
X107131268Y-80927465D01*
X107006613Y-80994095D01*
X106872038Y-81104538D01*
X106761595Y-81239113D01*
X106679528Y-81392649D01*
X106628992Y-81559245D01*
X106611928Y-81732499D01*
X106611928Y-82257501D01*
X106628992Y-82430755D01*
X106679528Y-82597351D01*
X106761595Y-82750887D01*
X106872038Y-82885462D01*
X106898891Y-82907500D01*
X106872038Y-82929538D01*
X106761595Y-83064113D01*
X106679528Y-83217649D01*
X106628992Y-83384245D01*
X106611928Y-83557499D01*
X106611928Y-83765071D01*
X102936999Y-87440001D01*
X102180097Y-87440001D01*
X102180000Y-87425750D01*
X102021250Y-87267000D01*
X101533072Y-87267000D01*
X101533072Y-87013000D01*
X102021250Y-87013000D01*
X102180000Y-86854250D01*
X102182999Y-86414623D01*
X102172618Y-86289971D01*
X102138117Y-86169739D01*
X102080823Y-86058548D01*
X102002938Y-85960671D01*
X101984158Y-85944779D01*
X102164792Y-85764145D01*
X102196843Y-85737841D01*
X102269408Y-85649422D01*
X102301814Y-85609935D01*
X102379813Y-85464008D01*
X102427846Y-85305667D01*
X102430324Y-85280506D01*
X102440000Y-85182262D01*
X102440000Y-85182254D01*
X102444063Y-85140998D01*
X102440000Y-85099742D01*
X102440000Y-84557029D01*
X102568386Y-84488405D01*
X102702962Y-84377962D01*
X102813405Y-84243386D01*
X102895472Y-84089850D01*
X102946008Y-83923254D01*
X102963072Y-83750000D01*
X102963072Y-83250000D01*
X102946008Y-83076746D01*
X102895472Y-82910150D01*
X102813405Y-82756614D01*
X102702962Y-82622038D01*
X102696406Y-82616658D01*
X102776185Y-82551185D01*
X102855537Y-82454494D01*
X102914502Y-82344180D01*
X102950812Y-82224482D01*
X102963072Y-82100000D01*
X102960000Y-81885750D01*
X102801250Y-81727000D01*
X101727000Y-81727000D01*
X101727000Y-81747000D01*
X101473000Y-81747000D01*
X101473000Y-81727000D01*
X100398750Y-81727000D01*
X100240000Y-81885750D01*
X100236928Y-82100000D01*
X100249188Y-82224482D01*
X100285498Y-82344180D01*
X100344463Y-82454494D01*
X100423815Y-82551185D01*
X100503594Y-82616658D01*
X100497038Y-82622038D01*
X100386595Y-82756614D01*
X100304528Y-82910150D01*
X100253992Y-83076746D01*
X100236928Y-83250000D01*
X100236928Y-83603928D01*
X98548000Y-81915000D01*
X99363000Y-81100000D01*
X100236928Y-81100000D01*
X100240000Y-81314250D01*
X100398750Y-81473000D01*
X101473000Y-81473000D01*
X101473000Y-80623750D01*
X101727000Y-80623750D01*
X101727000Y-81473000D01*
X102801250Y-81473000D01*
X102960000Y-81314250D01*
X102963072Y-81100000D01*
X102950812Y-80975518D01*
X102914502Y-80855820D01*
X102855537Y-80745506D01*
X102776185Y-80648815D01*
X102679494Y-80569463D01*
X102569180Y-80510498D01*
X102449482Y-80474188D01*
X102325000Y-80461928D01*
X101885750Y-80465000D01*
X101727000Y-80623750D01*
X101473000Y-80623750D01*
X101314250Y-80465000D01*
X100875000Y-80461928D01*
X100750518Y-80474188D01*
X100630820Y-80510498D01*
X100520506Y-80569463D01*
X100423815Y-80648815D01*
X100344463Y-80745506D01*
X100285498Y-80855820D01*
X100249188Y-80975518D01*
X100236928Y-81100000D01*
X99363000Y-81100000D01*
X100359928Y-80103072D01*
X100580000Y-80103072D01*
X100753254Y-80086008D01*
X100919850Y-80035472D01*
X101073386Y-79953405D01*
X101207962Y-79842962D01*
X101213342Y-79836406D01*
X101278815Y-79916185D01*
X101375506Y-79995537D01*
X101485820Y-80054502D01*
X101605518Y-80090812D01*
X101730000Y-80103072D01*
X101944250Y-80100000D01*
X102103000Y-79941250D01*
X102103000Y-78867000D01*
X102357000Y-78867000D01*
X102357000Y-79941250D01*
X102515750Y-80100000D01*
X102730000Y-80103072D01*
X102854482Y-80090812D01*
X102974180Y-80054502D01*
X103084494Y-79995537D01*
X103181185Y-79916185D01*
X103260537Y-79819494D01*
X103319502Y-79709180D01*
X103355812Y-79589482D01*
X103368072Y-79465000D01*
X104591928Y-79465000D01*
X104604188Y-79589482D01*
X104640498Y-79709180D01*
X104699463Y-79819494D01*
X104778815Y-79916185D01*
X104875506Y-79995537D01*
X104985820Y-80054502D01*
X105105518Y-80090812D01*
X105230000Y-80103072D01*
X105444250Y-80100000D01*
X105603000Y-79941250D01*
X105603000Y-78867000D01*
X104753750Y-78867000D01*
X104595000Y-79025750D01*
X104591928Y-79465000D01*
X103368072Y-79465000D01*
X103365000Y-79025750D01*
X103206250Y-78867000D01*
X102357000Y-78867000D01*
X102103000Y-78867000D01*
X102083000Y-78867000D01*
X102083000Y-78613000D01*
X102103000Y-78613000D01*
X102103000Y-78593000D01*
X102357000Y-78593000D01*
X102357000Y-78613000D01*
X103206250Y-78613000D01*
X103365000Y-78454250D01*
X103368072Y-78015000D01*
X104591928Y-78015000D01*
X104595000Y-78454250D01*
X104753750Y-78613000D01*
X105603000Y-78613000D01*
X105603000Y-77538750D01*
X105444250Y-77380000D01*
X105230000Y-77376928D01*
X105105518Y-77389188D01*
X104985820Y-77425498D01*
X104875506Y-77484463D01*
X104778815Y-77563815D01*
X104699463Y-77660506D01*
X104640498Y-77770820D01*
X104604188Y-77890518D01*
X104591928Y-78015000D01*
X103368072Y-78015000D01*
X103355812Y-77890518D01*
X103319502Y-77770820D01*
X103260537Y-77660506D01*
X103181185Y-77563815D01*
X103084494Y-77484463D01*
X103015445Y-77447555D01*
X105818001Y-74645000D01*
X106086928Y-74645000D01*
X106086928Y-74875000D01*
G37*
%TD.AperFunction*%
D26*
X88970208Y-79819792D02*
X89103836Y-79929458D01*
X89256291Y-80010947D01*
X89421715Y-80061128D01*
X89572708Y-80076000D01*
X89538815Y-80103815D01*
X89459463Y-80200506D01*
X89400498Y-80310820D01*
X89364188Y-80430518D01*
X89351928Y-80555000D01*
X89355000Y-80994250D01*
X89513750Y-81153000D01*
X90363000Y-81153000D01*
X90363000Y-81133000D01*
X90617000Y-81133000D01*
X90617000Y-81153000D01*
X90637000Y-81153000D01*
X90637000Y-81407000D01*
X90617000Y-81407000D01*
X90617000Y-82481250D01*
X90775750Y-82640000D01*
X90990000Y-82643072D01*
X91114482Y-82630812D01*
X91234180Y-82594502D01*
X91344494Y-82535537D01*
X91441185Y-82456185D01*
X91506658Y-82376406D01*
X91512038Y-82382962D01*
X91646614Y-82493405D01*
X91800150Y-82575472D01*
X91966746Y-82626008D01*
X92140000Y-82643072D01*
X92640000Y-82643072D01*
X92813254Y-82626008D01*
X92979850Y-82575472D01*
X93133386Y-82493405D01*
X93267962Y-82382962D01*
X93364770Y-82265000D01*
X94802297Y-82265000D01*
X94817038Y-82282962D01*
X94951614Y-82393405D01*
X95105150Y-82475472D01*
X95271746Y-82526008D01*
X95445000Y-82543072D01*
X96390072Y-82543072D01*
X99165000Y-85318000D01*
X99165000Y-85697001D01*
X98535715Y-85067716D01*
X98504869Y-85030130D01*
X98354883Y-84907040D01*
X98183766Y-84815576D01*
X97998093Y-84759253D01*
X97853379Y-84745000D01*
X97804999Y-84740235D01*
X97756619Y-84745000D01*
X93682535Y-84745000D01*
X93678386Y-84741595D01*
X93524850Y-84659528D01*
X93358254Y-84608992D01*
X93185000Y-84591928D01*
X92235000Y-84591928D01*
X92061746Y-84608992D01*
X91895150Y-84659528D01*
X91741614Y-84741595D01*
X91607038Y-84852038D01*
X91496595Y-84986614D01*
X91414528Y-85140150D01*
X91363992Y-85306746D01*
X91357270Y-85375000D01*
X88947500Y-85375000D01*
X88947500Y-82005000D01*
X89351928Y-82005000D01*
X89364188Y-82129482D01*
X89400498Y-82249180D01*
X89459463Y-82359494D01*
X89538815Y-82456185D01*
X89635506Y-82535537D01*
X89745820Y-82594502D01*
X89865518Y-82630812D01*
X89990000Y-82643072D01*
X90204250Y-82640000D01*
X90363000Y-82481250D01*
X90363000Y-81407000D01*
X89513750Y-81407000D01*
X89355000Y-81565750D01*
X89351928Y-82005000D01*
X88947500Y-82005000D01*
X88947500Y-79792122D01*
X88970208Y-79819792D01*
%TA.AperFunction,Conductor*%
D27*
G36*
X88970208Y-79819792D02*
G01*
X89103836Y-79929458D01*
X89256291Y-80010947D01*
X89421715Y-80061128D01*
X89572708Y-80076000D01*
X89538815Y-80103815D01*
X89459463Y-80200506D01*
X89400498Y-80310820D01*
X89364188Y-80430518D01*
X89351928Y-80555000D01*
X89355000Y-80994250D01*
X89513750Y-81153000D01*
X90363000Y-81153000D01*
X90363000Y-81133000D01*
X90617000Y-81133000D01*
X90617000Y-81153000D01*
X90637000Y-81153000D01*
X90637000Y-81407000D01*
X90617000Y-81407000D01*
X90617000Y-82481250D01*
X90775750Y-82640000D01*
X90990000Y-82643072D01*
X91114482Y-82630812D01*
X91234180Y-82594502D01*
X91344494Y-82535537D01*
X91441185Y-82456185D01*
X91506658Y-82376406D01*
X91512038Y-82382962D01*
X91646614Y-82493405D01*
X91800150Y-82575472D01*
X91966746Y-82626008D01*
X92140000Y-82643072D01*
X92640000Y-82643072D01*
X92813254Y-82626008D01*
X92979850Y-82575472D01*
X93133386Y-82493405D01*
X93267962Y-82382962D01*
X93364770Y-82265000D01*
X94802297Y-82265000D01*
X94817038Y-82282962D01*
X94951614Y-82393405D01*
X95105150Y-82475472D01*
X95271746Y-82526008D01*
X95445000Y-82543072D01*
X96390072Y-82543072D01*
X99165000Y-85318000D01*
X99165000Y-85697001D01*
X98535715Y-85067716D01*
X98504869Y-85030130D01*
X98354883Y-84907040D01*
X98183766Y-84815576D01*
X97998093Y-84759253D01*
X97853379Y-84745000D01*
X97804999Y-84740235D01*
X97756619Y-84745000D01*
X93682535Y-84745000D01*
X93678386Y-84741595D01*
X93524850Y-84659528D01*
X93358254Y-84608992D01*
X93185000Y-84591928D01*
X92235000Y-84591928D01*
X92061746Y-84608992D01*
X91895150Y-84659528D01*
X91741614Y-84741595D01*
X91607038Y-84852038D01*
X91496595Y-84986614D01*
X91414528Y-85140150D01*
X91363992Y-85306746D01*
X91357270Y-85375000D01*
X88947500Y-85375000D01*
X88947500Y-82005000D01*
X89351928Y-82005000D01*
X89364188Y-82129482D01*
X89400498Y-82249180D01*
X89459463Y-82359494D01*
X89538815Y-82456185D01*
X89635506Y-82535537D01*
X89745820Y-82594502D01*
X89865518Y-82630812D01*
X89990000Y-82643072D01*
X90204250Y-82640000D01*
X90363000Y-82481250D01*
X90363000Y-81407000D01*
X89513750Y-81407000D01*
X89355000Y-81565750D01*
X89351928Y-82005000D01*
X88947500Y-82005000D01*
X88947500Y-79792122D01*
X88970208Y-79819792D01*
G37*
%TD.AperFunction*%
D26*
X87458000Y-60949765D02*
X87506380Y-60945000D01*
X87605000Y-60945000D01*
X87605000Y-60984713D01*
X87506380Y-60975000D01*
X87311000Y-60975000D01*
X87311000Y-60945000D01*
X87409620Y-60945000D01*
X87458000Y-60949765D01*
%TA.AperFunction,Conductor*%
D27*
G36*
X87458000Y-60949765D02*
G01*
X87506380Y-60945000D01*
X87605000Y-60945000D01*
X87605000Y-60984713D01*
X87506380Y-60975000D01*
X87311000Y-60975000D01*
X87311000Y-60945000D01*
X87409620Y-60945000D01*
X87458000Y-60949765D01*
G37*
%TD.AperFunction*%
%TD*%
M02*
