%TF.GenerationSoftware,KiCad,Pcbnew,(5.1.10)-1*%
%TF.CreationDate,2021-08-29T18:49:46-07:00*%
%TF.ProjectId,Solar Charger,536f6c61-7220-4436-9861-726765722e6b,rev?*%
%TF.SameCoordinates,Original*%
%TF.FileFunction,Paste,Top*%
%TF.FilePolarity,Positive*%
%FSLAX46Y46*%
G04 Gerber Fmt 4.6, Leading zero omitted, Abs format (unit mm)*
G04 Created by KiCad (PCBNEW (5.1.10)-1) date 2021-08-29 18:49:46*
%MOMM*%
%LPD*%
G01*
G04 APERTURE LIST*
%ADD10R,0.480000X1.470000*%
%ADD11R,1.525000X0.650000*%
%ADD12R,1.470000X0.480000*%
%ADD13R,2.620000X3.810000*%
%ADD14R,1.600000X0.610000*%
%ADD15R,0.900000X0.800000*%
G04 APERTURE END LIST*
D10*
%TO.C,U4*%
X101305000Y-87140000D03*
X100655000Y-87140000D03*
X100005000Y-87140000D03*
X99355000Y-87140000D03*
X99355000Y-91440000D03*
X100005000Y-91440000D03*
X100655000Y-91440000D03*
X101305000Y-91440000D03*
%TD*%
D11*
%TO.C,U3*%
X87458000Y-59960000D03*
X87458000Y-60960000D03*
X87458000Y-61960000D03*
X87458000Y-62960000D03*
X87458000Y-63960000D03*
X92882000Y-63960000D03*
X92882000Y-62960000D03*
X92882000Y-61960000D03*
X92882000Y-60960000D03*
X92882000Y-59960000D03*
%TD*%
D12*
%TO.C,U2*%
X111760000Y-74635000D03*
X111760000Y-73985000D03*
X111760000Y-73335000D03*
X111760000Y-72685000D03*
X107460000Y-72685000D03*
X107460000Y-73335000D03*
X107460000Y-73985000D03*
X107460000Y-74635000D03*
%TD*%
D13*
%TO.C,U1*%
X119380000Y-57150000D03*
D14*
X122080000Y-57635000D03*
X116680000Y-55095000D03*
X116680000Y-56365000D03*
X116680000Y-57635000D03*
X116680000Y-58905000D03*
X122080000Y-55095000D03*
X122080000Y-56365000D03*
X122080000Y-58905000D03*
%TD*%
%TO.C,R10*%
G36*
G01*
X107992500Y-91890001D02*
X107992500Y-90989999D01*
G75*
G02*
X108242499Y-90740000I249999J0D01*
G01*
X108767501Y-90740000D01*
G75*
G02*
X109017500Y-90989999I0J-249999D01*
G01*
X109017500Y-91890001D01*
G75*
G02*
X108767501Y-92140000I-249999J0D01*
G01*
X108242499Y-92140000D01*
G75*
G02*
X107992500Y-91890001I0J249999D01*
G01*
G37*
G36*
G01*
X106167500Y-91890001D02*
X106167500Y-90989999D01*
G75*
G02*
X106417499Y-90740000I249999J0D01*
G01*
X106942501Y-90740000D01*
G75*
G02*
X107192500Y-90989999I0J-249999D01*
G01*
X107192500Y-91890001D01*
G75*
G02*
X106942501Y-92140000I-249999J0D01*
G01*
X106417499Y-92140000D01*
G75*
G02*
X106167500Y-91890001I0J249999D01*
G01*
G37*
%TD*%
%TO.C,R9*%
G36*
G01*
X99510001Y-61830000D02*
X98609999Y-61830000D01*
G75*
G02*
X98360000Y-61580001I0J249999D01*
G01*
X98360000Y-61054999D01*
G75*
G02*
X98609999Y-60805000I249999J0D01*
G01*
X99510001Y-60805000D01*
G75*
G02*
X99760000Y-61054999I0J-249999D01*
G01*
X99760000Y-61580001D01*
G75*
G02*
X99510001Y-61830000I-249999J0D01*
G01*
G37*
G36*
G01*
X99510001Y-63655000D02*
X98609999Y-63655000D01*
G75*
G02*
X98360000Y-63405001I0J249999D01*
G01*
X98360000Y-62879999D01*
G75*
G02*
X98609999Y-62630000I249999J0D01*
G01*
X99510001Y-62630000D01*
G75*
G02*
X99760000Y-62879999I0J-249999D01*
G01*
X99760000Y-63405001D01*
G75*
G02*
X99510001Y-63655000I-249999J0D01*
G01*
G37*
%TD*%
%TO.C,R8*%
G36*
G01*
X99510001Y-69092500D02*
X98609999Y-69092500D01*
G75*
G02*
X98360000Y-68842501I0J249999D01*
G01*
X98360000Y-68317499D01*
G75*
G02*
X98609999Y-68067500I249999J0D01*
G01*
X99510001Y-68067500D01*
G75*
G02*
X99760000Y-68317499I0J-249999D01*
G01*
X99760000Y-68842501D01*
G75*
G02*
X99510001Y-69092500I-249999J0D01*
G01*
G37*
G36*
G01*
X99510001Y-70917500D02*
X98609999Y-70917500D01*
G75*
G02*
X98360000Y-70667501I0J249999D01*
G01*
X98360000Y-70142499D01*
G75*
G02*
X98609999Y-69892500I249999J0D01*
G01*
X99510001Y-69892500D01*
G75*
G02*
X99760000Y-70142499I0J-249999D01*
G01*
X99760000Y-70667501D01*
G75*
G02*
X99510001Y-70917500I-249999J0D01*
G01*
G37*
%TD*%
%TO.C,R7*%
G36*
G01*
X93467500Y-67760001D02*
X93467500Y-66859999D01*
G75*
G02*
X93717499Y-66610000I249999J0D01*
G01*
X94242501Y-66610000D01*
G75*
G02*
X94492500Y-66859999I0J-249999D01*
G01*
X94492500Y-67760001D01*
G75*
G02*
X94242501Y-68010000I-249999J0D01*
G01*
X93717499Y-68010000D01*
G75*
G02*
X93467500Y-67760001I0J249999D01*
G01*
G37*
G36*
G01*
X91642500Y-67760001D02*
X91642500Y-66859999D01*
G75*
G02*
X91892499Y-66610000I249999J0D01*
G01*
X92417501Y-66610000D01*
G75*
G02*
X92667500Y-66859999I0J-249999D01*
G01*
X92667500Y-67760001D01*
G75*
G02*
X92417501Y-68010000I-249999J0D01*
G01*
X91892499Y-68010000D01*
G75*
G02*
X91642500Y-67760001I0J249999D01*
G01*
G37*
%TD*%
%TO.C,R6*%
G36*
G01*
X110039999Y-80410000D02*
X110940001Y-80410000D01*
G75*
G02*
X111190000Y-80659999I0J-249999D01*
G01*
X111190000Y-81185001D01*
G75*
G02*
X110940001Y-81435000I-249999J0D01*
G01*
X110039999Y-81435000D01*
G75*
G02*
X109790000Y-81185001I0J249999D01*
G01*
X109790000Y-80659999D01*
G75*
G02*
X110039999Y-80410000I249999J0D01*
G01*
G37*
G36*
G01*
X110039999Y-78585000D02*
X110940001Y-78585000D01*
G75*
G02*
X111190000Y-78834999I0J-249999D01*
G01*
X111190000Y-79360001D01*
G75*
G02*
X110940001Y-79610000I-249999J0D01*
G01*
X110039999Y-79610000D01*
G75*
G02*
X109790000Y-79360001I0J249999D01*
G01*
X109790000Y-78834999D01*
G75*
G02*
X110039999Y-78585000I249999J0D01*
G01*
G37*
%TD*%
%TO.C,R5*%
G36*
G01*
X108400001Y-82507500D02*
X107499999Y-82507500D01*
G75*
G02*
X107250000Y-82257501I0J249999D01*
G01*
X107250000Y-81732499D01*
G75*
G02*
X107499999Y-81482500I249999J0D01*
G01*
X108400001Y-81482500D01*
G75*
G02*
X108650000Y-81732499I0J-249999D01*
G01*
X108650000Y-82257501D01*
G75*
G02*
X108400001Y-82507500I-249999J0D01*
G01*
G37*
G36*
G01*
X108400001Y-84332500D02*
X107499999Y-84332500D01*
G75*
G02*
X107250000Y-84082501I0J249999D01*
G01*
X107250000Y-83557499D01*
G75*
G02*
X107499999Y-83307500I249999J0D01*
G01*
X108400001Y-83307500D01*
G75*
G02*
X108650000Y-83557499I0J-249999D01*
G01*
X108650000Y-84082501D01*
G75*
G02*
X108400001Y-84332500I-249999J0D01*
G01*
G37*
%TD*%
%TO.C,R4*%
G36*
G01*
X113849999Y-80410000D02*
X114750001Y-80410000D01*
G75*
G02*
X115000000Y-80659999I0J-249999D01*
G01*
X115000000Y-81185001D01*
G75*
G02*
X114750001Y-81435000I-249999J0D01*
G01*
X113849999Y-81435000D01*
G75*
G02*
X113600000Y-81185001I0J249999D01*
G01*
X113600000Y-80659999D01*
G75*
G02*
X113849999Y-80410000I249999J0D01*
G01*
G37*
G36*
G01*
X113849999Y-78585000D02*
X114750001Y-78585000D01*
G75*
G02*
X115000000Y-78834999I0J-249999D01*
G01*
X115000000Y-79360001D01*
G75*
G02*
X114750001Y-79610000I-249999J0D01*
G01*
X113849999Y-79610000D01*
G75*
G02*
X113600000Y-79360001I0J249999D01*
G01*
X113600000Y-78834999D01*
G75*
G02*
X113849999Y-78585000I249999J0D01*
G01*
G37*
%TD*%
%TO.C,R3*%
G36*
G01*
X89350001Y-70720000D02*
X88449999Y-70720000D01*
G75*
G02*
X88200000Y-70470001I0J249999D01*
G01*
X88200000Y-69944999D01*
G75*
G02*
X88449999Y-69695000I249999J0D01*
G01*
X89350001Y-69695000D01*
G75*
G02*
X89600000Y-69944999I0J-249999D01*
G01*
X89600000Y-70470001D01*
G75*
G02*
X89350001Y-70720000I-249999J0D01*
G01*
G37*
G36*
G01*
X89350001Y-72545000D02*
X88449999Y-72545000D01*
G75*
G02*
X88200000Y-72295001I0J249999D01*
G01*
X88200000Y-71769999D01*
G75*
G02*
X88449999Y-71520000I249999J0D01*
G01*
X89350001Y-71520000D01*
G75*
G02*
X89600000Y-71769999I0J-249999D01*
G01*
X89600000Y-72295001D01*
G75*
G02*
X89350001Y-72545000I-249999J0D01*
G01*
G37*
%TD*%
%TO.C,R2*%
G36*
G01*
X72205001Y-67187500D02*
X71304999Y-67187500D01*
G75*
G02*
X71055000Y-66937501I0J249999D01*
G01*
X71055000Y-66412499D01*
G75*
G02*
X71304999Y-66162500I249999J0D01*
G01*
X72205001Y-66162500D01*
G75*
G02*
X72455000Y-66412499I0J-249999D01*
G01*
X72455000Y-66937501D01*
G75*
G02*
X72205001Y-67187500I-249999J0D01*
G01*
G37*
G36*
G01*
X72205001Y-69012500D02*
X71304999Y-69012500D01*
G75*
G02*
X71055000Y-68762501I0J249999D01*
G01*
X71055000Y-68237499D01*
G75*
G02*
X71304999Y-67987500I249999J0D01*
G01*
X72205001Y-67987500D01*
G75*
G02*
X72455000Y-68237499I0J-249999D01*
G01*
X72455000Y-68762501D01*
G75*
G02*
X72205001Y-69012500I-249999J0D01*
G01*
G37*
%TD*%
%TO.C,R1*%
G36*
G01*
X111360000Y-65589999D02*
X111360000Y-66490001D01*
G75*
G02*
X111110001Y-66740000I-249999J0D01*
G01*
X110584999Y-66740000D01*
G75*
G02*
X110335000Y-66490001I0J249999D01*
G01*
X110335000Y-65589999D01*
G75*
G02*
X110584999Y-65340000I249999J0D01*
G01*
X111110001Y-65340000D01*
G75*
G02*
X111360000Y-65589999I0J-249999D01*
G01*
G37*
G36*
G01*
X113185000Y-65589999D02*
X113185000Y-66490001D01*
G75*
G02*
X112935001Y-66740000I-249999J0D01*
G01*
X112409999Y-66740000D01*
G75*
G02*
X112160000Y-66490001I0J249999D01*
G01*
X112160000Y-65589999D01*
G75*
G02*
X112409999Y-65340000I249999J0D01*
G01*
X112935001Y-65340000D01*
G75*
G02*
X113185000Y-65589999I0J-249999D01*
G01*
G37*
%TD*%
D15*
%TO.C,Q1*%
X87900000Y-55880000D03*
X89900000Y-54930000D03*
X89900000Y-56830000D03*
%TD*%
%TO.C,L2*%
G36*
G01*
X106485000Y-55105000D02*
X104335000Y-55105000D01*
G75*
G02*
X104085000Y-54855000I0J250000D01*
G01*
X104085000Y-54105000D01*
G75*
G02*
X104335000Y-53855000I250000J0D01*
G01*
X106485000Y-53855000D01*
G75*
G02*
X106735000Y-54105000I0J-250000D01*
G01*
X106735000Y-54855000D01*
G75*
G02*
X106485000Y-55105000I-250000J0D01*
G01*
G37*
G36*
G01*
X106485000Y-57905000D02*
X104335000Y-57905000D01*
G75*
G02*
X104085000Y-57655000I0J250000D01*
G01*
X104085000Y-56905000D01*
G75*
G02*
X104335000Y-56655000I250000J0D01*
G01*
X106485000Y-56655000D01*
G75*
G02*
X106735000Y-56905000I0J-250000D01*
G01*
X106735000Y-57655000D01*
G75*
G02*
X106485000Y-57905000I-250000J0D01*
G01*
G37*
%TD*%
%TO.C,L1*%
G36*
G01*
X97595000Y-79105000D02*
X95445000Y-79105000D01*
G75*
G02*
X95195000Y-78855000I0J250000D01*
G01*
X95195000Y-78105000D01*
G75*
G02*
X95445000Y-77855000I250000J0D01*
G01*
X97595000Y-77855000D01*
G75*
G02*
X97845000Y-78105000I0J-250000D01*
G01*
X97845000Y-78855000D01*
G75*
G02*
X97595000Y-79105000I-250000J0D01*
G01*
G37*
G36*
G01*
X97595000Y-81905000D02*
X95445000Y-81905000D01*
G75*
G02*
X95195000Y-81655000I0J250000D01*
G01*
X95195000Y-80905000D01*
G75*
G02*
X95445000Y-80655000I250000J0D01*
G01*
X97595000Y-80655000D01*
G75*
G02*
X97845000Y-80905000I0J-250000D01*
G01*
X97845000Y-81655000D01*
G75*
G02*
X97595000Y-81905000I-250000J0D01*
G01*
G37*
%TD*%
%TO.C,D6*%
G36*
G01*
X88443750Y-95700000D02*
X89356250Y-95700000D01*
G75*
G02*
X89600000Y-95943750I0J-243750D01*
G01*
X89600000Y-96431250D01*
G75*
G02*
X89356250Y-96675000I-243750J0D01*
G01*
X88443750Y-96675000D01*
G75*
G02*
X88200000Y-96431250I0J243750D01*
G01*
X88200000Y-95943750D01*
G75*
G02*
X88443750Y-95700000I243750J0D01*
G01*
G37*
G36*
G01*
X88443750Y-93825000D02*
X89356250Y-93825000D01*
G75*
G02*
X89600000Y-94068750I0J-243750D01*
G01*
X89600000Y-94556250D01*
G75*
G02*
X89356250Y-94800000I-243750J0D01*
G01*
X88443750Y-94800000D01*
G75*
G02*
X88200000Y-94556250I0J243750D01*
G01*
X88200000Y-94068750D01*
G75*
G02*
X88443750Y-93825000I243750J0D01*
G01*
G37*
%TD*%
%TO.C,D5*%
G36*
G01*
X99516250Y-55430000D02*
X98603750Y-55430000D01*
G75*
G02*
X98360000Y-55186250I0J243750D01*
G01*
X98360000Y-54698750D01*
G75*
G02*
X98603750Y-54455000I243750J0D01*
G01*
X99516250Y-54455000D01*
G75*
G02*
X99760000Y-54698750I0J-243750D01*
G01*
X99760000Y-55186250D01*
G75*
G02*
X99516250Y-55430000I-243750J0D01*
G01*
G37*
G36*
G01*
X99516250Y-57305000D02*
X98603750Y-57305000D01*
G75*
G02*
X98360000Y-57061250I0J243750D01*
G01*
X98360000Y-56573750D01*
G75*
G02*
X98603750Y-56330000I243750J0D01*
G01*
X99516250Y-56330000D01*
G75*
G02*
X99760000Y-56573750I0J-243750D01*
G01*
X99760000Y-57061250D01*
G75*
G02*
X99516250Y-57305000I-243750J0D01*
G01*
G37*
%TD*%
%TO.C,D4*%
G36*
G01*
X93197500Y-55423750D02*
X93197500Y-56336250D01*
G75*
G02*
X92953750Y-56580000I-243750J0D01*
G01*
X92466250Y-56580000D01*
G75*
G02*
X92222500Y-56336250I0J243750D01*
G01*
X92222500Y-55423750D01*
G75*
G02*
X92466250Y-55180000I243750J0D01*
G01*
X92953750Y-55180000D01*
G75*
G02*
X93197500Y-55423750I0J-243750D01*
G01*
G37*
G36*
G01*
X95072500Y-55423750D02*
X95072500Y-56336250D01*
G75*
G02*
X94828750Y-56580000I-243750J0D01*
G01*
X94341250Y-56580000D01*
G75*
G02*
X94097500Y-56336250I0J243750D01*
G01*
X94097500Y-55423750D01*
G75*
G02*
X94341250Y-55180000I243750J0D01*
G01*
X94828750Y-55180000D01*
G75*
G02*
X95072500Y-55423750I0J-243750D01*
G01*
G37*
%TD*%
%TO.C,D3*%
G36*
G01*
X89350000Y-79196250D02*
X89350000Y-78283750D01*
G75*
G02*
X89593750Y-78040000I243750J0D01*
G01*
X90081250Y-78040000D01*
G75*
G02*
X90325000Y-78283750I0J-243750D01*
G01*
X90325000Y-79196250D01*
G75*
G02*
X90081250Y-79440000I-243750J0D01*
G01*
X89593750Y-79440000D01*
G75*
G02*
X89350000Y-79196250I0J243750D01*
G01*
G37*
G36*
G01*
X87475000Y-79196250D02*
X87475000Y-78283750D01*
G75*
G02*
X87718750Y-78040000I243750J0D01*
G01*
X88206250Y-78040000D01*
G75*
G02*
X88450000Y-78283750I0J-243750D01*
G01*
X88450000Y-79196250D01*
G75*
G02*
X88206250Y-79440000I-243750J0D01*
G01*
X87718750Y-79440000D01*
G75*
G02*
X87475000Y-79196250I0J243750D01*
G01*
G37*
%TD*%
%TO.C,C12*%
G36*
G01*
X90990000Y-80805000D02*
X90990000Y-81755000D01*
G75*
G02*
X90740000Y-82005000I-250000J0D01*
G01*
X90240000Y-82005000D01*
G75*
G02*
X89990000Y-81755000I0J250000D01*
G01*
X89990000Y-80805000D01*
G75*
G02*
X90240000Y-80555000I250000J0D01*
G01*
X90740000Y-80555000D01*
G75*
G02*
X90990000Y-80805000I0J-250000D01*
G01*
G37*
G36*
G01*
X92890000Y-80805000D02*
X92890000Y-81755000D01*
G75*
G02*
X92640000Y-82005000I-250000J0D01*
G01*
X92140000Y-82005000D01*
G75*
G02*
X91890000Y-81755000I0J250000D01*
G01*
X91890000Y-80805000D01*
G75*
G02*
X92140000Y-80555000I250000J0D01*
G01*
X92640000Y-80555000D01*
G75*
G02*
X92890000Y-80805000I0J-250000D01*
G01*
G37*
%TD*%
%TO.C,C11*%
G36*
G01*
X101730000Y-79215000D02*
X101730000Y-78265000D01*
G75*
G02*
X101980000Y-78015000I250000J0D01*
G01*
X102480000Y-78015000D01*
G75*
G02*
X102730000Y-78265000I0J-250000D01*
G01*
X102730000Y-79215000D01*
G75*
G02*
X102480000Y-79465000I-250000J0D01*
G01*
X101980000Y-79465000D01*
G75*
G02*
X101730000Y-79215000I0J250000D01*
G01*
G37*
G36*
G01*
X99830000Y-79215000D02*
X99830000Y-78265000D01*
G75*
G02*
X100080000Y-78015000I250000J0D01*
G01*
X100580000Y-78015000D01*
G75*
G02*
X100830000Y-78265000I0J-250000D01*
G01*
X100830000Y-79215000D01*
G75*
G02*
X100580000Y-79465000I-250000J0D01*
G01*
X100080000Y-79465000D01*
G75*
G02*
X99830000Y-79215000I0J250000D01*
G01*
G37*
%TD*%
%TO.C,C10*%
G36*
G01*
X104935000Y-67760000D02*
X105885000Y-67760000D01*
G75*
G02*
X106135000Y-68010000I0J-250000D01*
G01*
X106135000Y-68510000D01*
G75*
G02*
X105885000Y-68760000I-250000J0D01*
G01*
X104935000Y-68760000D01*
G75*
G02*
X104685000Y-68510000I0J250000D01*
G01*
X104685000Y-68010000D01*
G75*
G02*
X104935000Y-67760000I250000J0D01*
G01*
G37*
G36*
G01*
X104935000Y-65860000D02*
X105885000Y-65860000D01*
G75*
G02*
X106135000Y-66110000I0J-250000D01*
G01*
X106135000Y-66610000D01*
G75*
G02*
X105885000Y-66860000I-250000J0D01*
G01*
X104935000Y-66860000D01*
G75*
G02*
X104685000Y-66610000I0J250000D01*
G01*
X104685000Y-66110000D01*
G75*
G02*
X104935000Y-65860000I250000J0D01*
G01*
G37*
%TD*%
%TO.C,C9*%
G36*
G01*
X94775000Y-95700000D02*
X95725000Y-95700000D01*
G75*
G02*
X95975000Y-95950000I0J-250000D01*
G01*
X95975000Y-96450000D01*
G75*
G02*
X95725000Y-96700000I-250000J0D01*
G01*
X94775000Y-96700000D01*
G75*
G02*
X94525000Y-96450000I0J250000D01*
G01*
X94525000Y-95950000D01*
G75*
G02*
X94775000Y-95700000I250000J0D01*
G01*
G37*
G36*
G01*
X94775000Y-93800000D02*
X95725000Y-93800000D01*
G75*
G02*
X95975000Y-94050000I0J-250000D01*
G01*
X95975000Y-94550000D01*
G75*
G02*
X95725000Y-94800000I-250000J0D01*
G01*
X94775000Y-94800000D01*
G75*
G02*
X94525000Y-94550000I0J250000D01*
G01*
X94525000Y-94050000D01*
G75*
G02*
X94775000Y-93800000I250000J0D01*
G01*
G37*
%TD*%
%TO.C,C8*%
G36*
G01*
X104935000Y-62680000D02*
X105885000Y-62680000D01*
G75*
G02*
X106135000Y-62930000I0J-250000D01*
G01*
X106135000Y-63430000D01*
G75*
G02*
X105885000Y-63680000I-250000J0D01*
G01*
X104935000Y-63680000D01*
G75*
G02*
X104685000Y-63430000I0J250000D01*
G01*
X104685000Y-62930000D01*
G75*
G02*
X104935000Y-62680000I250000J0D01*
G01*
G37*
G36*
G01*
X104935000Y-60780000D02*
X105885000Y-60780000D01*
G75*
G02*
X106135000Y-61030000I0J-250000D01*
G01*
X106135000Y-61530000D01*
G75*
G02*
X105885000Y-61780000I-250000J0D01*
G01*
X104935000Y-61780000D01*
G75*
G02*
X104685000Y-61530000I0J250000D01*
G01*
X104685000Y-61030000D01*
G75*
G02*
X104935000Y-60780000I250000J0D01*
G01*
G37*
%TD*%
%TO.C,C7*%
G36*
G01*
X102075000Y-82100000D02*
X101125000Y-82100000D01*
G75*
G02*
X100875000Y-81850000I0J250000D01*
G01*
X100875000Y-81350000D01*
G75*
G02*
X101125000Y-81100000I250000J0D01*
G01*
X102075000Y-81100000D01*
G75*
G02*
X102325000Y-81350000I0J-250000D01*
G01*
X102325000Y-81850000D01*
G75*
G02*
X102075000Y-82100000I-250000J0D01*
G01*
G37*
G36*
G01*
X102075000Y-84000000D02*
X101125000Y-84000000D01*
G75*
G02*
X100875000Y-83750000I0J250000D01*
G01*
X100875000Y-83250000D01*
G75*
G02*
X101125000Y-83000000I250000J0D01*
G01*
X102075000Y-83000000D01*
G75*
G02*
X102325000Y-83250000I0J-250000D01*
G01*
X102325000Y-83750000D01*
G75*
G02*
X102075000Y-84000000I-250000J0D01*
G01*
G37*
%TD*%
%TO.C,C6*%
G36*
G01*
X85910000Y-85885000D02*
X85910000Y-86835000D01*
G75*
G02*
X85660000Y-87085000I-250000J0D01*
G01*
X85160000Y-87085000D01*
G75*
G02*
X84910000Y-86835000I0J250000D01*
G01*
X84910000Y-85885000D01*
G75*
G02*
X85160000Y-85635000I250000J0D01*
G01*
X85660000Y-85635000D01*
G75*
G02*
X85910000Y-85885000I0J-250000D01*
G01*
G37*
G36*
G01*
X87810000Y-85885000D02*
X87810000Y-86835000D01*
G75*
G02*
X87560000Y-87085000I-250000J0D01*
G01*
X87060000Y-87085000D01*
G75*
G02*
X86810000Y-86835000I0J250000D01*
G01*
X86810000Y-85885000D01*
G75*
G02*
X87060000Y-85635000I250000J0D01*
G01*
X87560000Y-85635000D01*
G75*
G02*
X87810000Y-85885000I0J-250000D01*
G01*
G37*
%TD*%
%TO.C,C5*%
G36*
G01*
X93185000Y-86230000D02*
X92235000Y-86230000D01*
G75*
G02*
X91985000Y-85980000I0J250000D01*
G01*
X91985000Y-85480000D01*
G75*
G02*
X92235000Y-85230000I250000J0D01*
G01*
X93185000Y-85230000D01*
G75*
G02*
X93435000Y-85480000I0J-250000D01*
G01*
X93435000Y-85980000D01*
G75*
G02*
X93185000Y-86230000I-250000J0D01*
G01*
G37*
G36*
G01*
X93185000Y-88130000D02*
X92235000Y-88130000D01*
G75*
G02*
X91985000Y-87880000I0J250000D01*
G01*
X91985000Y-87380000D01*
G75*
G02*
X92235000Y-87130000I250000J0D01*
G01*
X93185000Y-87130000D01*
G75*
G02*
X93435000Y-87380000I0J-250000D01*
G01*
X93435000Y-87880000D01*
G75*
G02*
X93185000Y-88130000I-250000J0D01*
G01*
G37*
%TD*%
%TO.C,C4*%
G36*
G01*
X112580000Y-84615000D02*
X112580000Y-85565000D01*
G75*
G02*
X112330000Y-85815000I-250000J0D01*
G01*
X111830000Y-85815000D01*
G75*
G02*
X111580000Y-85565000I0J250000D01*
G01*
X111580000Y-84615000D01*
G75*
G02*
X111830000Y-84365000I250000J0D01*
G01*
X112330000Y-84365000D01*
G75*
G02*
X112580000Y-84615000I0J-250000D01*
G01*
G37*
G36*
G01*
X114480000Y-84615000D02*
X114480000Y-85565000D01*
G75*
G02*
X114230000Y-85815000I-250000J0D01*
G01*
X113730000Y-85815000D01*
G75*
G02*
X113480000Y-85565000I0J250000D01*
G01*
X113480000Y-84615000D01*
G75*
G02*
X113730000Y-84365000I250000J0D01*
G01*
X114230000Y-84365000D01*
G75*
G02*
X114480000Y-84615000I0J-250000D01*
G01*
G37*
%TD*%
%TO.C,C3*%
G36*
G01*
X107130000Y-79215000D02*
X107130000Y-78265000D01*
G75*
G02*
X107380000Y-78015000I250000J0D01*
G01*
X107880000Y-78015000D01*
G75*
G02*
X108130000Y-78265000I0J-250000D01*
G01*
X108130000Y-79215000D01*
G75*
G02*
X107880000Y-79465000I-250000J0D01*
G01*
X107380000Y-79465000D01*
G75*
G02*
X107130000Y-79215000I0J250000D01*
G01*
G37*
G36*
G01*
X105230000Y-79215000D02*
X105230000Y-78265000D01*
G75*
G02*
X105480000Y-78015000I250000J0D01*
G01*
X105980000Y-78015000D01*
G75*
G02*
X106230000Y-78265000I0J-250000D01*
G01*
X106230000Y-79215000D01*
G75*
G02*
X105980000Y-79465000I-250000J0D01*
G01*
X105480000Y-79465000D01*
G75*
G02*
X105230000Y-79215000I0J250000D01*
G01*
G37*
%TD*%
%TO.C,C2*%
G36*
G01*
X94455000Y-71940000D02*
X93505000Y-71940000D01*
G75*
G02*
X93255000Y-71690000I0J250000D01*
G01*
X93255000Y-71190000D01*
G75*
G02*
X93505000Y-70940000I250000J0D01*
G01*
X94455000Y-70940000D01*
G75*
G02*
X94705000Y-71190000I0J-250000D01*
G01*
X94705000Y-71690000D01*
G75*
G02*
X94455000Y-71940000I-250000J0D01*
G01*
G37*
G36*
G01*
X94455000Y-73840000D02*
X93505000Y-73840000D01*
G75*
G02*
X93255000Y-73590000I0J250000D01*
G01*
X93255000Y-73090000D01*
G75*
G02*
X93505000Y-72840000I250000J0D01*
G01*
X94455000Y-72840000D01*
G75*
G02*
X94705000Y-73090000I0J-250000D01*
G01*
X94705000Y-73590000D01*
G75*
G02*
X94455000Y-73840000I-250000J0D01*
G01*
G37*
%TD*%
%TO.C,C1*%
G36*
G01*
X112210000Y-62705000D02*
X112210000Y-61755000D01*
G75*
G02*
X112460000Y-61505000I250000J0D01*
G01*
X112960000Y-61505000D01*
G75*
G02*
X113210000Y-61755000I0J-250000D01*
G01*
X113210000Y-62705000D01*
G75*
G02*
X112960000Y-62955000I-250000J0D01*
G01*
X112460000Y-62955000D01*
G75*
G02*
X112210000Y-62705000I0J250000D01*
G01*
G37*
G36*
G01*
X110310000Y-62705000D02*
X110310000Y-61755000D01*
G75*
G02*
X110560000Y-61505000I250000J0D01*
G01*
X111060000Y-61505000D01*
G75*
G02*
X111310000Y-61755000I0J-250000D01*
G01*
X111310000Y-62705000D01*
G75*
G02*
X111060000Y-62955000I-250000J0D01*
G01*
X110560000Y-62955000D01*
G75*
G02*
X110310000Y-62705000I0J250000D01*
G01*
G37*
%TD*%
M02*
